<?xml version="1.0" encoding="utf-8" standalone="no"?>
<!DOCTYPE svg PUBLIC "-//W3C//DTD SVG 1.1//EN"
  "http://www.w3.org/Graphics/SVG/1.1/DTD/svg11.dtd">
<svg xmlns:xlink="http://www.w3.org/1999/xlink" width="460.8pt" height="345.6pt" viewBox="0 0 460.8 345.6" xmlns="http://www.w3.org/2000/svg" version="1.1">
 <metadata>
  <rdf:RDF xmlns:dc="http://purl.org/dc/elements/1.1/" xmlns:cc="http://creativecommons.org/ns#" xmlns:rdf="http://www.w3.org/1999/02/22-rdf-syntax-ns#">
   <cc:Work>
    <dc:type rdf:resource="http://purl.org/dc/dcmitype/StillImage"/>
    <dc:date>2024-05-15T09:39:47.381644</dc:date>
    <dc:format>image/svg+xml</dc:format>
    <dc:creator>
     <cc:Agent>
      <dc:title>Matplotlib v3.5.1, https://matplotlib.org/</dc:title>
     </cc:Agent>
    </dc:creator>
   </cc:Work>
  </rdf:RDF>
 </metadata>
 <defs>
  <style type="text/css">*{stroke-linejoin: round; stroke-linecap: butt}</style>
 </defs>
 <g id="figure_1">
  <g id="patch_1">
   <path d="M 0 345.6 
L 460.8 345.6 
L 460.8 0 
L 0 0 
z
" style="fill: #ffffff"/>
  </g>
  <g id="axes_1">
   <g id="patch_2">
    <path d="M 57.6 307.584 
L 414.72 307.584 
L 414.72 41.472 
L 57.6 41.472 
z
" style="fill: #ffffff"/>
   </g>
   <g id="matplotlib.axis_1">
    <g id="xtick_1">
     <g id="line2d_1">
      <defs>
       <path id="m3e63c2628f" d="M 0 0 
L 0 3.5 
" style="stroke: #000000; stroke-width: 0.8"/>
      </defs>
      <g>
       <use xlink:href="#m3e63c2628f" x="70.553388" y="307.584" style="stroke: #000000; stroke-width: 0.8"/>
      </g>
     </g>
     <g id="text_1">
      <!-- 0 -->
      <g transform="translate(67.372138 322.182437)scale(0.1 -0.1)">
       <defs>
        <path id="DejaVuSans-30" d="M 2034 4250 
Q 1547 4250 1301 3770 
Q 1056 3291 1056 2328 
Q 1056 1369 1301 889 
Q 1547 409 2034 409 
Q 2525 409 2770 889 
Q 3016 1369 3016 2328 
Q 3016 3291 2770 3770 
Q 2525 4250 2034 4250 
z
M 2034 4750 
Q 2819 4750 3233 4129 
Q 3647 3509 3647 2328 
Q 3647 1150 3233 529 
Q 2819 -91 2034 -91 
Q 1250 -91 836 529 
Q 422 1150 422 2328 
Q 422 3509 836 4129 
Q 1250 4750 2034 4750 
z
" transform="scale(0.015625)"/>
       </defs>
       <use xlink:href="#DejaVuSans-30"/>
      </g>
     </g>
    </g>
    <g id="xtick_2">
     <g id="line2d_2">
      <g>
       <use xlink:href="#m3e63c2628f" x="136.140165" y="307.584" style="stroke: #000000; stroke-width: 0.8"/>
      </g>
     </g>
     <g id="text_2">
      <!-- 10 -->
      <g transform="translate(129.777665 322.182437)scale(0.1 -0.1)">
       <defs>
        <path id="DejaVuSans-31" d="M 794 531 
L 1825 531 
L 1825 4091 
L 703 3866 
L 703 4441 
L 1819 4666 
L 2450 4666 
L 2450 531 
L 3481 531 
L 3481 0 
L 794 0 
L 794 531 
z
" transform="scale(0.015625)"/>
       </defs>
       <use xlink:href="#DejaVuSans-31"/>
       <use xlink:href="#DejaVuSans-30" x="63.623047"/>
      </g>
     </g>
    </g>
    <g id="xtick_3">
     <g id="line2d_3">
      <g>
       <use xlink:href="#m3e63c2628f" x="201.726942" y="307.584" style="stroke: #000000; stroke-width: 0.8"/>
      </g>
     </g>
     <g id="text_3">
      <!-- 20 -->
      <g transform="translate(195.364442 322.182437)scale(0.1 -0.1)">
       <defs>
        <path id="DejaVuSans-32" d="M 1228 531 
L 3431 531 
L 3431 0 
L 469 0 
L 469 531 
Q 828 903 1448 1529 
Q 2069 2156 2228 2338 
Q 2531 2678 2651 2914 
Q 2772 3150 2772 3378 
Q 2772 3750 2511 3984 
Q 2250 4219 1831 4219 
Q 1534 4219 1204 4116 
Q 875 4013 500 3803 
L 500 4441 
Q 881 4594 1212 4672 
Q 1544 4750 1819 4750 
Q 2544 4750 2975 4387 
Q 3406 4025 3406 3419 
Q 3406 3131 3298 2873 
Q 3191 2616 2906 2266 
Q 2828 2175 2409 1742 
Q 1991 1309 1228 531 
z
" transform="scale(0.015625)"/>
       </defs>
       <use xlink:href="#DejaVuSans-32"/>
       <use xlink:href="#DejaVuSans-30" x="63.623047"/>
      </g>
     </g>
    </g>
    <g id="xtick_4">
     <g id="line2d_4">
      <g>
       <use xlink:href="#m3e63c2628f" x="267.313719" y="307.584" style="stroke: #000000; stroke-width: 0.8"/>
      </g>
     </g>
     <g id="text_4">
      <!-- 30 -->
      <g transform="translate(260.951219 322.182437)scale(0.1 -0.1)">
       <defs>
        <path id="DejaVuSans-33" d="M 2597 2516 
Q 3050 2419 3304 2112 
Q 3559 1806 3559 1356 
Q 3559 666 3084 287 
Q 2609 -91 1734 -91 
Q 1441 -91 1130 -33 
Q 819 25 488 141 
L 488 750 
Q 750 597 1062 519 
Q 1375 441 1716 441 
Q 2309 441 2620 675 
Q 2931 909 2931 1356 
Q 2931 1769 2642 2001 
Q 2353 2234 1838 2234 
L 1294 2234 
L 1294 2753 
L 1863 2753 
Q 2328 2753 2575 2939 
Q 2822 3125 2822 3475 
Q 2822 3834 2567 4026 
Q 2313 4219 1838 4219 
Q 1578 4219 1281 4162 
Q 984 4106 628 3988 
L 628 4550 
Q 988 4650 1302 4700 
Q 1616 4750 1894 4750 
Q 2613 4750 3031 4423 
Q 3450 4097 3450 3541 
Q 3450 3153 3228 2886 
Q 3006 2619 2597 2516 
z
" transform="scale(0.015625)"/>
       </defs>
       <use xlink:href="#DejaVuSans-33"/>
       <use xlink:href="#DejaVuSans-30" x="63.623047"/>
      </g>
     </g>
    </g>
    <g id="xtick_5">
     <g id="line2d_5">
      <g>
       <use xlink:href="#m3e63c2628f" x="332.900496" y="307.584" style="stroke: #000000; stroke-width: 0.8"/>
      </g>
     </g>
     <g id="text_5">
      <!-- 40 -->
      <g transform="translate(326.537996 322.182437)scale(0.1 -0.1)">
       <defs>
        <path id="DejaVuSans-34" d="M 2419 4116 
L 825 1625 
L 2419 1625 
L 2419 4116 
z
M 2253 4666 
L 3047 4666 
L 3047 1625 
L 3713 1625 
L 3713 1100 
L 3047 1100 
L 3047 0 
L 2419 0 
L 2419 1100 
L 313 1100 
L 313 1709 
L 2253 4666 
z
" transform="scale(0.015625)"/>
       </defs>
       <use xlink:href="#DejaVuSans-34"/>
       <use xlink:href="#DejaVuSans-30" x="63.623047"/>
      </g>
     </g>
    </g>
    <g id="xtick_6">
     <g id="line2d_6">
      <g>
       <use xlink:href="#m3e63c2628f" x="398.487273" y="307.584" style="stroke: #000000; stroke-width: 0.8"/>
      </g>
     </g>
     <g id="text_6">
      <!-- 50 -->
      <g transform="translate(392.124773 322.182437)scale(0.1 -0.1)">
       <defs>
        <path id="DejaVuSans-35" d="M 691 4666 
L 3169 4666 
L 3169 4134 
L 1269 4134 
L 1269 2991 
Q 1406 3038 1543 3061 
Q 1681 3084 1819 3084 
Q 2600 3084 3056 2656 
Q 3513 2228 3513 1497 
Q 3513 744 3044 326 
Q 2575 -91 1722 -91 
Q 1428 -91 1123 -41 
Q 819 9 494 109 
L 494 744 
Q 775 591 1075 516 
Q 1375 441 1709 441 
Q 2250 441 2565 725 
Q 2881 1009 2881 1497 
Q 2881 1984 2565 2268 
Q 2250 2553 1709 2553 
Q 1456 2553 1204 2497 
Q 953 2441 691 2322 
L 691 4666 
z
" transform="scale(0.015625)"/>
       </defs>
       <use xlink:href="#DejaVuSans-35"/>
       <use xlink:href="#DejaVuSans-30" x="63.623047"/>
      </g>
     </g>
    </g>
    <g id="text_7">
     <!-- Jmax -->
     <g transform="translate(223.79125 335.860562)scale(0.1 -0.1)">
      <defs>
       <path id="DejaVuSans-4a" d="M 628 4666 
L 1259 4666 
L 1259 325 
Q 1259 -519 939 -900 
Q 619 -1281 -91 -1281 
L -331 -1281 
L -331 -750 
L -134 -750 
Q 284 -750 456 -515 
Q 628 -281 628 325 
L 628 4666 
z
" transform="scale(0.015625)"/>
       <path id="DejaVuSans-6d" d="M 3328 2828 
Q 3544 3216 3844 3400 
Q 4144 3584 4550 3584 
Q 5097 3584 5394 3201 
Q 5691 2819 5691 2113 
L 5691 0 
L 5113 0 
L 5113 2094 
Q 5113 2597 4934 2840 
Q 4756 3084 4391 3084 
Q 3944 3084 3684 2787 
Q 3425 2491 3425 1978 
L 3425 0 
L 2847 0 
L 2847 2094 
Q 2847 2600 2669 2842 
Q 2491 3084 2119 3084 
Q 1678 3084 1418 2786 
Q 1159 2488 1159 1978 
L 1159 0 
L 581 0 
L 581 3500 
L 1159 3500 
L 1159 2956 
Q 1356 3278 1631 3431 
Q 1906 3584 2284 3584 
Q 2666 3584 2933 3390 
Q 3200 3197 3328 2828 
z
" transform="scale(0.015625)"/>
       <path id="DejaVuSans-61" d="M 2194 1759 
Q 1497 1759 1228 1600 
Q 959 1441 959 1056 
Q 959 750 1161 570 
Q 1363 391 1709 391 
Q 2188 391 2477 730 
Q 2766 1069 2766 1631 
L 2766 1759 
L 2194 1759 
z
M 3341 1997 
L 3341 0 
L 2766 0 
L 2766 531 
Q 2569 213 2275 61 
Q 1981 -91 1556 -91 
Q 1019 -91 701 211 
Q 384 513 384 1019 
Q 384 1609 779 1909 
Q 1175 2209 1959 2209 
L 2766 2209 
L 2766 2266 
Q 2766 2663 2505 2880 
Q 2244 3097 1772 3097 
Q 1472 3097 1187 3025 
Q 903 2953 641 2809 
L 641 3341 
Q 956 3463 1253 3523 
Q 1550 3584 1831 3584 
Q 2591 3584 2966 3190 
Q 3341 2797 3341 1997 
z
" transform="scale(0.015625)"/>
       <path id="DejaVuSans-78" d="M 3513 3500 
L 2247 1797 
L 3578 0 
L 2900 0 
L 1881 1375 
L 863 0 
L 184 0 
L 1544 1831 
L 300 3500 
L 978 3500 
L 1906 2253 
L 2834 3500 
L 3513 3500 
z
" transform="scale(0.015625)"/>
      </defs>
      <use xlink:href="#DejaVuSans-4a"/>
      <use xlink:href="#DejaVuSans-6d" x="29.492188"/>
      <use xlink:href="#DejaVuSans-61" x="126.904297"/>
      <use xlink:href="#DejaVuSans-78" x="188.183594"/>
     </g>
    </g>
   </g>
   <g id="matplotlib.axis_2">
    <g id="ytick_1">
     <g id="line2d_7">
      <defs>
       <path id="m6e7046162a" d="M 0 0 
L -3.5 0 
" style="stroke: #000000; stroke-width: 0.8"/>
      </defs>
      <g>
       <use xlink:href="#m6e7046162a" x="57.6" y="280.116239" style="stroke: #000000; stroke-width: 0.8"/>
      </g>
     </g>
     <g id="text_8">
      <!-- $\mathdefault{10^{-14}}$ -->
      <g transform="translate(22.7 283.915457)scale(0.1 -0.1)">
       <defs>
        <path id="DejaVuSans-2212" d="M 678 2272 
L 4684 2272 
L 4684 1741 
L 678 1741 
L 678 2272 
z
" transform="scale(0.015625)"/>
       </defs>
       <use xlink:href="#DejaVuSans-31" transform="translate(0 0.684375)"/>
       <use xlink:href="#DejaVuSans-30" transform="translate(63.623047 0.684375)"/>
       <use xlink:href="#DejaVuSans-2212" transform="translate(128.203125 38.965625)scale(0.7)"/>
       <use xlink:href="#DejaVuSans-31" transform="translate(186.855469 38.965625)scale(0.7)"/>
       <use xlink:href="#DejaVuSans-34" transform="translate(231.391602 38.965625)scale(0.7)"/>
      </g>
     </g>
    </g>
    <g id="ytick_2">
     <g id="line2d_8">
      <g>
       <use xlink:href="#m6e7046162a" x="57.6" y="245.543815" style="stroke: #000000; stroke-width: 0.8"/>
      </g>
     </g>
     <g id="text_9">
      <!-- $\mathdefault{10^{-10}}$ -->
      <g transform="translate(22.7 249.343034)scale(0.1 -0.1)">
       <use xlink:href="#DejaVuSans-31" transform="translate(0 0.765625)"/>
       <use xlink:href="#DejaVuSans-30" transform="translate(63.623047 0.765625)"/>
       <use xlink:href="#DejaVuSans-2212" transform="translate(128.203125 39.046875)scale(0.7)"/>
       <use xlink:href="#DejaVuSans-31" transform="translate(186.855469 39.046875)scale(0.7)"/>
       <use xlink:href="#DejaVuSans-30" transform="translate(231.391602 39.046875)scale(0.7)"/>
      </g>
     </g>
    </g>
    <g id="ytick_3">
     <g id="line2d_9">
      <g>
       <use xlink:href="#m6e7046162a" x="57.6" y="210.971391" style="stroke: #000000; stroke-width: 0.8"/>
      </g>
     </g>
     <g id="text_10">
      <!-- $\mathdefault{10^{-6}}$ -->
      <g transform="translate(27.1 214.77061)scale(0.1 -0.1)">
       <defs>
        <path id="DejaVuSans-36" d="M 2113 2584 
Q 1688 2584 1439 2293 
Q 1191 2003 1191 1497 
Q 1191 994 1439 701 
Q 1688 409 2113 409 
Q 2538 409 2786 701 
Q 3034 994 3034 1497 
Q 3034 2003 2786 2293 
Q 2538 2584 2113 2584 
z
M 3366 4563 
L 3366 3988 
Q 3128 4100 2886 4159 
Q 2644 4219 2406 4219 
Q 1781 4219 1451 3797 
Q 1122 3375 1075 2522 
Q 1259 2794 1537 2939 
Q 1816 3084 2150 3084 
Q 2853 3084 3261 2657 
Q 3669 2231 3669 1497 
Q 3669 778 3244 343 
Q 2819 -91 2113 -91 
Q 1303 -91 875 529 
Q 447 1150 447 2328 
Q 447 3434 972 4092 
Q 1497 4750 2381 4750 
Q 2619 4750 2861 4703 
Q 3103 4656 3366 4563 
z
" transform="scale(0.015625)"/>
       </defs>
       <use xlink:href="#DejaVuSans-31" transform="translate(0 0.765625)"/>
       <use xlink:href="#DejaVuSans-30" transform="translate(63.623047 0.765625)"/>
       <use xlink:href="#DejaVuSans-2212" transform="translate(128.203125 39.046875)scale(0.7)"/>
       <use xlink:href="#DejaVuSans-36" transform="translate(186.855469 39.046875)scale(0.7)"/>
      </g>
     </g>
    </g>
    <g id="ytick_4">
     <g id="line2d_10">
      <g>
       <use xlink:href="#m6e7046162a" x="57.6" y="176.398967" style="stroke: #000000; stroke-width: 0.8"/>
      </g>
     </g>
     <g id="text_11">
      <!-- $\mathdefault{10^{-2}}$ -->
      <g transform="translate(27.1 180.198186)scale(0.1 -0.1)">
       <use xlink:href="#DejaVuSans-31" transform="translate(0 0.765625)"/>
       <use xlink:href="#DejaVuSans-30" transform="translate(63.623047 0.765625)"/>
       <use xlink:href="#DejaVuSans-2212" transform="translate(128.203125 39.046875)scale(0.7)"/>
       <use xlink:href="#DejaVuSans-32" transform="translate(186.855469 39.046875)scale(0.7)"/>
      </g>
     </g>
    </g>
    <g id="ytick_5">
     <g id="line2d_11">
      <g>
       <use xlink:href="#m6e7046162a" x="57.6" y="141.826543" style="stroke: #000000; stroke-width: 0.8"/>
      </g>
     </g>
     <g id="text_12">
      <!-- $\mathdefault{10^{2}}$ -->
      <g transform="translate(33 145.625762)scale(0.1 -0.1)">
       <use xlink:href="#DejaVuSans-31" transform="translate(0 0.765625)"/>
       <use xlink:href="#DejaVuSans-30" transform="translate(63.623047 0.765625)"/>
       <use xlink:href="#DejaVuSans-32" transform="translate(128.203125 39.046875)scale(0.7)"/>
      </g>
     </g>
    </g>
    <g id="ytick_6">
     <g id="line2d_12">
      <g>
       <use xlink:href="#m6e7046162a" x="57.6" y="107.254119" style="stroke: #000000; stroke-width: 0.8"/>
      </g>
     </g>
     <g id="text_13">
      <!-- $\mathdefault{10^{6}}$ -->
      <g transform="translate(33 111.053338)scale(0.1 -0.1)">
       <use xlink:href="#DejaVuSans-31" transform="translate(0 0.765625)"/>
       <use xlink:href="#DejaVuSans-30" transform="translate(63.623047 0.765625)"/>
       <use xlink:href="#DejaVuSans-36" transform="translate(128.203125 39.046875)scale(0.7)"/>
      </g>
     </g>
    </g>
    <g id="ytick_7">
     <g id="line2d_13">
      <g>
       <use xlink:href="#m6e7046162a" x="57.6" y="72.681695" style="stroke: #000000; stroke-width: 0.8"/>
      </g>
     </g>
     <g id="text_14">
      <!-- $\mathdefault{10^{10}}$ -->
      <g transform="translate(28.5 76.480914)scale(0.1 -0.1)">
       <use xlink:href="#DejaVuSans-31" transform="translate(0 0.765625)"/>
       <use xlink:href="#DejaVuSans-30" transform="translate(63.623047 0.765625)"/>
       <use xlink:href="#DejaVuSans-31" transform="translate(128.203125 39.046875)scale(0.7)"/>
       <use xlink:href="#DejaVuSans-30" transform="translate(172.739258 39.046875)scale(0.7)"/>
      </g>
     </g>
    </g>
    <g id="text_15">
     <!-- Relative Error -->
     <g transform="translate(16.620312 208.466281)rotate(-90)scale(0.1 -0.1)">
      <defs>
       <path id="DejaVuSans-52" d="M 2841 2188 
Q 3044 2119 3236 1894 
Q 3428 1669 3622 1275 
L 4263 0 
L 3584 0 
L 2988 1197 
Q 2756 1666 2539 1819 
Q 2322 1972 1947 1972 
L 1259 1972 
L 1259 0 
L 628 0 
L 628 4666 
L 2053 4666 
Q 2853 4666 3247 4331 
Q 3641 3997 3641 3322 
Q 3641 2881 3436 2590 
Q 3231 2300 2841 2188 
z
M 1259 4147 
L 1259 2491 
L 2053 2491 
Q 2509 2491 2742 2702 
Q 2975 2913 2975 3322 
Q 2975 3731 2742 3939 
Q 2509 4147 2053 4147 
L 1259 4147 
z
" transform="scale(0.015625)"/>
       <path id="DejaVuSans-65" d="M 3597 1894 
L 3597 1613 
L 953 1613 
Q 991 1019 1311 708 
Q 1631 397 2203 397 
Q 2534 397 2845 478 
Q 3156 559 3463 722 
L 3463 178 
Q 3153 47 2828 -22 
Q 2503 -91 2169 -91 
Q 1331 -91 842 396 
Q 353 884 353 1716 
Q 353 2575 817 3079 
Q 1281 3584 2069 3584 
Q 2775 3584 3186 3129 
Q 3597 2675 3597 1894 
z
M 3022 2063 
Q 3016 2534 2758 2815 
Q 2500 3097 2075 3097 
Q 1594 3097 1305 2825 
Q 1016 2553 972 2059 
L 3022 2063 
z
" transform="scale(0.015625)"/>
       <path id="DejaVuSans-6c" d="M 603 4863 
L 1178 4863 
L 1178 0 
L 603 0 
L 603 4863 
z
" transform="scale(0.015625)"/>
       <path id="DejaVuSans-74" d="M 1172 4494 
L 1172 3500 
L 2356 3500 
L 2356 3053 
L 1172 3053 
L 1172 1153 
Q 1172 725 1289 603 
Q 1406 481 1766 481 
L 2356 481 
L 2356 0 
L 1766 0 
Q 1100 0 847 248 
Q 594 497 594 1153 
L 594 3053 
L 172 3053 
L 172 3500 
L 594 3500 
L 594 4494 
L 1172 4494 
z
" transform="scale(0.015625)"/>
       <path id="DejaVuSans-69" d="M 603 3500 
L 1178 3500 
L 1178 0 
L 603 0 
L 603 3500 
z
M 603 4863 
L 1178 4863 
L 1178 4134 
L 603 4134 
L 603 4863 
z
" transform="scale(0.015625)"/>
       <path id="DejaVuSans-76" d="M 191 3500 
L 800 3500 
L 1894 563 
L 2988 3500 
L 3597 3500 
L 2284 0 
L 1503 0 
L 191 3500 
z
" transform="scale(0.015625)"/>
       <path id="DejaVuSans-20" transform="scale(0.015625)"/>
       <path id="DejaVuSans-45" d="M 628 4666 
L 3578 4666 
L 3578 4134 
L 1259 4134 
L 1259 2753 
L 3481 2753 
L 3481 2222 
L 1259 2222 
L 1259 531 
L 3634 531 
L 3634 0 
L 628 0 
L 628 4666 
z
" transform="scale(0.015625)"/>
       <path id="DejaVuSans-72" d="M 2631 2963 
Q 2534 3019 2420 3045 
Q 2306 3072 2169 3072 
Q 1681 3072 1420 2755 
Q 1159 2438 1159 1844 
L 1159 0 
L 581 0 
L 581 3500 
L 1159 3500 
L 1159 2956 
Q 1341 3275 1631 3429 
Q 1922 3584 2338 3584 
Q 2397 3584 2469 3576 
Q 2541 3569 2628 3553 
L 2631 2963 
z
" transform="scale(0.015625)"/>
       <path id="DejaVuSans-6f" d="M 1959 3097 
Q 1497 3097 1228 2736 
Q 959 2375 959 1747 
Q 959 1119 1226 758 
Q 1494 397 1959 397 
Q 2419 397 2687 759 
Q 2956 1122 2956 1747 
Q 2956 2369 2687 2733 
Q 2419 3097 1959 3097 
z
M 1959 3584 
Q 2709 3584 3137 3096 
Q 3566 2609 3566 1747 
Q 3566 888 3137 398 
Q 2709 -91 1959 -91 
Q 1206 -91 779 398 
Q 353 888 353 1747 
Q 353 2609 779 3096 
Q 1206 3584 1959 3584 
z
" transform="scale(0.015625)"/>
      </defs>
      <use xlink:href="#DejaVuSans-52"/>
      <use xlink:href="#DejaVuSans-65" x="64.982422"/>
      <use xlink:href="#DejaVuSans-6c" x="126.505859"/>
      <use xlink:href="#DejaVuSans-61" x="154.289062"/>
      <use xlink:href="#DejaVuSans-74" x="215.568359"/>
      <use xlink:href="#DejaVuSans-69" x="254.777344"/>
      <use xlink:href="#DejaVuSans-76" x="282.560547"/>
      <use xlink:href="#DejaVuSans-65" x="341.740234"/>
      <use xlink:href="#DejaVuSans-20" x="403.263672"/>
      <use xlink:href="#DejaVuSans-45" x="435.050781"/>
      <use xlink:href="#DejaVuSans-72" x="498.234375"/>
      <use xlink:href="#DejaVuSans-72" x="537.597656"/>
      <use xlink:href="#DejaVuSans-6f" x="576.460938"/>
      <use xlink:href="#DejaVuSans-72" x="637.642578"/>
     </g>
    </g>
   </g>
   <g id="line2d_14">
    <path d="M 77.092362 346.6 
L 77.112066 295.488 
L 80.391405 291.606438 
L 83.670744 292.357247 
L 86.950083 291.606438 
L 90.229421 283.502481 
L 93.50876 280.852965 
L 96.788099 282.571068 
L 100.067438 272.702628 
L 103.346777 277.31781 
L 106.626116 269.70351 
L 109.905455 277.241367 
L 113.184793 268.317143 
L 116.464132 267.559326 
L 119.743471 272.290036 
L 123.02281 260.927474 
L 126.302149 260.027824 
L 129.581488 260.098826 
L 132.860826 265.214613 
L 136.140165 259.14916 
L 139.419504 253.393327 
L 142.698843 249.317863 
L 145.978182 264.08013 
L 149.257521 242.213791 
L 152.53686 242.769364 
L 155.816198 240.880034 
L 159.095537 255.191525 
L 162.374876 235.224757 
L 165.654215 231.759407 
L 168.933554 228.775248 
L 172.212893 249.545616 
L 175.492231 227.090297 
L 178.77157 225.300448 
L 182.050909 220.45066 
L 185.330248 234.321748 
L 188.609587 214.191948 
L 191.888926 207.819176 
L 195.168264 206.699494 
L 198.447603 226.311527 
L 201.726942 203.766787 
L 205.006281 202.056469 
L 208.28562 201.335211 
L 211.564959 216.261065 
L 214.844298 190.810813 
L 218.123636 187.902228 
L 221.402975 191.721888 
L 224.682314 210.39079 
L 227.961653 184.280211 
L 231.240992 178.416401 
L 234.520331 179.469442 
L 237.799669 204.429083 
L 241.079008 170.235367 
L 244.358347 166.739036 
L 247.637686 166.147038 
L 250.917025 185.807452 
L 254.196364 159.925922 
L 257.475702 157.316334 
L 260.755041 156.683223 
L 264.03438 175.785262 
L 267.313719 152.010493 
L 270.593058 145.501635 
L 273.872397 150.752494 
L 277.151736 167.717731 
L 280.431074 138.977378 
L 283.710413 137.131104 
L 286.989752 139.92069 
L 290.269091 156.979965 
L 293.54843 132.904505 
L 296.827769 127.094698 
L 300.107107 124.481302 
L 303.386446 145.373278 
L 306.665785 120.86565 
L 309.945124 120.259988 
L 313.224463 113.501743 
L 316.503802 136.137656 
L 319.78314 116.406542 
L 323.062479 107.618236 
L 326.341818 104.9473 
L 329.621157 127.841428 
L 332.900496 98.88427 
L 336.179835 92.504112 
L 339.459174 94.472568 
L 342.738512 116.333497 
L 346.017851 92.877924 
L 349.29719 87.16574 
L 352.576529 85.607771 
L 355.855868 106.502045 
L 359.135207 83.873686 
L 362.414545 74.429518 
L 365.693884 75.769254 
L 368.973223 99.625466 
L 372.252562 71.572932 
L 375.531901 65.600094 
L 378.81124 61.240481 
L 382.090579 85.749482 
L 385.369917 57.356135 
L 388.649256 53.838388 
L 391.928595 53.568 
L 395.207934 78.78374 
L 398.487273 63.424406 
" clip-path="url(#pd70ef42c84)" style="fill: none; stroke: #008000; stroke-width: 1.5; stroke-linecap: square"/>
    <defs>
     <path id="mbc73d26846" d="M 0 1.5 
C 0.397805 1.5 0.77937 1.341951 1.06066 1.06066 
C 1.341951 0.77937 1.5 0.397805 1.5 0 
C 1.5 -0.397805 1.341951 -0.77937 1.06066 -1.06066 
C 0.77937 -1.341951 0.397805 -1.5 0 -1.5 
C -0.397805 -1.5 -0.77937 -1.341951 -1.06066 -1.06066 
C -1.341951 -0.77937 -1.5 -0.397805 -1.5 0 
C -1.5 0.397805 -1.341951 0.77937 -1.06066 1.06066 
C -0.77937 1.341951 -0.397805 1.5 0 1.5 
z
" style="stroke: #008000"/>
    </defs>
    <g clip-path="url(#pd70ef42c84)">
     <use xlink:href="#mbc73d26846" x="73.832727" y="8802.218729" style="fill: #008000; stroke: #008000"/>
     <use xlink:href="#mbc73d26846" x="77.112066" y="295.488" style="fill: #008000; stroke: #008000"/>
     <use xlink:href="#mbc73d26846" x="80.391405" y="291.606438" style="fill: #008000; stroke: #008000"/>
     <use xlink:href="#mbc73d26846" x="83.670744" y="292.357247" style="fill: #008000; stroke: #008000"/>
     <use xlink:href="#mbc73d26846" x="86.950083" y="291.606438" style="fill: #008000; stroke: #008000"/>
     <use xlink:href="#mbc73d26846" x="90.229421" y="283.502481" style="fill: #008000; stroke: #008000"/>
     <use xlink:href="#mbc73d26846" x="93.50876" y="280.852965" style="fill: #008000; stroke: #008000"/>
     <use xlink:href="#mbc73d26846" x="96.788099" y="282.571068" style="fill: #008000; stroke: #008000"/>
     <use xlink:href="#mbc73d26846" x="100.067438" y="272.702628" style="fill: #008000; stroke: #008000"/>
     <use xlink:href="#mbc73d26846" x="103.346777" y="277.31781" style="fill: #008000; stroke: #008000"/>
     <use xlink:href="#mbc73d26846" x="106.626116" y="269.70351" style="fill: #008000; stroke: #008000"/>
     <use xlink:href="#mbc73d26846" x="109.905455" y="277.241367" style="fill: #008000; stroke: #008000"/>
     <use xlink:href="#mbc73d26846" x="113.184793" y="268.317143" style="fill: #008000; stroke: #008000"/>
     <use xlink:href="#mbc73d26846" x="116.464132" y="267.559326" style="fill: #008000; stroke: #008000"/>
     <use xlink:href="#mbc73d26846" x="119.743471" y="272.290036" style="fill: #008000; stroke: #008000"/>
     <use xlink:href="#mbc73d26846" x="123.02281" y="260.927474" style="fill: #008000; stroke: #008000"/>
     <use xlink:href="#mbc73d26846" x="126.302149" y="260.027824" style="fill: #008000; stroke: #008000"/>
     <use xlink:href="#mbc73d26846" x="129.581488" y="260.098826" style="fill: #008000; stroke: #008000"/>
     <use xlink:href="#mbc73d26846" x="132.860826" y="265.214613" style="fill: #008000; stroke: #008000"/>
     <use xlink:href="#mbc73d26846" x="136.140165" y="259.14916" style="fill: #008000; stroke: #008000"/>
     <use xlink:href="#mbc73d26846" x="139.419504" y="253.393327" style="fill: #008000; stroke: #008000"/>
     <use xlink:href="#mbc73d26846" x="142.698843" y="249.317863" style="fill: #008000; stroke: #008000"/>
     <use xlink:href="#mbc73d26846" x="145.978182" y="264.08013" style="fill: #008000; stroke: #008000"/>
     <use xlink:href="#mbc73d26846" x="149.257521" y="242.213791" style="fill: #008000; stroke: #008000"/>
     <use xlink:href="#mbc73d26846" x="152.53686" y="242.769364" style="fill: #008000; stroke: #008000"/>
     <use xlink:href="#mbc73d26846" x="155.816198" y="240.880034" style="fill: #008000; stroke: #008000"/>
     <use xlink:href="#mbc73d26846" x="159.095537" y="255.191525" style="fill: #008000; stroke: #008000"/>
     <use xlink:href="#mbc73d26846" x="162.374876" y="235.224757" style="fill: #008000; stroke: #008000"/>
     <use xlink:href="#mbc73d26846" x="165.654215" y="231.759407" style="fill: #008000; stroke: #008000"/>
     <use xlink:href="#mbc73d26846" x="168.933554" y="228.775248" style="fill: #008000; stroke: #008000"/>
     <use xlink:href="#mbc73d26846" x="172.212893" y="249.545616" style="fill: #008000; stroke: #008000"/>
     <use xlink:href="#mbc73d26846" x="175.492231" y="227.090297" style="fill: #008000; stroke: #008000"/>
     <use xlink:href="#mbc73d26846" x="178.77157" y="225.300448" style="fill: #008000; stroke: #008000"/>
     <use xlink:href="#mbc73d26846" x="182.050909" y="220.45066" style="fill: #008000; stroke: #008000"/>
     <use xlink:href="#mbc73d26846" x="185.330248" y="234.321748" style="fill: #008000; stroke: #008000"/>
     <use xlink:href="#mbc73d26846" x="188.609587" y="214.191948" style="fill: #008000; stroke: #008000"/>
     <use xlink:href="#mbc73d26846" x="191.888926" y="207.819176" style="fill: #008000; stroke: #008000"/>
     <use xlink:href="#mbc73d26846" x="195.168264" y="206.699494" style="fill: #008000; stroke: #008000"/>
     <use xlink:href="#mbc73d26846" x="198.447603" y="226.311527" style="fill: #008000; stroke: #008000"/>
     <use xlink:href="#mbc73d26846" x="201.726942" y="203.766787" style="fill: #008000; stroke: #008000"/>
     <use xlink:href="#mbc73d26846" x="205.006281" y="202.056469" style="fill: #008000; stroke: #008000"/>
     <use xlink:href="#mbc73d26846" x="208.28562" y="201.335211" style="fill: #008000; stroke: #008000"/>
     <use xlink:href="#mbc73d26846" x="211.564959" y="216.261065" style="fill: #008000; stroke: #008000"/>
     <use xlink:href="#mbc73d26846" x="214.844298" y="190.810813" style="fill: #008000; stroke: #008000"/>
     <use xlink:href="#mbc73d26846" x="218.123636" y="187.902228" style="fill: #008000; stroke: #008000"/>
     <use xlink:href="#mbc73d26846" x="221.402975" y="191.721888" style="fill: #008000; stroke: #008000"/>
     <use xlink:href="#mbc73d26846" x="224.682314" y="210.39079" style="fill: #008000; stroke: #008000"/>
     <use xlink:href="#mbc73d26846" x="227.961653" y="184.280211" style="fill: #008000; stroke: #008000"/>
     <use xlink:href="#mbc73d26846" x="231.240992" y="178.416401" style="fill: #008000; stroke: #008000"/>
     <use xlink:href="#mbc73d26846" x="234.520331" y="179.469442" style="fill: #008000; stroke: #008000"/>
     <use xlink:href="#mbc73d26846" x="237.799669" y="204.429083" style="fill: #008000; stroke: #008000"/>
     <use xlink:href="#mbc73d26846" x="241.079008" y="170.235367" style="fill: #008000; stroke: #008000"/>
     <use xlink:href="#mbc73d26846" x="244.358347" y="166.739036" style="fill: #008000; stroke: #008000"/>
     <use xlink:href="#mbc73d26846" x="247.637686" y="166.147038" style="fill: #008000; stroke: #008000"/>
     <use xlink:href="#mbc73d26846" x="250.917025" y="185.807452" style="fill: #008000; stroke: #008000"/>
     <use xlink:href="#mbc73d26846" x="254.196364" y="159.925922" style="fill: #008000; stroke: #008000"/>
     <use xlink:href="#mbc73d26846" x="257.475702" y="157.316334" style="fill: #008000; stroke: #008000"/>
     <use xlink:href="#mbc73d26846" x="260.755041" y="156.683223" style="fill: #008000; stroke: #008000"/>
     <use xlink:href="#mbc73d26846" x="264.03438" y="175.785262" style="fill: #008000; stroke: #008000"/>
     <use xlink:href="#mbc73d26846" x="267.313719" y="152.010493" style="fill: #008000; stroke: #008000"/>
     <use xlink:href="#mbc73d26846" x="270.593058" y="145.501635" style="fill: #008000; stroke: #008000"/>
     <use xlink:href="#mbc73d26846" x="273.872397" y="150.752494" style="fill: #008000; stroke: #008000"/>
     <use xlink:href="#mbc73d26846" x="277.151736" y="167.717731" style="fill: #008000; stroke: #008000"/>
     <use xlink:href="#mbc73d26846" x="280.431074" y="138.977378" style="fill: #008000; stroke: #008000"/>
     <use xlink:href="#mbc73d26846" x="283.710413" y="137.131104" style="fill: #008000; stroke: #008000"/>
     <use xlink:href="#mbc73d26846" x="286.989752" y="139.92069" style="fill: #008000; stroke: #008000"/>
     <use xlink:href="#mbc73d26846" x="290.269091" y="156.979965" style="fill: #008000; stroke: #008000"/>
     <use xlink:href="#mbc73d26846" x="293.54843" y="132.904505" style="fill: #008000; stroke: #008000"/>
     <use xlink:href="#mbc73d26846" x="296.827769" y="127.094698" style="fill: #008000; stroke: #008000"/>
     <use xlink:href="#mbc73d26846" x="300.107107" y="124.481302" style="fill: #008000; stroke: #008000"/>
     <use xlink:href="#mbc73d26846" x="303.386446" y="145.373278" style="fill: #008000; stroke: #008000"/>
     <use xlink:href="#mbc73d26846" x="306.665785" y="120.86565" style="fill: #008000; stroke: #008000"/>
     <use xlink:href="#mbc73d26846" x="309.945124" y="120.259988" style="fill: #008000; stroke: #008000"/>
     <use xlink:href="#mbc73d26846" x="313.224463" y="113.501743" style="fill: #008000; stroke: #008000"/>
     <use xlink:href="#mbc73d26846" x="316.503802" y="136.137656" style="fill: #008000; stroke: #008000"/>
     <use xlink:href="#mbc73d26846" x="319.78314" y="116.406542" style="fill: #008000; stroke: #008000"/>
     <use xlink:href="#mbc73d26846" x="323.062479" y="107.618236" style="fill: #008000; stroke: #008000"/>
     <use xlink:href="#mbc73d26846" x="326.341818" y="104.9473" style="fill: #008000; stroke: #008000"/>
     <use xlink:href="#mbc73d26846" x="329.621157" y="127.841428" style="fill: #008000; stroke: #008000"/>
     <use xlink:href="#mbc73d26846" x="332.900496" y="98.88427" style="fill: #008000; stroke: #008000"/>
     <use xlink:href="#mbc73d26846" x="336.179835" y="92.504112" style="fill: #008000; stroke: #008000"/>
     <use xlink:href="#mbc73d26846" x="339.459174" y="94.472568" style="fill: #008000; stroke: #008000"/>
     <use xlink:href="#mbc73d26846" x="342.738512" y="116.333497" style="fill: #008000; stroke: #008000"/>
     <use xlink:href="#mbc73d26846" x="346.017851" y="92.877924" style="fill: #008000; stroke: #008000"/>
     <use xlink:href="#mbc73d26846" x="349.29719" y="87.16574" style="fill: #008000; stroke: #008000"/>
     <use xlink:href="#mbc73d26846" x="352.576529" y="85.607771" style="fill: #008000; stroke: #008000"/>
     <use xlink:href="#mbc73d26846" x="355.855868" y="106.502045" style="fill: #008000; stroke: #008000"/>
     <use xlink:href="#mbc73d26846" x="359.135207" y="83.873686" style="fill: #008000; stroke: #008000"/>
     <use xlink:href="#mbc73d26846" x="362.414545" y="74.429518" style="fill: #008000; stroke: #008000"/>
     <use xlink:href="#mbc73d26846" x="365.693884" y="75.769254" style="fill: #008000; stroke: #008000"/>
     <use xlink:href="#mbc73d26846" x="368.973223" y="99.625466" style="fill: #008000; stroke: #008000"/>
     <use xlink:href="#mbc73d26846" x="372.252562" y="71.572932" style="fill: #008000; stroke: #008000"/>
     <use xlink:href="#mbc73d26846" x="375.531901" y="65.600094" style="fill: #008000; stroke: #008000"/>
     <use xlink:href="#mbc73d26846" x="378.81124" y="61.240481" style="fill: #008000; stroke: #008000"/>
     <use xlink:href="#mbc73d26846" x="382.090579" y="85.749482" style="fill: #008000; stroke: #008000"/>
     <use xlink:href="#mbc73d26846" x="385.369917" y="57.356135" style="fill: #008000; stroke: #008000"/>
     <use xlink:href="#mbc73d26846" x="388.649256" y="53.838388" style="fill: #008000; stroke: #008000"/>
     <use xlink:href="#mbc73d26846" x="391.928595" y="53.568" style="fill: #008000; stroke: #008000"/>
     <use xlink:href="#mbc73d26846" x="395.207934" y="78.78374" style="fill: #008000; stroke: #008000"/>
     <use xlink:href="#mbc73d26846" x="398.487273" y="63.424406" style="fill: #008000; stroke: #008000"/>
    </g>
   </g>
   <g id="line2d_15">
    <path d="M 73.832727 290.28432 
L 77.112066 289.446719 
L 80.391405 283.960684 
L 83.670744 284.699858 
L 86.950083 279.146053 
L 90.229421 280.368453 
L 93.50876 271.000875 
L 96.788099 276.090557 
L 100.067438 265.253363 
L 103.346777 269.296494 
L 106.626116 261.607949 
L 109.905455 272.348229 
L 113.184793 263.870336 
L 116.464132 261.393499 
L 119.743471 266.387805 
L 123.02281 252.12244 
L 126.302149 258.140029 
L 129.581488 256.852207 
L 132.860826 255.207132 
L 136.140165 252.429876 
L 139.419504 243.685958 
L 142.698843 245.020176 
L 145.978182 253.83794 
L 149.257521 239.621655 
L 152.53686 233.630034 
L 155.816198 231.583236 
L 159.095537 247.415753 
L 162.374876 238.657877 
L 165.654215 229.355623 
L 168.933554 226.507475 
L 172.212893 240.683467 
L 175.492231 217.622702 
L 178.77157 212.834693 
L 182.050909 213.701306 
L 185.330248 232.754482 
L 188.609587 206.827789 
L 191.888926 203.981294 
L 195.168264 203.892966 
L 198.447603 220.793858 
L 201.726942 204.175717 
L 205.006281 192.205937 
L 208.28562 192.859335 
L 211.564959 217.017564 
L 214.844298 188.447804 
L 218.123636 184.126635 
L 221.402975 193.116043 
L 224.682314 207.340841 
L 227.961653 172.546231 
L 231.240992 172.546231 
L 234.520331 170.064649 
L 237.799669 193.676406 
L 241.079008 164.612101 
L 244.358347 165.115023 
L 247.637686 160.87474 
L 250.917025 184.420121 
L 254.196364 157.030255 
L 257.475702 150.772558 
L 260.755041 151.933878 
L 264.03438 172.258092 
L 267.313719 146.993322 
L 270.593058 141.902848 
L 273.872397 140.215617 
L 277.151736 163.788673 
L 280.431074 132.94885 
L 283.710413 132.263884 
L 286.989752 133.618622 
L 290.269091 152.747795 
L 293.54843 128.24814 
L 296.827769 125.540048 
L 300.107107 138.902278 
L 303.386446 147.076576 
L 306.665785 117.526127 
L 309.945124 122.952522 
L 313.224463 125.776029 
L 316.503802 132.513764 
L 319.78314 120.524965 
L 323.062479 104.124926 
L 326.341818 101.475272 
L 329.621157 123.823134 
L 332.900496 92.008478 
L 336.179835 90.928614 
L 339.459174 90.792662 
L 342.738512 113.427645 
L 346.017851 96.091146 
" clip-path="url(#pd70ef42c84)" style="fill: none; stroke: #ff0000; stroke-width: 1.5; stroke-linecap: square"/>
    <defs>
     <path id="mdfd35b8dc6" d="M 0 1.5 
C 0.397805 1.5 0.77937 1.341951 1.06066 1.06066 
C 1.341951 0.77937 1.5 0.397805 1.5 0 
C 1.5 -0.397805 1.341951 -0.77937 1.06066 -1.06066 
C 0.77937 -1.341951 0.397805 -1.5 0 -1.5 
C -0.397805 -1.5 -0.77937 -1.341951 -1.06066 -1.06066 
C -1.341951 -0.77937 -1.5 -0.397805 -1.5 0 
C -1.5 0.397805 -1.341951 0.77937 -1.06066 1.06066 
C -0.77937 1.341951 -0.397805 1.5 0 1.5 
z
" style="stroke: #ff0000"/>
    </defs>
    <g clip-path="url(#pd70ef42c84)">
     <use xlink:href="#mdfd35b8dc6" x="73.832727" y="290.28432" style="fill: #ff0000; stroke: #ff0000"/>
     <use xlink:href="#mdfd35b8dc6" x="77.112066" y="289.446719" style="fill: #ff0000; stroke: #ff0000"/>
     <use xlink:href="#mdfd35b8dc6" x="80.391405" y="283.960684" style="fill: #ff0000; stroke: #ff0000"/>
     <use xlink:href="#mdfd35b8dc6" x="83.670744" y="284.699858" style="fill: #ff0000; stroke: #ff0000"/>
     <use xlink:href="#mdfd35b8dc6" x="86.950083" y="279.146053" style="fill: #ff0000; stroke: #ff0000"/>
     <use xlink:href="#mdfd35b8dc6" x="90.229421" y="280.368453" style="fill: #ff0000; stroke: #ff0000"/>
     <use xlink:href="#mdfd35b8dc6" x="93.50876" y="271.000875" style="fill: #ff0000; stroke: #ff0000"/>
     <use xlink:href="#mdfd35b8dc6" x="96.788099" y="276.090557" style="fill: #ff0000; stroke: #ff0000"/>
     <use xlink:href="#mdfd35b8dc6" x="100.067438" y="265.253363" style="fill: #ff0000; stroke: #ff0000"/>
     <use xlink:href="#mdfd35b8dc6" x="103.346777" y="269.296494" style="fill: #ff0000; stroke: #ff0000"/>
     <use xlink:href="#mdfd35b8dc6" x="106.626116" y="261.607949" style="fill: #ff0000; stroke: #ff0000"/>
     <use xlink:href="#mdfd35b8dc6" x="109.905455" y="272.348229" style="fill: #ff0000; stroke: #ff0000"/>
     <use xlink:href="#mdfd35b8dc6" x="113.184793" y="263.870336" style="fill: #ff0000; stroke: #ff0000"/>
     <use xlink:href="#mdfd35b8dc6" x="116.464132" y="261.393499" style="fill: #ff0000; stroke: #ff0000"/>
     <use xlink:href="#mdfd35b8dc6" x="119.743471" y="266.387805" style="fill: #ff0000; stroke: #ff0000"/>
     <use xlink:href="#mdfd35b8dc6" x="123.02281" y="252.12244" style="fill: #ff0000; stroke: #ff0000"/>
     <use xlink:href="#mdfd35b8dc6" x="126.302149" y="258.140029" style="fill: #ff0000; stroke: #ff0000"/>
     <use xlink:href="#mdfd35b8dc6" x="129.581488" y="256.852207" style="fill: #ff0000; stroke: #ff0000"/>
     <use xlink:href="#mdfd35b8dc6" x="132.860826" y="255.207132" style="fill: #ff0000; stroke: #ff0000"/>
     <use xlink:href="#mdfd35b8dc6" x="136.140165" y="252.429876" style="fill: #ff0000; stroke: #ff0000"/>
     <use xlink:href="#mdfd35b8dc6" x="139.419504" y="243.685958" style="fill: #ff0000; stroke: #ff0000"/>
     <use xlink:href="#mdfd35b8dc6" x="142.698843" y="245.020176" style="fill: #ff0000; stroke: #ff0000"/>
     <use xlink:href="#mdfd35b8dc6" x="145.978182" y="253.83794" style="fill: #ff0000; stroke: #ff0000"/>
     <use xlink:href="#mdfd35b8dc6" x="149.257521" y="239.621655" style="fill: #ff0000; stroke: #ff0000"/>
     <use xlink:href="#mdfd35b8dc6" x="152.53686" y="233.630034" style="fill: #ff0000; stroke: #ff0000"/>
     <use xlink:href="#mdfd35b8dc6" x="155.816198" y="231.583236" style="fill: #ff0000; stroke: #ff0000"/>
     <use xlink:href="#mdfd35b8dc6" x="159.095537" y="247.415753" style="fill: #ff0000; stroke: #ff0000"/>
     <use xlink:href="#mdfd35b8dc6" x="162.374876" y="238.657877" style="fill: #ff0000; stroke: #ff0000"/>
     <use xlink:href="#mdfd35b8dc6" x="165.654215" y="229.355623" style="fill: #ff0000; stroke: #ff0000"/>
     <use xlink:href="#mdfd35b8dc6" x="168.933554" y="226.507475" style="fill: #ff0000; stroke: #ff0000"/>
     <use xlink:href="#mdfd35b8dc6" x="172.212893" y="240.683467" style="fill: #ff0000; stroke: #ff0000"/>
     <use xlink:href="#mdfd35b8dc6" x="175.492231" y="217.622702" style="fill: #ff0000; stroke: #ff0000"/>
     <use xlink:href="#mdfd35b8dc6" x="178.77157" y="212.834693" style="fill: #ff0000; stroke: #ff0000"/>
     <use xlink:href="#mdfd35b8dc6" x="182.050909" y="213.701306" style="fill: #ff0000; stroke: #ff0000"/>
     <use xlink:href="#mdfd35b8dc6" x="185.330248" y="232.754482" style="fill: #ff0000; stroke: #ff0000"/>
     <use xlink:href="#mdfd35b8dc6" x="188.609587" y="206.827789" style="fill: #ff0000; stroke: #ff0000"/>
     <use xlink:href="#mdfd35b8dc6" x="191.888926" y="203.981294" style="fill: #ff0000; stroke: #ff0000"/>
     <use xlink:href="#mdfd35b8dc6" x="195.168264" y="203.892966" style="fill: #ff0000; stroke: #ff0000"/>
     <use xlink:href="#mdfd35b8dc6" x="198.447603" y="220.793858" style="fill: #ff0000; stroke: #ff0000"/>
     <use xlink:href="#mdfd35b8dc6" x="201.726942" y="204.175717" style="fill: #ff0000; stroke: #ff0000"/>
     <use xlink:href="#mdfd35b8dc6" x="205.006281" y="192.205937" style="fill: #ff0000; stroke: #ff0000"/>
     <use xlink:href="#mdfd35b8dc6" x="208.28562" y="192.859335" style="fill: #ff0000; stroke: #ff0000"/>
     <use xlink:href="#mdfd35b8dc6" x="211.564959" y="217.017564" style="fill: #ff0000; stroke: #ff0000"/>
     <use xlink:href="#mdfd35b8dc6" x="214.844298" y="188.447804" style="fill: #ff0000; stroke: #ff0000"/>
     <use xlink:href="#mdfd35b8dc6" x="218.123636" y="184.126635" style="fill: #ff0000; stroke: #ff0000"/>
     <use xlink:href="#mdfd35b8dc6" x="221.402975" y="193.116043" style="fill: #ff0000; stroke: #ff0000"/>
     <use xlink:href="#mdfd35b8dc6" x="224.682314" y="207.340841" style="fill: #ff0000; stroke: #ff0000"/>
     <use xlink:href="#mdfd35b8dc6" x="227.961653" y="172.546231" style="fill: #ff0000; stroke: #ff0000"/>
     <use xlink:href="#mdfd35b8dc6" x="231.240992" y="172.546231" style="fill: #ff0000; stroke: #ff0000"/>
     <use xlink:href="#mdfd35b8dc6" x="234.520331" y="170.064649" style="fill: #ff0000; stroke: #ff0000"/>
     <use xlink:href="#mdfd35b8dc6" x="237.799669" y="193.676406" style="fill: #ff0000; stroke: #ff0000"/>
     <use xlink:href="#mdfd35b8dc6" x="241.079008" y="164.612101" style="fill: #ff0000; stroke: #ff0000"/>
     <use xlink:href="#mdfd35b8dc6" x="244.358347" y="165.115023" style="fill: #ff0000; stroke: #ff0000"/>
     <use xlink:href="#mdfd35b8dc6" x="247.637686" y="160.87474" style="fill: #ff0000; stroke: #ff0000"/>
     <use xlink:href="#mdfd35b8dc6" x="250.917025" y="184.420121" style="fill: #ff0000; stroke: #ff0000"/>
     <use xlink:href="#mdfd35b8dc6" x="254.196364" y="157.030255" style="fill: #ff0000; stroke: #ff0000"/>
     <use xlink:href="#mdfd35b8dc6" x="257.475702" y="150.772558" style="fill: #ff0000; stroke: #ff0000"/>
     <use xlink:href="#mdfd35b8dc6" x="260.755041" y="151.933878" style="fill: #ff0000; stroke: #ff0000"/>
     <use xlink:href="#mdfd35b8dc6" x="264.03438" y="172.258092" style="fill: #ff0000; stroke: #ff0000"/>
     <use xlink:href="#mdfd35b8dc6" x="267.313719" y="146.993322" style="fill: #ff0000; stroke: #ff0000"/>
     <use xlink:href="#mdfd35b8dc6" x="270.593058" y="141.902848" style="fill: #ff0000; stroke: #ff0000"/>
     <use xlink:href="#mdfd35b8dc6" x="273.872397" y="140.215617" style="fill: #ff0000; stroke: #ff0000"/>
     <use xlink:href="#mdfd35b8dc6" x="277.151736" y="163.788673" style="fill: #ff0000; stroke: #ff0000"/>
     <use xlink:href="#mdfd35b8dc6" x="280.431074" y="132.94885" style="fill: #ff0000; stroke: #ff0000"/>
     <use xlink:href="#mdfd35b8dc6" x="283.710413" y="132.263884" style="fill: #ff0000; stroke: #ff0000"/>
     <use xlink:href="#mdfd35b8dc6" x="286.989752" y="133.618622" style="fill: #ff0000; stroke: #ff0000"/>
     <use xlink:href="#mdfd35b8dc6" x="290.269091" y="152.747795" style="fill: #ff0000; stroke: #ff0000"/>
     <use xlink:href="#mdfd35b8dc6" x="293.54843" y="128.24814" style="fill: #ff0000; stroke: #ff0000"/>
     <use xlink:href="#mdfd35b8dc6" x="296.827769" y="125.540048" style="fill: #ff0000; stroke: #ff0000"/>
     <use xlink:href="#mdfd35b8dc6" x="300.107107" y="138.902278" style="fill: #ff0000; stroke: #ff0000"/>
     <use xlink:href="#mdfd35b8dc6" x="303.386446" y="147.076576" style="fill: #ff0000; stroke: #ff0000"/>
     <use xlink:href="#mdfd35b8dc6" x="306.665785" y="117.526127" style="fill: #ff0000; stroke: #ff0000"/>
     <use xlink:href="#mdfd35b8dc6" x="309.945124" y="122.952522" style="fill: #ff0000; stroke: #ff0000"/>
     <use xlink:href="#mdfd35b8dc6" x="313.224463" y="125.776029" style="fill: #ff0000; stroke: #ff0000"/>
     <use xlink:href="#mdfd35b8dc6" x="316.503802" y="132.513764" style="fill: #ff0000; stroke: #ff0000"/>
     <use xlink:href="#mdfd35b8dc6" x="319.78314" y="120.524965" style="fill: #ff0000; stroke: #ff0000"/>
     <use xlink:href="#mdfd35b8dc6" x="323.062479" y="104.124926" style="fill: #ff0000; stroke: #ff0000"/>
     <use xlink:href="#mdfd35b8dc6" x="326.341818" y="101.475272" style="fill: #ff0000; stroke: #ff0000"/>
     <use xlink:href="#mdfd35b8dc6" x="329.621157" y="123.823134" style="fill: #ff0000; stroke: #ff0000"/>
     <use xlink:href="#mdfd35b8dc6" x="332.900496" y="92.008478" style="fill: #ff0000; stroke: #ff0000"/>
     <use xlink:href="#mdfd35b8dc6" x="336.179835" y="90.928614" style="fill: #ff0000; stroke: #ff0000"/>
     <use xlink:href="#mdfd35b8dc6" x="339.459174" y="90.792662" style="fill: #ff0000; stroke: #ff0000"/>
     <use xlink:href="#mdfd35b8dc6" x="342.738512" y="113.427645" style="fill: #ff0000; stroke: #ff0000"/>
     <use xlink:href="#mdfd35b8dc6" x="346.017851" y="96.091146" style="fill: #ff0000; stroke: #ff0000"/>
    </g>
   </g>
   <g id="patch_3">
    <path d="M 57.6 307.584 
L 57.6 41.472 
" style="fill: none; stroke: #000000; stroke-width: 0.8; stroke-linejoin: miter; stroke-linecap: square"/>
   </g>
   <g id="patch_4">
    <path d="M 414.72 307.584 
L 414.72 41.472 
" style="fill: none; stroke: #000000; stroke-width: 0.8; stroke-linejoin: miter; stroke-linecap: square"/>
   </g>
   <g id="patch_5">
    <path d="M 57.6 307.584 
L 414.72 307.584 
" style="fill: none; stroke: #000000; stroke-width: 0.8; stroke-linejoin: miter; stroke-linecap: square"/>
   </g>
   <g id="patch_6">
    <path d="M 57.6 41.472 
L 414.72 41.472 
" style="fill: none; stroke: #000000; stroke-width: 0.8; stroke-linejoin: miter; stroke-linecap: square"/>
   </g>
   <g id="legend_1">
    <g id="patch_7">
     <path d="M 64.6 79.3845 
L 237.889062 79.3845 
Q 239.889062 79.3845 239.889062 77.3845 
L 239.889062 48.472 
Q 239.889062 46.472 237.889062 46.472 
L 64.6 46.472 
Q 62.6 46.472 62.6 48.472 
L 62.6 77.3845 
Q 62.6 79.3845 64.6 79.3845 
z
" style="fill: #ffffff; opacity: 0.8; stroke: #cccccc; stroke-linejoin: miter"/>
    </g>
    <g id="line2d_16">
     <path d="M 66.6 54.570438 
L 76.6 54.570438 
L 86.6 54.570438 
" style="fill: none; stroke: #008000; stroke-width: 1.5; stroke-linecap: square"/>
     <g>
      <use xlink:href="#mbc73d26846" x="76.6" y="54.570438" style="fill: #008000; stroke: #008000"/>
     </g>
    </g>
    <g id="text_16">
     <!-- wigner_9j max relative error -->
     <g transform="translate(94.6 58.070438)scale(0.1 -0.1)">
      <defs>
       <path id="DejaVuSans-77" d="M 269 3500 
L 844 3500 
L 1563 769 
L 2278 3500 
L 2956 3500 
L 3675 769 
L 4391 3500 
L 4966 3500 
L 4050 0 
L 3372 0 
L 2619 2869 
L 1863 0 
L 1184 0 
L 269 3500 
z
" transform="scale(0.015625)"/>
       <path id="DejaVuSans-67" d="M 2906 1791 
Q 2906 2416 2648 2759 
Q 2391 3103 1925 3103 
Q 1463 3103 1205 2759 
Q 947 2416 947 1791 
Q 947 1169 1205 825 
Q 1463 481 1925 481 
Q 2391 481 2648 825 
Q 2906 1169 2906 1791 
z
M 3481 434 
Q 3481 -459 3084 -895 
Q 2688 -1331 1869 -1331 
Q 1566 -1331 1297 -1286 
Q 1028 -1241 775 -1147 
L 775 -588 
Q 1028 -725 1275 -790 
Q 1522 -856 1778 -856 
Q 2344 -856 2625 -561 
Q 2906 -266 2906 331 
L 2906 616 
Q 2728 306 2450 153 
Q 2172 0 1784 0 
Q 1141 0 747 490 
Q 353 981 353 1791 
Q 353 2603 747 3093 
Q 1141 3584 1784 3584 
Q 2172 3584 2450 3431 
Q 2728 3278 2906 2969 
L 2906 3500 
L 3481 3500 
L 3481 434 
z
" transform="scale(0.015625)"/>
       <path id="DejaVuSans-6e" d="M 3513 2113 
L 3513 0 
L 2938 0 
L 2938 2094 
Q 2938 2591 2744 2837 
Q 2550 3084 2163 3084 
Q 1697 3084 1428 2787 
Q 1159 2491 1159 1978 
L 1159 0 
L 581 0 
L 581 3500 
L 1159 3500 
L 1159 2956 
Q 1366 3272 1645 3428 
Q 1925 3584 2291 3584 
Q 2894 3584 3203 3211 
Q 3513 2838 3513 2113 
z
" transform="scale(0.015625)"/>
       <path id="DejaVuSans-5f" d="M 3263 -1063 
L 3263 -1509 
L -63 -1509 
L -63 -1063 
L 3263 -1063 
z
" transform="scale(0.015625)"/>
       <path id="DejaVuSans-39" d="M 703 97 
L 703 672 
Q 941 559 1184 500 
Q 1428 441 1663 441 
Q 2288 441 2617 861 
Q 2947 1281 2994 2138 
Q 2813 1869 2534 1725 
Q 2256 1581 1919 1581 
Q 1219 1581 811 2004 
Q 403 2428 403 3163 
Q 403 3881 828 4315 
Q 1253 4750 1959 4750 
Q 2769 4750 3195 4129 
Q 3622 3509 3622 2328 
Q 3622 1225 3098 567 
Q 2575 -91 1691 -91 
Q 1453 -91 1209 -44 
Q 966 3 703 97 
z
M 1959 2075 
Q 2384 2075 2632 2365 
Q 2881 2656 2881 3163 
Q 2881 3666 2632 3958 
Q 2384 4250 1959 4250 
Q 1534 4250 1286 3958 
Q 1038 3666 1038 3163 
Q 1038 2656 1286 2365 
Q 1534 2075 1959 2075 
z
" transform="scale(0.015625)"/>
       <path id="DejaVuSans-6a" d="M 603 3500 
L 1178 3500 
L 1178 -63 
Q 1178 -731 923 -1031 
Q 669 -1331 103 -1331 
L -116 -1331 
L -116 -844 
L 38 -844 
Q 366 -844 484 -692 
Q 603 -541 603 -63 
L 603 3500 
z
M 603 4863 
L 1178 4863 
L 1178 4134 
L 603 4134 
L 603 4863 
z
" transform="scale(0.015625)"/>
      </defs>
      <use xlink:href="#DejaVuSans-77"/>
      <use xlink:href="#DejaVuSans-69" x="81.787109"/>
      <use xlink:href="#DejaVuSans-67" x="109.570312"/>
      <use xlink:href="#DejaVuSans-6e" x="173.046875"/>
      <use xlink:href="#DejaVuSans-65" x="236.425781"/>
      <use xlink:href="#DejaVuSans-72" x="297.949219"/>
      <use xlink:href="#DejaVuSans-5f" x="339.0625"/>
      <use xlink:href="#DejaVuSans-39" x="389.0625"/>
      <use xlink:href="#DejaVuSans-6a" x="452.685547"/>
      <use xlink:href="#DejaVuSans-20" x="480.46875"/>
      <use xlink:href="#DejaVuSans-6d" x="512.255859"/>
      <use xlink:href="#DejaVuSans-61" x="609.667969"/>
      <use xlink:href="#DejaVuSans-78" x="670.947266"/>
      <use xlink:href="#DejaVuSans-20" x="730.126953"/>
      <use xlink:href="#DejaVuSans-72" x="761.914062"/>
      <use xlink:href="#DejaVuSans-65" x="800.777344"/>
      <use xlink:href="#DejaVuSans-6c" x="862.300781"/>
      <use xlink:href="#DejaVuSans-61" x="890.083984"/>
      <use xlink:href="#DejaVuSans-74" x="951.363281"/>
      <use xlink:href="#DejaVuSans-69" x="990.572266"/>
      <use xlink:href="#DejaVuSans-76" x="1018.355469"/>
      <use xlink:href="#DejaVuSans-65" x="1077.535156"/>
      <use xlink:href="#DejaVuSans-20" x="1139.058594"/>
      <use xlink:href="#DejaVuSans-65" x="1170.845703"/>
      <use xlink:href="#DejaVuSans-72" x="1232.369141"/>
      <use xlink:href="#DejaVuSans-72" x="1271.732422"/>
      <use xlink:href="#DejaVuSans-6f" x="1310.595703"/>
      <use xlink:href="#DejaVuSans-72" x="1371.777344"/>
     </g>
    </g>
    <g id="line2d_17">
     <path d="M 66.6 69.526688 
L 76.6 69.526688 
L 86.6 69.526688 
" style="fill: none; stroke: #ff0000; stroke-width: 1.5; stroke-linecap: square"/>
     <g>
      <use xlink:href="#mdfd35b8dc6" x="76.6" y="69.526688" style="fill: #ff0000; stroke: #ff0000"/>
     </g>
    </g>
    <g id="text_17">
     <!-- gsl_9j max relative error -->
     <g transform="translate(94.6 73.026688)scale(0.1 -0.1)">
      <defs>
       <path id="DejaVuSans-73" d="M 2834 3397 
L 2834 2853 
Q 2591 2978 2328 3040 
Q 2066 3103 1784 3103 
Q 1356 3103 1142 2972 
Q 928 2841 928 2578 
Q 928 2378 1081 2264 
Q 1234 2150 1697 2047 
L 1894 2003 
Q 2506 1872 2764 1633 
Q 3022 1394 3022 966 
Q 3022 478 2636 193 
Q 2250 -91 1575 -91 
Q 1294 -91 989 -36 
Q 684 19 347 128 
L 347 722 
Q 666 556 975 473 
Q 1284 391 1588 391 
Q 1994 391 2212 530 
Q 2431 669 2431 922 
Q 2431 1156 2273 1281 
Q 2116 1406 1581 1522 
L 1381 1569 
Q 847 1681 609 1914 
Q 372 2147 372 2553 
Q 372 3047 722 3315 
Q 1072 3584 1716 3584 
Q 2034 3584 2315 3537 
Q 2597 3491 2834 3397 
z
" transform="scale(0.015625)"/>
      </defs>
      <use xlink:href="#DejaVuSans-67"/>
      <use xlink:href="#DejaVuSans-73" x="63.476562"/>
      <use xlink:href="#DejaVuSans-6c" x="115.576172"/>
      <use xlink:href="#DejaVuSans-5f" x="143.359375"/>
      <use xlink:href="#DejaVuSans-39" x="193.359375"/>
      <use xlink:href="#DejaVuSans-6a" x="256.982422"/>
      <use xlink:href="#DejaVuSans-20" x="284.765625"/>
      <use xlink:href="#DejaVuSans-6d" x="316.552734"/>
      <use xlink:href="#DejaVuSans-61" x="413.964844"/>
      <use xlink:href="#DejaVuSans-78" x="475.244141"/>
      <use xlink:href="#DejaVuSans-20" x="534.423828"/>
      <use xlink:href="#DejaVuSans-72" x="566.210938"/>
      <use xlink:href="#DejaVuSans-65" x="605.074219"/>
      <use xlink:href="#DejaVuSans-6c" x="666.597656"/>
      <use xlink:href="#DejaVuSans-61" x="694.380859"/>
      <use xlink:href="#DejaVuSans-74" x="755.660156"/>
      <use xlink:href="#DejaVuSans-69" x="794.869141"/>
      <use xlink:href="#DejaVuSans-76" x="822.652344"/>
      <use xlink:href="#DejaVuSans-65" x="881.832031"/>
      <use xlink:href="#DejaVuSans-20" x="943.355469"/>
      <use xlink:href="#DejaVuSans-65" x="975.142578"/>
      <use xlink:href="#DejaVuSans-72" x="1036.666016"/>
      <use xlink:href="#DejaVuSans-72" x="1076.029297"/>
      <use xlink:href="#DejaVuSans-6f" x="1114.892578"/>
      <use xlink:href="#DejaVuSans-72" x="1176.074219"/>
     </g>
    </g>
   </g>
  </g>
 </g>
 <defs>
  <clipPath id="pd70ef42c84">
   <rect x="57.6" y="41.472" width="357.12" height="266.112"/>
  </clipPath>
 </defs>
</svg>
