<?xml version="1.0" encoding="utf-8" standalone="no"?>
<!DOCTYPE svg PUBLIC "-//W3C//DTD SVG 1.1//EN"
  "http://www.w3.org/Graphics/SVG/1.1/DTD/svg11.dtd">
<svg xmlns:xlink="http://www.w3.org/1999/xlink" width="460.8pt" height="345.6pt" viewBox="0 0 460.8 345.6" xmlns="http://www.w3.org/2000/svg" version="1.1">
 <metadata>
  <rdf:RDF xmlns:dc="http://purl.org/dc/elements/1.1/" xmlns:cc="http://creativecommons.org/ns#" xmlns:rdf="http://www.w3.org/1999/02/22-rdf-syntax-ns#">
   <cc:Work>
    <dc:type rdf:resource="http://purl.org/dc/dcmitype/StillImage"/>
    <dc:date>2024-05-14T16:16:11.082600</dc:date>
    <dc:format>image/svg+xml</dc:format>
    <dc:creator>
     <cc:Agent>
      <dc:title>Matplotlib v3.5.1, https://matplotlib.org/</dc:title>
     </cc:Agent>
    </dc:creator>
   </cc:Work>
  </rdf:RDF>
 </metadata>
 <defs>
  <style type="text/css">*{stroke-linejoin: round; stroke-linecap: butt}</style>
 </defs>
 <g id="figure_1">
  <g id="patch_1">
   <path d="M 0 345.6 
L 460.8 345.6 
L 460.8 0 
L 0 0 
z
" style="fill: #ffffff"/>
  </g>
  <g id="axes_1">
   <g id="patch_2">
    <path d="M 57.6 307.584 
L 414.72 307.584 
L 414.72 41.472 
L 57.6 41.472 
z
" style="fill: #ffffff"/>
   </g>
   <g id="matplotlib.axis_1">
    <g id="xtick_1">
     <g id="line2d_1">
      <defs>
       <path id="mca0dad5440" d="M 0 0 
L 0 3.5 
" style="stroke: #000000; stroke-width: 0.8"/>
      </defs>
      <g>
       <use xlink:href="#mca0dad5440" x="71.653838" y="307.584" style="stroke: #000000; stroke-width: 0.8"/>
      </g>
     </g>
     <g id="text_1">
      <!-- 0 -->
      <g transform="translate(68.472588 322.182437)scale(0.1 -0.1)">
       <defs>
        <path id="DejaVuSans-30" d="M 2034 4250 
Q 1547 4250 1301 3770 
Q 1056 3291 1056 2328 
Q 1056 1369 1301 889 
Q 1547 409 2034 409 
Q 2525 409 2770 889 
Q 3016 1369 3016 2328 
Q 3016 3291 2770 3770 
Q 2525 4250 2034 4250 
z
M 2034 4750 
Q 2819 4750 3233 4129 
Q 3647 3509 3647 2328 
Q 3647 1150 3233 529 
Q 2819 -91 2034 -91 
Q 1250 -91 836 529 
Q 422 1150 422 2328 
Q 422 3509 836 4129 
Q 1250 4750 2034 4750 
z
" transform="scale(0.015625)"/>
       </defs>
       <use xlink:href="#DejaVuSans-30"/>
      </g>
     </g>
    </g>
    <g id="xtick_2">
     <g id="line2d_2">
      <g>
       <use xlink:href="#mca0dad5440" x="115.231629" y="307.584" style="stroke: #000000; stroke-width: 0.8"/>
      </g>
     </g>
     <g id="text_2">
      <!-- 10 -->
      <g transform="translate(108.869129 322.182437)scale(0.1 -0.1)">
       <defs>
        <path id="DejaVuSans-31" d="M 794 531 
L 1825 531 
L 1825 4091 
L 703 3866 
L 703 4441 
L 1819 4666 
L 2450 4666 
L 2450 531 
L 3481 531 
L 3481 0 
L 794 0 
L 794 531 
z
" transform="scale(0.015625)"/>
       </defs>
       <use xlink:href="#DejaVuSans-31"/>
       <use xlink:href="#DejaVuSans-30" x="63.623047"/>
      </g>
     </g>
    </g>
    <g id="xtick_3">
     <g id="line2d_3">
      <g>
       <use xlink:href="#mca0dad5440" x="158.80942" y="307.584" style="stroke: #000000; stroke-width: 0.8"/>
      </g>
     </g>
     <g id="text_3">
      <!-- 20 -->
      <g transform="translate(152.44692 322.182437)scale(0.1 -0.1)">
       <defs>
        <path id="DejaVuSans-32" d="M 1228 531 
L 3431 531 
L 3431 0 
L 469 0 
L 469 531 
Q 828 903 1448 1529 
Q 2069 2156 2228 2338 
Q 2531 2678 2651 2914 
Q 2772 3150 2772 3378 
Q 2772 3750 2511 3984 
Q 2250 4219 1831 4219 
Q 1534 4219 1204 4116 
Q 875 4013 500 3803 
L 500 4441 
Q 881 4594 1212 4672 
Q 1544 4750 1819 4750 
Q 2544 4750 2975 4387 
Q 3406 4025 3406 3419 
Q 3406 3131 3298 2873 
Q 3191 2616 2906 2266 
Q 2828 2175 2409 1742 
Q 1991 1309 1228 531 
z
" transform="scale(0.015625)"/>
       </defs>
       <use xlink:href="#DejaVuSans-32"/>
       <use xlink:href="#DejaVuSans-30" x="63.623047"/>
      </g>
     </g>
    </g>
    <g id="xtick_4">
     <g id="line2d_4">
      <g>
       <use xlink:href="#mca0dad5440" x="202.387212" y="307.584" style="stroke: #000000; stroke-width: 0.8"/>
      </g>
     </g>
     <g id="text_4">
      <!-- 30 -->
      <g transform="translate(196.024712 322.182437)scale(0.1 -0.1)">
       <defs>
        <path id="DejaVuSans-33" d="M 2597 2516 
Q 3050 2419 3304 2112 
Q 3559 1806 3559 1356 
Q 3559 666 3084 287 
Q 2609 -91 1734 -91 
Q 1441 -91 1130 -33 
Q 819 25 488 141 
L 488 750 
Q 750 597 1062 519 
Q 1375 441 1716 441 
Q 2309 441 2620 675 
Q 2931 909 2931 1356 
Q 2931 1769 2642 2001 
Q 2353 2234 1838 2234 
L 1294 2234 
L 1294 2753 
L 1863 2753 
Q 2328 2753 2575 2939 
Q 2822 3125 2822 3475 
Q 2822 3834 2567 4026 
Q 2313 4219 1838 4219 
Q 1578 4219 1281 4162 
Q 984 4106 628 3988 
L 628 4550 
Q 988 4650 1302 4700 
Q 1616 4750 1894 4750 
Q 2613 4750 3031 4423 
Q 3450 4097 3450 3541 
Q 3450 3153 3228 2886 
Q 3006 2619 2597 2516 
z
" transform="scale(0.015625)"/>
       </defs>
       <use xlink:href="#DejaVuSans-33"/>
       <use xlink:href="#DejaVuSans-30" x="63.623047"/>
      </g>
     </g>
    </g>
    <g id="xtick_5">
     <g id="line2d_5">
      <g>
       <use xlink:href="#mca0dad5440" x="245.965003" y="307.584" style="stroke: #000000; stroke-width: 0.8"/>
      </g>
     </g>
     <g id="text_5">
      <!-- 40 -->
      <g transform="translate(239.602503 322.182437)scale(0.1 -0.1)">
       <defs>
        <path id="DejaVuSans-34" d="M 2419 4116 
L 825 1625 
L 2419 1625 
L 2419 4116 
z
M 2253 4666 
L 3047 4666 
L 3047 1625 
L 3713 1625 
L 3713 1100 
L 3047 1100 
L 3047 0 
L 2419 0 
L 2419 1100 
L 313 1100 
L 313 1709 
L 2253 4666 
z
" transform="scale(0.015625)"/>
       </defs>
       <use xlink:href="#DejaVuSans-34"/>
       <use xlink:href="#DejaVuSans-30" x="63.623047"/>
      </g>
     </g>
    </g>
    <g id="xtick_6">
     <g id="line2d_6">
      <g>
       <use xlink:href="#mca0dad5440" x="289.542794" y="307.584" style="stroke: #000000; stroke-width: 0.8"/>
      </g>
     </g>
     <g id="text_6">
      <!-- 50 -->
      <g transform="translate(283.180294 322.182437)scale(0.1 -0.1)">
       <defs>
        <path id="DejaVuSans-35" d="M 691 4666 
L 3169 4666 
L 3169 4134 
L 1269 4134 
L 1269 2991 
Q 1406 3038 1543 3061 
Q 1681 3084 1819 3084 
Q 2600 3084 3056 2656 
Q 3513 2228 3513 1497 
Q 3513 744 3044 326 
Q 2575 -91 1722 -91 
Q 1428 -91 1123 -41 
Q 819 9 494 109 
L 494 744 
Q 775 591 1075 516 
Q 1375 441 1709 441 
Q 2250 441 2565 725 
Q 2881 1009 2881 1497 
Q 2881 1984 2565 2268 
Q 2250 2553 1709 2553 
Q 1456 2553 1204 2497 
Q 953 2441 691 2322 
L 691 4666 
z
" transform="scale(0.015625)"/>
       </defs>
       <use xlink:href="#DejaVuSans-35"/>
       <use xlink:href="#DejaVuSans-30" x="63.623047"/>
      </g>
     </g>
    </g>
    <g id="xtick_7">
     <g id="line2d_7">
      <g>
       <use xlink:href="#mca0dad5440" x="333.120586" y="307.584" style="stroke: #000000; stroke-width: 0.8"/>
      </g>
     </g>
     <g id="text_7">
      <!-- 60 -->
      <g transform="translate(326.758086 322.182437)scale(0.1 -0.1)">
       <defs>
        <path id="DejaVuSans-36" d="M 2113 2584 
Q 1688 2584 1439 2293 
Q 1191 2003 1191 1497 
Q 1191 994 1439 701 
Q 1688 409 2113 409 
Q 2538 409 2786 701 
Q 3034 994 3034 1497 
Q 3034 2003 2786 2293 
Q 2538 2584 2113 2584 
z
M 3366 4563 
L 3366 3988 
Q 3128 4100 2886 4159 
Q 2644 4219 2406 4219 
Q 1781 4219 1451 3797 
Q 1122 3375 1075 2522 
Q 1259 2794 1537 2939 
Q 1816 3084 2150 3084 
Q 2853 3084 3261 2657 
Q 3669 2231 3669 1497 
Q 3669 778 3244 343 
Q 2819 -91 2113 -91 
Q 1303 -91 875 529 
Q 447 1150 447 2328 
Q 447 3434 972 4092 
Q 1497 4750 2381 4750 
Q 2619 4750 2861 4703 
Q 3103 4656 3366 4563 
z
" transform="scale(0.015625)"/>
       </defs>
       <use xlink:href="#DejaVuSans-36"/>
       <use xlink:href="#DejaVuSans-30" x="63.623047"/>
      </g>
     </g>
    </g>
    <g id="xtick_8">
     <g id="line2d_8">
      <g>
       <use xlink:href="#mca0dad5440" x="376.698377" y="307.584" style="stroke: #000000; stroke-width: 0.8"/>
      </g>
     </g>
     <g id="text_8">
      <!-- 70 -->
      <g transform="translate(370.335877 322.182437)scale(0.1 -0.1)">
       <defs>
        <path id="DejaVuSans-37" d="M 525 4666 
L 3525 4666 
L 3525 4397 
L 1831 0 
L 1172 0 
L 2766 4134 
L 525 4134 
L 525 4666 
z
" transform="scale(0.015625)"/>
       </defs>
       <use xlink:href="#DejaVuSans-37"/>
       <use xlink:href="#DejaVuSans-30" x="63.623047"/>
      </g>
     </g>
    </g>
    <g id="text_9">
     <!-- Jmax -->
     <g transform="translate(223.79125 335.860562)scale(0.1 -0.1)">
      <defs>
       <path id="DejaVuSans-4a" d="M 628 4666 
L 1259 4666 
L 1259 325 
Q 1259 -519 939 -900 
Q 619 -1281 -91 -1281 
L -331 -1281 
L -331 -750 
L -134 -750 
Q 284 -750 456 -515 
Q 628 -281 628 325 
L 628 4666 
z
" transform="scale(0.015625)"/>
       <path id="DejaVuSans-6d" d="M 3328 2828 
Q 3544 3216 3844 3400 
Q 4144 3584 4550 3584 
Q 5097 3584 5394 3201 
Q 5691 2819 5691 2113 
L 5691 0 
L 5113 0 
L 5113 2094 
Q 5113 2597 4934 2840 
Q 4756 3084 4391 3084 
Q 3944 3084 3684 2787 
Q 3425 2491 3425 1978 
L 3425 0 
L 2847 0 
L 2847 2094 
Q 2847 2600 2669 2842 
Q 2491 3084 2119 3084 
Q 1678 3084 1418 2786 
Q 1159 2488 1159 1978 
L 1159 0 
L 581 0 
L 581 3500 
L 1159 3500 
L 1159 2956 
Q 1356 3278 1631 3431 
Q 1906 3584 2284 3584 
Q 2666 3584 2933 3390 
Q 3200 3197 3328 2828 
z
" transform="scale(0.015625)"/>
       <path id="DejaVuSans-61" d="M 2194 1759 
Q 1497 1759 1228 1600 
Q 959 1441 959 1056 
Q 959 750 1161 570 
Q 1363 391 1709 391 
Q 2188 391 2477 730 
Q 2766 1069 2766 1631 
L 2766 1759 
L 2194 1759 
z
M 3341 1997 
L 3341 0 
L 2766 0 
L 2766 531 
Q 2569 213 2275 61 
Q 1981 -91 1556 -91 
Q 1019 -91 701 211 
Q 384 513 384 1019 
Q 384 1609 779 1909 
Q 1175 2209 1959 2209 
L 2766 2209 
L 2766 2266 
Q 2766 2663 2505 2880 
Q 2244 3097 1772 3097 
Q 1472 3097 1187 3025 
Q 903 2953 641 2809 
L 641 3341 
Q 956 3463 1253 3523 
Q 1550 3584 1831 3584 
Q 2591 3584 2966 3190 
Q 3341 2797 3341 1997 
z
" transform="scale(0.015625)"/>
       <path id="DejaVuSans-78" d="M 3513 3500 
L 2247 1797 
L 3578 0 
L 2900 0 
L 1881 1375 
L 863 0 
L 184 0 
L 1544 1831 
L 300 3500 
L 978 3500 
L 1906 2253 
L 2834 3500 
L 3513 3500 
z
" transform="scale(0.015625)"/>
      </defs>
      <use xlink:href="#DejaVuSans-4a"/>
      <use xlink:href="#DejaVuSans-6d" x="29.492188"/>
      <use xlink:href="#DejaVuSans-61" x="126.904297"/>
      <use xlink:href="#DejaVuSans-78" x="188.183594"/>
     </g>
    </g>
   </g>
   <g id="matplotlib.axis_2">
    <g id="ytick_1">
     <g id="line2d_9">
      <defs>
       <path id="mdd7d58487b" d="M 0 0 
L -3.5 0 
" style="stroke: #000000; stroke-width: 0.8"/>
      </defs>
      <g>
       <use xlink:href="#mdd7d58487b" x="57.6" y="271.84559" style="stroke: #000000; stroke-width: 0.8"/>
      </g>
     </g>
     <g id="text_10">
      <!-- $\mathdefault{10^{-14}}$ -->
      <g transform="translate(22.7 275.644809)scale(0.1 -0.1)">
       <defs>
        <path id="DejaVuSans-2212" d="M 678 2272 
L 4684 2272 
L 4684 1741 
L 678 1741 
L 678 2272 
z
" transform="scale(0.015625)"/>
       </defs>
       <use xlink:href="#DejaVuSans-31" transform="translate(0 0.684375)"/>
       <use xlink:href="#DejaVuSans-30" transform="translate(63.623047 0.684375)"/>
       <use xlink:href="#DejaVuSans-2212" transform="translate(128.203125 38.965625)scale(0.7)"/>
       <use xlink:href="#DejaVuSans-31" transform="translate(186.855469 38.965625)scale(0.7)"/>
       <use xlink:href="#DejaVuSans-34" transform="translate(231.391602 38.965625)scale(0.7)"/>
      </g>
     </g>
    </g>
    <g id="ytick_2">
     <g id="line2d_10">
      <g>
       <use xlink:href="#mdd7d58487b" x="57.6" y="233.846365" style="stroke: #000000; stroke-width: 0.8"/>
      </g>
     </g>
     <g id="text_11">
      <!-- $\mathdefault{10^{-11}}$ -->
      <g transform="translate(22.7 237.645584)scale(0.1 -0.1)">
       <use xlink:href="#DejaVuSans-31" transform="translate(0 0.684375)"/>
       <use xlink:href="#DejaVuSans-30" transform="translate(63.623047 0.684375)"/>
       <use xlink:href="#DejaVuSans-2212" transform="translate(128.203125 38.965625)scale(0.7)"/>
       <use xlink:href="#DejaVuSans-31" transform="translate(186.855469 38.965625)scale(0.7)"/>
       <use xlink:href="#DejaVuSans-31" transform="translate(231.391602 38.965625)scale(0.7)"/>
      </g>
     </g>
    </g>
    <g id="ytick_3">
     <g id="line2d_11">
      <g>
       <use xlink:href="#mdd7d58487b" x="57.6" y="195.847141" style="stroke: #000000; stroke-width: 0.8"/>
      </g>
     </g>
     <g id="text_12">
      <!-- $\mathdefault{10^{-8}}$ -->
      <g transform="translate(27.1 199.646359)scale(0.1 -0.1)">
       <defs>
        <path id="DejaVuSans-38" d="M 2034 2216 
Q 1584 2216 1326 1975 
Q 1069 1734 1069 1313 
Q 1069 891 1326 650 
Q 1584 409 2034 409 
Q 2484 409 2743 651 
Q 3003 894 3003 1313 
Q 3003 1734 2745 1975 
Q 2488 2216 2034 2216 
z
M 1403 2484 
Q 997 2584 770 2862 
Q 544 3141 544 3541 
Q 544 4100 942 4425 
Q 1341 4750 2034 4750 
Q 2731 4750 3128 4425 
Q 3525 4100 3525 3541 
Q 3525 3141 3298 2862 
Q 3072 2584 2669 2484 
Q 3125 2378 3379 2068 
Q 3634 1759 3634 1313 
Q 3634 634 3220 271 
Q 2806 -91 2034 -91 
Q 1263 -91 848 271 
Q 434 634 434 1313 
Q 434 1759 690 2068 
Q 947 2378 1403 2484 
z
M 1172 3481 
Q 1172 3119 1398 2916 
Q 1625 2713 2034 2713 
Q 2441 2713 2670 2916 
Q 2900 3119 2900 3481 
Q 2900 3844 2670 4047 
Q 2441 4250 2034 4250 
Q 1625 4250 1398 4047 
Q 1172 3844 1172 3481 
z
" transform="scale(0.015625)"/>
       </defs>
       <use xlink:href="#DejaVuSans-31" transform="translate(0 0.765625)"/>
       <use xlink:href="#DejaVuSans-30" transform="translate(63.623047 0.765625)"/>
       <use xlink:href="#DejaVuSans-2212" transform="translate(128.203125 39.046875)scale(0.7)"/>
       <use xlink:href="#DejaVuSans-38" transform="translate(186.855469 39.046875)scale(0.7)"/>
      </g>
     </g>
    </g>
    <g id="ytick_4">
     <g id="line2d_12">
      <g>
       <use xlink:href="#mdd7d58487b" x="57.6" y="157.847916" style="stroke: #000000; stroke-width: 0.8"/>
      </g>
     </g>
     <g id="text_13">
      <!-- $\mathdefault{10^{-5}}$ -->
      <g transform="translate(27.1 161.647135)scale(0.1 -0.1)">
       <use xlink:href="#DejaVuSans-31" transform="translate(0 0.684375)"/>
       <use xlink:href="#DejaVuSans-30" transform="translate(63.623047 0.684375)"/>
       <use xlink:href="#DejaVuSans-2212" transform="translate(128.203125 38.965625)scale(0.7)"/>
       <use xlink:href="#DejaVuSans-35" transform="translate(186.855469 38.965625)scale(0.7)"/>
      </g>
     </g>
    </g>
    <g id="ytick_5">
     <g id="line2d_13">
      <g>
       <use xlink:href="#mdd7d58487b" x="57.6" y="119.848691" style="stroke: #000000; stroke-width: 0.8"/>
      </g>
     </g>
     <g id="text_14">
      <!-- $\mathdefault{10^{-2}}$ -->
      <g transform="translate(27.1 123.64791)scale(0.1 -0.1)">
       <use xlink:href="#DejaVuSans-31" transform="translate(0 0.765625)"/>
       <use xlink:href="#DejaVuSans-30" transform="translate(63.623047 0.765625)"/>
       <use xlink:href="#DejaVuSans-2212" transform="translate(128.203125 39.046875)scale(0.7)"/>
       <use xlink:href="#DejaVuSans-32" transform="translate(186.855469 39.046875)scale(0.7)"/>
      </g>
     </g>
    </g>
    <g id="ytick_6">
     <g id="line2d_14">
      <g>
       <use xlink:href="#mdd7d58487b" x="57.6" y="81.849466" style="stroke: #000000; stroke-width: 0.8"/>
      </g>
     </g>
     <g id="text_15">
      <!-- $\mathdefault{10^{1}}$ -->
      <g transform="translate(33 85.648685)scale(0.1 -0.1)">
       <use xlink:href="#DejaVuSans-31" transform="translate(0 0.684375)"/>
       <use xlink:href="#DejaVuSans-30" transform="translate(63.623047 0.684375)"/>
       <use xlink:href="#DejaVuSans-31" transform="translate(128.203125 38.965625)scale(0.7)"/>
      </g>
     </g>
    </g>
    <g id="ytick_7">
     <g id="line2d_15">
      <g>
       <use xlink:href="#mdd7d58487b" x="57.6" y="43.850241" style="stroke: #000000; stroke-width: 0.8"/>
      </g>
     </g>
     <g id="text_16">
      <!-- $\mathdefault{10^{4}}$ -->
      <g transform="translate(33 47.64946)scale(0.1 -0.1)">
       <use xlink:href="#DejaVuSans-31" transform="translate(0 0.684375)"/>
       <use xlink:href="#DejaVuSans-30" transform="translate(63.623047 0.684375)"/>
       <use xlink:href="#DejaVuSans-34" transform="translate(128.203125 38.965625)scale(0.7)"/>
      </g>
     </g>
    </g>
    <g id="text_17">
     <!-- Relative Error -->
     <g transform="translate(16.620312 208.466281)rotate(-90)scale(0.1 -0.1)">
      <defs>
       <path id="DejaVuSans-52" d="M 2841 2188 
Q 3044 2119 3236 1894 
Q 3428 1669 3622 1275 
L 4263 0 
L 3584 0 
L 2988 1197 
Q 2756 1666 2539 1819 
Q 2322 1972 1947 1972 
L 1259 1972 
L 1259 0 
L 628 0 
L 628 4666 
L 2053 4666 
Q 2853 4666 3247 4331 
Q 3641 3997 3641 3322 
Q 3641 2881 3436 2590 
Q 3231 2300 2841 2188 
z
M 1259 4147 
L 1259 2491 
L 2053 2491 
Q 2509 2491 2742 2702 
Q 2975 2913 2975 3322 
Q 2975 3731 2742 3939 
Q 2509 4147 2053 4147 
L 1259 4147 
z
" transform="scale(0.015625)"/>
       <path id="DejaVuSans-65" d="M 3597 1894 
L 3597 1613 
L 953 1613 
Q 991 1019 1311 708 
Q 1631 397 2203 397 
Q 2534 397 2845 478 
Q 3156 559 3463 722 
L 3463 178 
Q 3153 47 2828 -22 
Q 2503 -91 2169 -91 
Q 1331 -91 842 396 
Q 353 884 353 1716 
Q 353 2575 817 3079 
Q 1281 3584 2069 3584 
Q 2775 3584 3186 3129 
Q 3597 2675 3597 1894 
z
M 3022 2063 
Q 3016 2534 2758 2815 
Q 2500 3097 2075 3097 
Q 1594 3097 1305 2825 
Q 1016 2553 972 2059 
L 3022 2063 
z
" transform="scale(0.015625)"/>
       <path id="DejaVuSans-6c" d="M 603 4863 
L 1178 4863 
L 1178 0 
L 603 0 
L 603 4863 
z
" transform="scale(0.015625)"/>
       <path id="DejaVuSans-74" d="M 1172 4494 
L 1172 3500 
L 2356 3500 
L 2356 3053 
L 1172 3053 
L 1172 1153 
Q 1172 725 1289 603 
Q 1406 481 1766 481 
L 2356 481 
L 2356 0 
L 1766 0 
Q 1100 0 847 248 
Q 594 497 594 1153 
L 594 3053 
L 172 3053 
L 172 3500 
L 594 3500 
L 594 4494 
L 1172 4494 
z
" transform="scale(0.015625)"/>
       <path id="DejaVuSans-69" d="M 603 3500 
L 1178 3500 
L 1178 0 
L 603 0 
L 603 3500 
z
M 603 4863 
L 1178 4863 
L 1178 4134 
L 603 4134 
L 603 4863 
z
" transform="scale(0.015625)"/>
       <path id="DejaVuSans-76" d="M 191 3500 
L 800 3500 
L 1894 563 
L 2988 3500 
L 3597 3500 
L 2284 0 
L 1503 0 
L 191 3500 
z
" transform="scale(0.015625)"/>
       <path id="DejaVuSans-20" transform="scale(0.015625)"/>
       <path id="DejaVuSans-45" d="M 628 4666 
L 3578 4666 
L 3578 4134 
L 1259 4134 
L 1259 2753 
L 3481 2753 
L 3481 2222 
L 1259 2222 
L 1259 531 
L 3634 531 
L 3634 0 
L 628 0 
L 628 4666 
z
" transform="scale(0.015625)"/>
       <path id="DejaVuSans-72" d="M 2631 2963 
Q 2534 3019 2420 3045 
Q 2306 3072 2169 3072 
Q 1681 3072 1420 2755 
Q 1159 2438 1159 1844 
L 1159 0 
L 581 0 
L 581 3500 
L 1159 3500 
L 1159 2956 
Q 1341 3275 1631 3429 
Q 1922 3584 2338 3584 
Q 2397 3584 2469 3576 
Q 2541 3569 2628 3553 
L 2631 2963 
z
" transform="scale(0.015625)"/>
       <path id="DejaVuSans-6f" d="M 1959 3097 
Q 1497 3097 1228 2736 
Q 959 2375 959 1747 
Q 959 1119 1226 758 
Q 1494 397 1959 397 
Q 2419 397 2687 759 
Q 2956 1122 2956 1747 
Q 2956 2369 2687 2733 
Q 2419 3097 1959 3097 
z
M 1959 3584 
Q 2709 3584 3137 3096 
Q 3566 2609 3566 1747 
Q 3566 888 3137 398 
Q 2709 -91 1959 -91 
Q 1206 -91 779 398 
Q 353 888 353 1747 
Q 353 2609 779 3096 
Q 1206 3584 1959 3584 
z
" transform="scale(0.015625)"/>
      </defs>
      <use xlink:href="#DejaVuSans-52"/>
      <use xlink:href="#DejaVuSans-65" x="64.982422"/>
      <use xlink:href="#DejaVuSans-6c" x="126.505859"/>
      <use xlink:href="#DejaVuSans-61" x="154.289062"/>
      <use xlink:href="#DejaVuSans-74" x="215.568359"/>
      <use xlink:href="#DejaVuSans-69" x="254.777344"/>
      <use xlink:href="#DejaVuSans-76" x="282.560547"/>
      <use xlink:href="#DejaVuSans-65" x="341.740234"/>
      <use xlink:href="#DejaVuSans-20" x="403.263672"/>
      <use xlink:href="#DejaVuSans-45" x="435.050781"/>
      <use xlink:href="#DejaVuSans-72" x="498.234375"/>
      <use xlink:href="#DejaVuSans-72" x="537.597656"/>
      <use xlink:href="#DejaVuSans-6f" x="576.460938"/>
      <use xlink:href="#DejaVuSans-72" x="637.642578"/>
     </g>
    </g>
   </g>
   <g id="line2d_16">
    <path d="M 73.832727 294.696746 
L 76.011617 293.581523 
L 78.190506 293.581523 
L 80.369396 295.198215 
L 82.548286 295.488 
L 84.727175 292.83357 
L 86.906065 292.83357 
L 89.084954 291.957674 
L 91.263844 292.83357 
L 93.442733 292.161508 
L 95.621623 292.161508 
L 97.800513 291.951439 
L 99.979402 290.417754 
L 102.158292 290.841129 
L 104.337181 291.393255 
L 106.516071 290.866148 
L 108.69496 290.643987 
L 113.052739 289.59779 
L 115.231629 289.647167 
L 117.410519 289.251768 
L 119.589408 289.740236 
L 121.768298 289.200433 
L 123.947187 289.068842 
L 126.126077 289.068842 
L 128.304966 289.597582 
L 130.483856 289.016183 
L 132.662746 289.043897 
L 134.841635 289.242609 
L 137.020525 289.055156 
L 139.199414 288.994532 
L 141.378304 289.051011 
L 145.736083 288.980558 
L 147.914973 289.073983 
L 150.093862 288.981339 
L 158.80942 289.051187 
L 160.98831 288.985469 
L 163.1672 237.824609 
L 165.346089 243.868317 
L 167.524979 236.410188 
L 169.703868 232.814482 
L 171.882758 219.986225 
L 174.061647 226.534486 
L 176.240537 221.132033 
L 178.419426 214.018007 
L 180.598316 207.925166 
L 182.777206 221.525149 
L 184.956095 214.002632 
L 187.134985 205.165241 
L 189.313874 206.923204 
L 191.492764 191.683284 
L 193.671653 204.999124 
L 195.850543 204.803385 
L 198.029433 200.271359 
L 200.208322 191.031276 
L 202.387212 192.773785 
L 204.566101 199.180501 
L 206.744991 194.870989 
L 208.92388 197.174849 
L 211.10277 193.791818 
L 213.28166 195.501081 
L 215.460549 190.568537 
L 217.639439 188.891703 
L 219.818328 190.070374 
L 221.997218 173.587822 
L 224.176107 179.229838 
L 226.354997 174.792373 
L 228.533887 160.301433 
L 230.712776 177.315376 
L 232.891666 165.239199 
L 235.070555 177.527505 
L 237.249445 179.75663 
L 239.428334 170.54437 
L 241.607224 167.265618 
L 243.786113 172.143482 
L 245.965003 168.673593 
L 248.143893 174.413058 
L 250.322782 171.21888 
L 252.501672 164.035088 
L 254.680561 153.206866 
L 256.859451 152.735416 
L 259.03834 165.046584 
L 261.21723 156.925368 
L 263.39612 162.873691 
L 265.575009 163.799328 
L 267.753899 157.743461 
L 269.932788 159.610835 
L 272.111678 152.105148 
L 274.290567 159.631861 
L 276.469457 154.229562 
L 278.648347 146.246575 
L 280.827236 151.126465 
L 283.006126 146.94504 
L 285.185015 142.217238 
L 287.363905 135.070503 
L 289.542794 150.464804 
L 291.721684 140.799988 
L 293.900574 147.381659 
L 296.079463 144.314594 
L 298.258353 141.80231 
L 300.437242 117.507337 
L 302.616132 124.801667 
L 304.795021 135.784273 
L 306.973911 133.192025 
L 309.1528 136.00384 
L 311.33169 128.157069 
L 313.51058 118.240002 
L 315.689469 122.759636 
L 317.868359 132.891422 
L 320.047248 133.63878 
L 322.226138 127.700999 
L 324.405027 123.328177 
L 326.583917 124.901374 
L 328.762807 123.779197 
L 330.941696 117.021879 
L 333.120586 129.413812 
L 335.299475 119.40038 
L 337.478365 118.589813 
L 339.657254 84.587681 
L 341.836144 100.400265 
L 344.015034 118.843412 
L 346.193923 95.259214 
L 348.372813 99.520103 
L 350.551702 100.688666 
L 352.730592 86.59695 
L 354.909481 84.770702 
L 357.088371 77.116043 
L 359.267261 89.930496 
L 361.44615 99.819114 
L 363.62504 86.399538 
L 365.803929 100.799702 
L 367.982819 85.611698 
L 370.161708 80.499716 
L 372.340598 90.47247 
L 374.519487 87.006209 
L 376.698377 89.939993 
L 378.877267 86.16061 
L 381.056156 94.131568 
L 383.235046 87.09889 
L 385.413935 88.752115 
L 387.592825 85.88192 
L 389.771714 92.508272 
L 391.950604 87.455282 
L 394.129494 84.845064 
L 396.308383 80.757311 
L 398.487273 81.382022 
L 398.487273 81.382022 
" clip-path="url(#pd33f0cc22e)" style="fill: none; stroke: #008000; stroke-width: 1.5; stroke-linecap: square"/>
    <defs>
     <path id="m64e25d2f05" d="M 0 1.5 
C 0.397805 1.5 0.77937 1.341951 1.06066 1.06066 
C 1.341951 0.77937 1.5 0.397805 1.5 0 
C 1.5 -0.397805 1.341951 -0.77937 1.06066 -1.06066 
C 0.77937 -1.341951 0.397805 -1.5 0 -1.5 
C -0.397805 -1.5 -0.77937 -1.341951 -1.06066 -1.06066 
C -1.341951 -0.77937 -1.5 -0.397805 -1.5 0 
C -1.5 0.397805 -1.341951 0.77937 -1.06066 1.06066 
C -0.77937 1.341951 -0.397805 1.5 0 1.5 
z
" style="stroke: #008000"/>
    </defs>
    <g clip-path="url(#pd33f0cc22e)">
     <use xlink:href="#m64e25d2f05" x="73.832727" y="294.696746" style="fill: #008000; stroke: #008000"/>
     <use xlink:href="#m64e25d2f05" x="76.011617" y="293.581523" style="fill: #008000; stroke: #008000"/>
     <use xlink:href="#m64e25d2f05" x="78.190506" y="293.581523" style="fill: #008000; stroke: #008000"/>
     <use xlink:href="#m64e25d2f05" x="80.369396" y="295.198215" style="fill: #008000; stroke: #008000"/>
     <use xlink:href="#m64e25d2f05" x="82.548286" y="295.488" style="fill: #008000; stroke: #008000"/>
     <use xlink:href="#m64e25d2f05" x="84.727175" y="292.83357" style="fill: #008000; stroke: #008000"/>
     <use xlink:href="#m64e25d2f05" x="86.906065" y="292.83357" style="fill: #008000; stroke: #008000"/>
     <use xlink:href="#m64e25d2f05" x="89.084954" y="291.957674" style="fill: #008000; stroke: #008000"/>
     <use xlink:href="#m64e25d2f05" x="91.263844" y="292.83357" style="fill: #008000; stroke: #008000"/>
     <use xlink:href="#m64e25d2f05" x="93.442733" y="292.161508" style="fill: #008000; stroke: #008000"/>
     <use xlink:href="#m64e25d2f05" x="95.621623" y="292.161508" style="fill: #008000; stroke: #008000"/>
     <use xlink:href="#m64e25d2f05" x="97.800513" y="291.951439" style="fill: #008000; stroke: #008000"/>
     <use xlink:href="#m64e25d2f05" x="99.979402" y="290.417754" style="fill: #008000; stroke: #008000"/>
     <use xlink:href="#m64e25d2f05" x="102.158292" y="290.841129" style="fill: #008000; stroke: #008000"/>
     <use xlink:href="#m64e25d2f05" x="104.337181" y="291.393255" style="fill: #008000; stroke: #008000"/>
     <use xlink:href="#m64e25d2f05" x="106.516071" y="290.866148" style="fill: #008000; stroke: #008000"/>
     <use xlink:href="#m64e25d2f05" x="108.69496" y="290.643987" style="fill: #008000; stroke: #008000"/>
     <use xlink:href="#m64e25d2f05" x="110.87385" y="290.087143" style="fill: #008000; stroke: #008000"/>
     <use xlink:href="#m64e25d2f05" x="113.052739" y="289.59779" style="fill: #008000; stroke: #008000"/>
     <use xlink:href="#m64e25d2f05" x="115.231629" y="289.647167" style="fill: #008000; stroke: #008000"/>
     <use xlink:href="#m64e25d2f05" x="117.410519" y="289.251768" style="fill: #008000; stroke: #008000"/>
     <use xlink:href="#m64e25d2f05" x="119.589408" y="289.740236" style="fill: #008000; stroke: #008000"/>
     <use xlink:href="#m64e25d2f05" x="121.768298" y="289.200433" style="fill: #008000; stroke: #008000"/>
     <use xlink:href="#m64e25d2f05" x="123.947187" y="289.068842" style="fill: #008000; stroke: #008000"/>
     <use xlink:href="#m64e25d2f05" x="126.126077" y="289.068842" style="fill: #008000; stroke: #008000"/>
     <use xlink:href="#m64e25d2f05" x="128.304966" y="289.597582" style="fill: #008000; stroke: #008000"/>
     <use xlink:href="#m64e25d2f05" x="130.483856" y="289.016183" style="fill: #008000; stroke: #008000"/>
     <use xlink:href="#m64e25d2f05" x="132.662746" y="289.043897" style="fill: #008000; stroke: #008000"/>
     <use xlink:href="#m64e25d2f05" x="134.841635" y="289.242609" style="fill: #008000; stroke: #008000"/>
     <use xlink:href="#m64e25d2f05" x="137.020525" y="289.055156" style="fill: #008000; stroke: #008000"/>
     <use xlink:href="#m64e25d2f05" x="139.199414" y="288.994532" style="fill: #008000; stroke: #008000"/>
     <use xlink:href="#m64e25d2f05" x="141.378304" y="289.051011" style="fill: #008000; stroke: #008000"/>
     <use xlink:href="#m64e25d2f05" x="143.557193" y="288.990818" style="fill: #008000; stroke: #008000"/>
     <use xlink:href="#m64e25d2f05" x="145.736083" y="288.980558" style="fill: #008000; stroke: #008000"/>
     <use xlink:href="#m64e25d2f05" x="147.914973" y="289.073983" style="fill: #008000; stroke: #008000"/>
     <use xlink:href="#m64e25d2f05" x="150.093862" y="288.981339" style="fill: #008000; stroke: #008000"/>
     <use xlink:href="#m64e25d2f05" x="152.272752" y="289.005341" style="fill: #008000; stroke: #008000"/>
     <use xlink:href="#m64e25d2f05" x="154.451641" y="289.063567" style="fill: #008000; stroke: #008000"/>
     <use xlink:href="#m64e25d2f05" x="156.630531" y="288.994395" style="fill: #008000; stroke: #008000"/>
     <use xlink:href="#m64e25d2f05" x="158.80942" y="289.051187" style="fill: #008000; stroke: #008000"/>
     <use xlink:href="#m64e25d2f05" x="160.98831" y="288.985469" style="fill: #008000; stroke: #008000"/>
     <use xlink:href="#m64e25d2f05" x="163.1672" y="237.824609" style="fill: #008000; stroke: #008000"/>
     <use xlink:href="#m64e25d2f05" x="165.346089" y="243.868317" style="fill: #008000; stroke: #008000"/>
     <use xlink:href="#m64e25d2f05" x="167.524979" y="236.410188" style="fill: #008000; stroke: #008000"/>
     <use xlink:href="#m64e25d2f05" x="169.703868" y="232.814482" style="fill: #008000; stroke: #008000"/>
     <use xlink:href="#m64e25d2f05" x="171.882758" y="219.986225" style="fill: #008000; stroke: #008000"/>
     <use xlink:href="#m64e25d2f05" x="174.061647" y="226.534486" style="fill: #008000; stroke: #008000"/>
     <use xlink:href="#m64e25d2f05" x="176.240537" y="221.132033" style="fill: #008000; stroke: #008000"/>
     <use xlink:href="#m64e25d2f05" x="178.419426" y="214.018007" style="fill: #008000; stroke: #008000"/>
     <use xlink:href="#m64e25d2f05" x="180.598316" y="207.925166" style="fill: #008000; stroke: #008000"/>
     <use xlink:href="#m64e25d2f05" x="182.777206" y="221.525149" style="fill: #008000; stroke: #008000"/>
     <use xlink:href="#m64e25d2f05" x="184.956095" y="214.002632" style="fill: #008000; stroke: #008000"/>
     <use xlink:href="#m64e25d2f05" x="187.134985" y="205.165241" style="fill: #008000; stroke: #008000"/>
     <use xlink:href="#m64e25d2f05" x="189.313874" y="206.923204" style="fill: #008000; stroke: #008000"/>
     <use xlink:href="#m64e25d2f05" x="191.492764" y="191.683284" style="fill: #008000; stroke: #008000"/>
     <use xlink:href="#m64e25d2f05" x="193.671653" y="204.999124" style="fill: #008000; stroke: #008000"/>
     <use xlink:href="#m64e25d2f05" x="195.850543" y="204.803385" style="fill: #008000; stroke: #008000"/>
     <use xlink:href="#m64e25d2f05" x="198.029433" y="200.271359" style="fill: #008000; stroke: #008000"/>
     <use xlink:href="#m64e25d2f05" x="200.208322" y="191.031276" style="fill: #008000; stroke: #008000"/>
     <use xlink:href="#m64e25d2f05" x="202.387212" y="192.773785" style="fill: #008000; stroke: #008000"/>
     <use xlink:href="#m64e25d2f05" x="204.566101" y="199.180501" style="fill: #008000; stroke: #008000"/>
     <use xlink:href="#m64e25d2f05" x="206.744991" y="194.870989" style="fill: #008000; stroke: #008000"/>
     <use xlink:href="#m64e25d2f05" x="208.92388" y="197.174849" style="fill: #008000; stroke: #008000"/>
     <use xlink:href="#m64e25d2f05" x="211.10277" y="193.791818" style="fill: #008000; stroke: #008000"/>
     <use xlink:href="#m64e25d2f05" x="213.28166" y="195.501081" style="fill: #008000; stroke: #008000"/>
     <use xlink:href="#m64e25d2f05" x="215.460549" y="190.568537" style="fill: #008000; stroke: #008000"/>
     <use xlink:href="#m64e25d2f05" x="217.639439" y="188.891703" style="fill: #008000; stroke: #008000"/>
     <use xlink:href="#m64e25d2f05" x="219.818328" y="190.070374" style="fill: #008000; stroke: #008000"/>
     <use xlink:href="#m64e25d2f05" x="221.997218" y="173.587822" style="fill: #008000; stroke: #008000"/>
     <use xlink:href="#m64e25d2f05" x="224.176107" y="179.229838" style="fill: #008000; stroke: #008000"/>
     <use xlink:href="#m64e25d2f05" x="226.354997" y="174.792373" style="fill: #008000; stroke: #008000"/>
     <use xlink:href="#m64e25d2f05" x="228.533887" y="160.301433" style="fill: #008000; stroke: #008000"/>
     <use xlink:href="#m64e25d2f05" x="230.712776" y="177.315376" style="fill: #008000; stroke: #008000"/>
     <use xlink:href="#m64e25d2f05" x="232.891666" y="165.239199" style="fill: #008000; stroke: #008000"/>
     <use xlink:href="#m64e25d2f05" x="235.070555" y="177.527505" style="fill: #008000; stroke: #008000"/>
     <use xlink:href="#m64e25d2f05" x="237.249445" y="179.75663" style="fill: #008000; stroke: #008000"/>
     <use xlink:href="#m64e25d2f05" x="239.428334" y="170.54437" style="fill: #008000; stroke: #008000"/>
     <use xlink:href="#m64e25d2f05" x="241.607224" y="167.265618" style="fill: #008000; stroke: #008000"/>
     <use xlink:href="#m64e25d2f05" x="243.786113" y="172.143482" style="fill: #008000; stroke: #008000"/>
     <use xlink:href="#m64e25d2f05" x="245.965003" y="168.673593" style="fill: #008000; stroke: #008000"/>
     <use xlink:href="#m64e25d2f05" x="248.143893" y="174.413058" style="fill: #008000; stroke: #008000"/>
     <use xlink:href="#m64e25d2f05" x="250.322782" y="171.21888" style="fill: #008000; stroke: #008000"/>
     <use xlink:href="#m64e25d2f05" x="252.501672" y="164.035088" style="fill: #008000; stroke: #008000"/>
     <use xlink:href="#m64e25d2f05" x="254.680561" y="153.206866" style="fill: #008000; stroke: #008000"/>
     <use xlink:href="#m64e25d2f05" x="256.859451" y="152.735416" style="fill: #008000; stroke: #008000"/>
     <use xlink:href="#m64e25d2f05" x="259.03834" y="165.046584" style="fill: #008000; stroke: #008000"/>
     <use xlink:href="#m64e25d2f05" x="261.21723" y="156.925368" style="fill: #008000; stroke: #008000"/>
     <use xlink:href="#m64e25d2f05" x="263.39612" y="162.873691" style="fill: #008000; stroke: #008000"/>
     <use xlink:href="#m64e25d2f05" x="265.575009" y="163.799328" style="fill: #008000; stroke: #008000"/>
     <use xlink:href="#m64e25d2f05" x="267.753899" y="157.743461" style="fill: #008000; stroke: #008000"/>
     <use xlink:href="#m64e25d2f05" x="269.932788" y="159.610835" style="fill: #008000; stroke: #008000"/>
     <use xlink:href="#m64e25d2f05" x="272.111678" y="152.105148" style="fill: #008000; stroke: #008000"/>
     <use xlink:href="#m64e25d2f05" x="274.290567" y="159.631861" style="fill: #008000; stroke: #008000"/>
     <use xlink:href="#m64e25d2f05" x="276.469457" y="154.229562" style="fill: #008000; stroke: #008000"/>
     <use xlink:href="#m64e25d2f05" x="278.648347" y="146.246575" style="fill: #008000; stroke: #008000"/>
     <use xlink:href="#m64e25d2f05" x="280.827236" y="151.126465" style="fill: #008000; stroke: #008000"/>
     <use xlink:href="#m64e25d2f05" x="283.006126" y="146.94504" style="fill: #008000; stroke: #008000"/>
     <use xlink:href="#m64e25d2f05" x="285.185015" y="142.217238" style="fill: #008000; stroke: #008000"/>
     <use xlink:href="#m64e25d2f05" x="287.363905" y="135.070503" style="fill: #008000; stroke: #008000"/>
     <use xlink:href="#m64e25d2f05" x="289.542794" y="150.464804" style="fill: #008000; stroke: #008000"/>
     <use xlink:href="#m64e25d2f05" x="291.721684" y="140.799988" style="fill: #008000; stroke: #008000"/>
     <use xlink:href="#m64e25d2f05" x="293.900574" y="147.381659" style="fill: #008000; stroke: #008000"/>
     <use xlink:href="#m64e25d2f05" x="296.079463" y="144.314594" style="fill: #008000; stroke: #008000"/>
     <use xlink:href="#m64e25d2f05" x="298.258353" y="141.80231" style="fill: #008000; stroke: #008000"/>
     <use xlink:href="#m64e25d2f05" x="300.437242" y="117.507337" style="fill: #008000; stroke: #008000"/>
     <use xlink:href="#m64e25d2f05" x="302.616132" y="124.801667" style="fill: #008000; stroke: #008000"/>
     <use xlink:href="#m64e25d2f05" x="304.795021" y="135.784273" style="fill: #008000; stroke: #008000"/>
     <use xlink:href="#m64e25d2f05" x="306.973911" y="133.192025" style="fill: #008000; stroke: #008000"/>
     <use xlink:href="#m64e25d2f05" x="309.1528" y="136.00384" style="fill: #008000; stroke: #008000"/>
     <use xlink:href="#m64e25d2f05" x="311.33169" y="128.157069" style="fill: #008000; stroke: #008000"/>
     <use xlink:href="#m64e25d2f05" x="313.51058" y="118.240002" style="fill: #008000; stroke: #008000"/>
     <use xlink:href="#m64e25d2f05" x="315.689469" y="122.759636" style="fill: #008000; stroke: #008000"/>
     <use xlink:href="#m64e25d2f05" x="317.868359" y="132.891422" style="fill: #008000; stroke: #008000"/>
     <use xlink:href="#m64e25d2f05" x="320.047248" y="133.63878" style="fill: #008000; stroke: #008000"/>
     <use xlink:href="#m64e25d2f05" x="322.226138" y="127.700999" style="fill: #008000; stroke: #008000"/>
     <use xlink:href="#m64e25d2f05" x="324.405027" y="123.328177" style="fill: #008000; stroke: #008000"/>
     <use xlink:href="#m64e25d2f05" x="326.583917" y="124.901374" style="fill: #008000; stroke: #008000"/>
     <use xlink:href="#m64e25d2f05" x="328.762807" y="123.779197" style="fill: #008000; stroke: #008000"/>
     <use xlink:href="#m64e25d2f05" x="330.941696" y="117.021879" style="fill: #008000; stroke: #008000"/>
     <use xlink:href="#m64e25d2f05" x="333.120586" y="129.413812" style="fill: #008000; stroke: #008000"/>
     <use xlink:href="#m64e25d2f05" x="335.299475" y="119.40038" style="fill: #008000; stroke: #008000"/>
     <use xlink:href="#m64e25d2f05" x="337.478365" y="118.589813" style="fill: #008000; stroke: #008000"/>
     <use xlink:href="#m64e25d2f05" x="339.657254" y="84.587681" style="fill: #008000; stroke: #008000"/>
     <use xlink:href="#m64e25d2f05" x="341.836144" y="100.400265" style="fill: #008000; stroke: #008000"/>
     <use xlink:href="#m64e25d2f05" x="344.015034" y="118.843412" style="fill: #008000; stroke: #008000"/>
     <use xlink:href="#m64e25d2f05" x="346.193923" y="95.259214" style="fill: #008000; stroke: #008000"/>
     <use xlink:href="#m64e25d2f05" x="348.372813" y="99.520103" style="fill: #008000; stroke: #008000"/>
     <use xlink:href="#m64e25d2f05" x="350.551702" y="100.688666" style="fill: #008000; stroke: #008000"/>
     <use xlink:href="#m64e25d2f05" x="352.730592" y="86.59695" style="fill: #008000; stroke: #008000"/>
     <use xlink:href="#m64e25d2f05" x="354.909481" y="84.770702" style="fill: #008000; stroke: #008000"/>
     <use xlink:href="#m64e25d2f05" x="357.088371" y="77.116043" style="fill: #008000; stroke: #008000"/>
     <use xlink:href="#m64e25d2f05" x="359.267261" y="89.930496" style="fill: #008000; stroke: #008000"/>
     <use xlink:href="#m64e25d2f05" x="361.44615" y="99.819114" style="fill: #008000; stroke: #008000"/>
     <use xlink:href="#m64e25d2f05" x="363.62504" y="86.399538" style="fill: #008000; stroke: #008000"/>
     <use xlink:href="#m64e25d2f05" x="365.803929" y="100.799702" style="fill: #008000; stroke: #008000"/>
     <use xlink:href="#m64e25d2f05" x="367.982819" y="85.611698" style="fill: #008000; stroke: #008000"/>
     <use xlink:href="#m64e25d2f05" x="370.161708" y="80.499716" style="fill: #008000; stroke: #008000"/>
     <use xlink:href="#m64e25d2f05" x="372.340598" y="90.47247" style="fill: #008000; stroke: #008000"/>
     <use xlink:href="#m64e25d2f05" x="374.519487" y="87.006209" style="fill: #008000; stroke: #008000"/>
     <use xlink:href="#m64e25d2f05" x="376.698377" y="89.939993" style="fill: #008000; stroke: #008000"/>
     <use xlink:href="#m64e25d2f05" x="378.877267" y="86.16061" style="fill: #008000; stroke: #008000"/>
     <use xlink:href="#m64e25d2f05" x="381.056156" y="94.131568" style="fill: #008000; stroke: #008000"/>
     <use xlink:href="#m64e25d2f05" x="383.235046" y="87.09889" style="fill: #008000; stroke: #008000"/>
     <use xlink:href="#m64e25d2f05" x="385.413935" y="88.752115" style="fill: #008000; stroke: #008000"/>
     <use xlink:href="#m64e25d2f05" x="387.592825" y="85.88192" style="fill: #008000; stroke: #008000"/>
     <use xlink:href="#m64e25d2f05" x="389.771714" y="92.508272" style="fill: #008000; stroke: #008000"/>
     <use xlink:href="#m64e25d2f05" x="391.950604" y="87.455282" style="fill: #008000; stroke: #008000"/>
     <use xlink:href="#m64e25d2f05" x="394.129494" y="84.845064" style="fill: #008000; stroke: #008000"/>
     <use xlink:href="#m64e25d2f05" x="396.308383" y="80.757311" style="fill: #008000; stroke: #008000"/>
     <use xlink:href="#m64e25d2f05" x="398.487273" y="81.382022" style="fill: #008000; stroke: #008000"/>
    </g>
   </g>
   <g id="line2d_17">
    <path d="M 73.832727 294.696746 
L 76.011617 291.675031 
L 78.190506 286.924355 
L 80.369396 286.500368 
L 82.548286 282.630674 
L 84.727175 283.768441 
L 86.906065 279.843193 
L 89.084954 276.880439 
L 91.263844 274.306355 
L 93.442733 267.588495 
L 95.621623 263.328429 
L 97.800513 256.823542 
L 99.979402 256.823542 
L 104.337181 242.709908 
L 106.516071 250.709522 
L 108.69496 253.096723 
L 113.052739 242.304583 
L 117.410519 242.304583 
L 119.589408 240.858562 
L 123.947187 222.076859 
L 126.126077 232.252026 
L 128.304966 229.230786 
L 130.483856 219.669455 
L 132.662746 220.004409 
L 134.841635 225.34069 
L 137.020525 220.48709 
L 139.199414 218.64627 
L 141.378304 218.830091 
L 143.557193 207.940015 
L 145.736083 217.647413 
L 147.914973 212.782936 
L 150.093862 213.350964 
L 152.272752 205.783099 
L 154.451641 188.170607 
L 156.630531 199.326585 
L 158.80942 200.876236 
L 160.98831 185.054336 
L 163.1672 199.130135 
L 165.346089 198.228853 
L 167.524979 199.110009 
L 169.703868 194.364255 
L 171.882758 199.716818 
L 174.061647 196.492664 
L 176.240537 195.212293 
L 178.419426 183.177268 
L 180.598316 183.985633 
L 182.777206 184.573747 
L 184.956095 183.985633 
L 187.134985 183.267123 
L 189.313874 186.706105 
L 191.492764 181.893616 
L 193.671653 175.334853 
L 195.850543 180.168119 
L 198.029433 177.384119 
L 200.208322 168.333243 
L 202.387212 167.349979 
L 204.566101 172.580866 
L 206.744991 167.397782 
L 208.92388 170.572962 
L 211.10277 166.962134 
L 213.28166 169.280269 
L 215.460549 162.417179 
L 217.639439 161.796242 
L 219.818328 158.852022 
L 221.997218 146.128175 
L 224.176107 155.592737 
L 226.354997 148.726891 
L 228.533887 136.827075 
L 230.712776 152.759423 
L 232.891666 135.259462 
L 235.070555 144.59619 
L 237.249445 147.049933 
L 239.428334 143.612132 
L 241.607224 141.465714 
L 243.786113 135.895376 
L 245.965003 146.202827 
L 248.143893 143.23562 
L 250.322782 144.38939 
L 252.501672 128.181611 
L 254.680561 124.130093 
L 256.859451 122.568666 
L 259.03834 139.878327 
L 261.21723 121.729755 
L 263.39612 131.354543 
L 265.575009 136.288133 
L 267.753899 133.072114 
L 269.932788 135.223613 
L 272.111678 114.608339 
L 274.290567 127.843188 
L 276.469457 121.493412 
L 278.648347 115.73411 
L 280.827236 123.906461 
L 283.006126 117.535623 
L 285.185015 121.969829 
L 287.363905 108.883304 
L 289.542794 118.51217 
L 291.721684 108.50065 
L 293.900574 120.725357 
L 296.079463 115.122462 
L 298.258353 118.277 
L 300.437242 88.535088 
L 302.616132 93.51307 
L 304.795021 105.257522 
L 306.973911 104.100093 
L 309.1528 104.796078 
L 311.33169 102.507313 
L 313.51058 87.173199 
L 315.689469 88.005153 
L 317.868359 102.69963 
L 320.047248 102.621002 
L 322.226138 101.432915 
L 324.405027 96.748189 
L 326.583917 97.615229 
L 328.762807 100.67783 
L 330.941696 86.755486 
L 333.120586 99.989045 
L 335.299475 93.484493 
L 337.478365 93.050619 
L 339.657254 62.508867 
L 341.836144 71.566951 
L 344.015034 89.300895 
L 346.193923 65.909054 
L 348.372813 74.969674 
L 350.551702 69.932691 
L 352.730592 56.769198 
L 354.909481 55.916959 
L 357.088371 56.441039 
L 359.267261 72.347668 
L 361.44615 73.120098 
L 363.62504 61.454825 
L 365.803929 72.212414 
L 367.982819 59.620383 
L 370.161708 57.890608 
L 372.340598 70.919612 
L 374.519487 68.2237 
L 376.698377 63.017766 
L 378.877267 60.43798 
L 381.056156 66.247104 
L 383.235046 60.170372 
L 385.413935 63.046663 
L 387.592825 60.153202 
L 389.771714 57.50151 
L 391.950604 53.568 
L 394.129494 56.671278 
L 396.308383 54.951163 
L 398.487273 56.929764 
L 398.487273 56.929764 
" clip-path="url(#pd33f0cc22e)" style="fill: none; stroke: #ff0000; stroke-width: 1.5; stroke-linecap: square"/>
    <defs>
     <path id="me4baabff9a" d="M 0 1.5 
C 0.397805 1.5 0.77937 1.341951 1.06066 1.06066 
C 1.341951 0.77937 1.5 0.397805 1.5 0 
C 1.5 -0.397805 1.341951 -0.77937 1.06066 -1.06066 
C 0.77937 -1.341951 0.397805 -1.5 0 -1.5 
C -0.397805 -1.5 -0.77937 -1.341951 -1.06066 -1.06066 
C -1.341951 -0.77937 -1.5 -0.397805 -1.5 0 
C -1.5 0.397805 -1.341951 0.77937 -1.06066 1.06066 
C -0.77937 1.341951 -0.397805 1.5 0 1.5 
z
" style="stroke: #ff0000"/>
    </defs>
    <g clip-path="url(#pd33f0cc22e)">
     <use xlink:href="#me4baabff9a" x="73.832727" y="294.696746" style="fill: #ff0000; stroke: #ff0000"/>
     <use xlink:href="#me4baabff9a" x="76.011617" y="291.675031" style="fill: #ff0000; stroke: #ff0000"/>
     <use xlink:href="#me4baabff9a" x="78.190506" y="286.924355" style="fill: #ff0000; stroke: #ff0000"/>
     <use xlink:href="#me4baabff9a" x="80.369396" y="286.500368" style="fill: #ff0000; stroke: #ff0000"/>
     <use xlink:href="#me4baabff9a" x="82.548286" y="282.630674" style="fill: #ff0000; stroke: #ff0000"/>
     <use xlink:href="#me4baabff9a" x="84.727175" y="283.768441" style="fill: #ff0000; stroke: #ff0000"/>
     <use xlink:href="#me4baabff9a" x="86.906065" y="279.843193" style="fill: #ff0000; stroke: #ff0000"/>
     <use xlink:href="#me4baabff9a" x="89.084954" y="276.880439" style="fill: #ff0000; stroke: #ff0000"/>
     <use xlink:href="#me4baabff9a" x="91.263844" y="274.306355" style="fill: #ff0000; stroke: #ff0000"/>
     <use xlink:href="#me4baabff9a" x="93.442733" y="267.588495" style="fill: #ff0000; stroke: #ff0000"/>
     <use xlink:href="#me4baabff9a" x="95.621623" y="263.328429" style="fill: #ff0000; stroke: #ff0000"/>
     <use xlink:href="#me4baabff9a" x="97.800513" y="256.823542" style="fill: #ff0000; stroke: #ff0000"/>
     <use xlink:href="#me4baabff9a" x="99.979402" y="256.823542" style="fill: #ff0000; stroke: #ff0000"/>
     <use xlink:href="#me4baabff9a" x="102.158292" y="249.727828" style="fill: #ff0000; stroke: #ff0000"/>
     <use xlink:href="#me4baabff9a" x="104.337181" y="242.709908" style="fill: #ff0000; stroke: #ff0000"/>
     <use xlink:href="#me4baabff9a" x="106.516071" y="250.709522" style="fill: #ff0000; stroke: #ff0000"/>
     <use xlink:href="#me4baabff9a" x="108.69496" y="253.096723" style="fill: #ff0000; stroke: #ff0000"/>
     <use xlink:href="#me4baabff9a" x="110.87385" y="247.767856" style="fill: #ff0000; stroke: #ff0000"/>
     <use xlink:href="#me4baabff9a" x="113.052739" y="242.304583" style="fill: #ff0000; stroke: #ff0000"/>
     <use xlink:href="#me4baabff9a" x="115.231629" y="242.304583" style="fill: #ff0000; stroke: #ff0000"/>
     <use xlink:href="#me4baabff9a" x="117.410519" y="242.304583" style="fill: #ff0000; stroke: #ff0000"/>
     <use xlink:href="#me4baabff9a" x="119.589408" y="240.858562" style="fill: #ff0000; stroke: #ff0000"/>
     <use xlink:href="#me4baabff9a" x="121.768298" y="231.637233" style="fill: #ff0000; stroke: #ff0000"/>
     <use xlink:href="#me4baabff9a" x="123.947187" y="222.076859" style="fill: #ff0000; stroke: #ff0000"/>
     <use xlink:href="#me4baabff9a" x="126.126077" y="232.252026" style="fill: #ff0000; stroke: #ff0000"/>
     <use xlink:href="#me4baabff9a" x="128.304966" y="229.230786" style="fill: #ff0000; stroke: #ff0000"/>
     <use xlink:href="#me4baabff9a" x="130.483856" y="219.669455" style="fill: #ff0000; stroke: #ff0000"/>
     <use xlink:href="#me4baabff9a" x="132.662746" y="220.004409" style="fill: #ff0000; stroke: #ff0000"/>
     <use xlink:href="#me4baabff9a" x="134.841635" y="225.34069" style="fill: #ff0000; stroke: #ff0000"/>
     <use xlink:href="#me4baabff9a" x="137.020525" y="220.48709" style="fill: #ff0000; stroke: #ff0000"/>
     <use xlink:href="#me4baabff9a" x="139.199414" y="218.64627" style="fill: #ff0000; stroke: #ff0000"/>
     <use xlink:href="#me4baabff9a" x="141.378304" y="218.830091" style="fill: #ff0000; stroke: #ff0000"/>
     <use xlink:href="#me4baabff9a" x="143.557193" y="207.940015" style="fill: #ff0000; stroke: #ff0000"/>
     <use xlink:href="#me4baabff9a" x="145.736083" y="217.647413" style="fill: #ff0000; stroke: #ff0000"/>
     <use xlink:href="#me4baabff9a" x="147.914973" y="212.782936" style="fill: #ff0000; stroke: #ff0000"/>
     <use xlink:href="#me4baabff9a" x="150.093862" y="213.350964" style="fill: #ff0000; stroke: #ff0000"/>
     <use xlink:href="#me4baabff9a" x="152.272752" y="205.783099" style="fill: #ff0000; stroke: #ff0000"/>
     <use xlink:href="#me4baabff9a" x="154.451641" y="188.170607" style="fill: #ff0000; stroke: #ff0000"/>
     <use xlink:href="#me4baabff9a" x="156.630531" y="199.326585" style="fill: #ff0000; stroke: #ff0000"/>
     <use xlink:href="#me4baabff9a" x="158.80942" y="200.876236" style="fill: #ff0000; stroke: #ff0000"/>
     <use xlink:href="#me4baabff9a" x="160.98831" y="185.054336" style="fill: #ff0000; stroke: #ff0000"/>
     <use xlink:href="#me4baabff9a" x="163.1672" y="199.130135" style="fill: #ff0000; stroke: #ff0000"/>
     <use xlink:href="#me4baabff9a" x="165.346089" y="198.228853" style="fill: #ff0000; stroke: #ff0000"/>
     <use xlink:href="#me4baabff9a" x="167.524979" y="199.110009" style="fill: #ff0000; stroke: #ff0000"/>
     <use xlink:href="#me4baabff9a" x="169.703868" y="194.364255" style="fill: #ff0000; stroke: #ff0000"/>
     <use xlink:href="#me4baabff9a" x="171.882758" y="199.716818" style="fill: #ff0000; stroke: #ff0000"/>
     <use xlink:href="#me4baabff9a" x="174.061647" y="196.492664" style="fill: #ff0000; stroke: #ff0000"/>
     <use xlink:href="#me4baabff9a" x="176.240537" y="195.212293" style="fill: #ff0000; stroke: #ff0000"/>
     <use xlink:href="#me4baabff9a" x="178.419426" y="183.177268" style="fill: #ff0000; stroke: #ff0000"/>
     <use xlink:href="#me4baabff9a" x="180.598316" y="183.985633" style="fill: #ff0000; stroke: #ff0000"/>
     <use xlink:href="#me4baabff9a" x="182.777206" y="184.573747" style="fill: #ff0000; stroke: #ff0000"/>
     <use xlink:href="#me4baabff9a" x="184.956095" y="183.985633" style="fill: #ff0000; stroke: #ff0000"/>
     <use xlink:href="#me4baabff9a" x="187.134985" y="183.267123" style="fill: #ff0000; stroke: #ff0000"/>
     <use xlink:href="#me4baabff9a" x="189.313874" y="186.706105" style="fill: #ff0000; stroke: #ff0000"/>
     <use xlink:href="#me4baabff9a" x="191.492764" y="181.893616" style="fill: #ff0000; stroke: #ff0000"/>
     <use xlink:href="#me4baabff9a" x="193.671653" y="175.334853" style="fill: #ff0000; stroke: #ff0000"/>
     <use xlink:href="#me4baabff9a" x="195.850543" y="180.168119" style="fill: #ff0000; stroke: #ff0000"/>
     <use xlink:href="#me4baabff9a" x="198.029433" y="177.384119" style="fill: #ff0000; stroke: #ff0000"/>
     <use xlink:href="#me4baabff9a" x="200.208322" y="168.333243" style="fill: #ff0000; stroke: #ff0000"/>
     <use xlink:href="#me4baabff9a" x="202.387212" y="167.349979" style="fill: #ff0000; stroke: #ff0000"/>
     <use xlink:href="#me4baabff9a" x="204.566101" y="172.580866" style="fill: #ff0000; stroke: #ff0000"/>
     <use xlink:href="#me4baabff9a" x="206.744991" y="167.397782" style="fill: #ff0000; stroke: #ff0000"/>
     <use xlink:href="#me4baabff9a" x="208.92388" y="170.572962" style="fill: #ff0000; stroke: #ff0000"/>
     <use xlink:href="#me4baabff9a" x="211.10277" y="166.962134" style="fill: #ff0000; stroke: #ff0000"/>
     <use xlink:href="#me4baabff9a" x="213.28166" y="169.280269" style="fill: #ff0000; stroke: #ff0000"/>
     <use xlink:href="#me4baabff9a" x="215.460549" y="162.417179" style="fill: #ff0000; stroke: #ff0000"/>
     <use xlink:href="#me4baabff9a" x="217.639439" y="161.796242" style="fill: #ff0000; stroke: #ff0000"/>
     <use xlink:href="#me4baabff9a" x="219.818328" y="158.852022" style="fill: #ff0000; stroke: #ff0000"/>
     <use xlink:href="#me4baabff9a" x="221.997218" y="146.128175" style="fill: #ff0000; stroke: #ff0000"/>
     <use xlink:href="#me4baabff9a" x="224.176107" y="155.592737" style="fill: #ff0000; stroke: #ff0000"/>
     <use xlink:href="#me4baabff9a" x="226.354997" y="148.726891" style="fill: #ff0000; stroke: #ff0000"/>
     <use xlink:href="#me4baabff9a" x="228.533887" y="136.827075" style="fill: #ff0000; stroke: #ff0000"/>
     <use xlink:href="#me4baabff9a" x="230.712776" y="152.759423" style="fill: #ff0000; stroke: #ff0000"/>
     <use xlink:href="#me4baabff9a" x="232.891666" y="135.259462" style="fill: #ff0000; stroke: #ff0000"/>
     <use xlink:href="#me4baabff9a" x="235.070555" y="144.59619" style="fill: #ff0000; stroke: #ff0000"/>
     <use xlink:href="#me4baabff9a" x="237.249445" y="147.049933" style="fill: #ff0000; stroke: #ff0000"/>
     <use xlink:href="#me4baabff9a" x="239.428334" y="143.612132" style="fill: #ff0000; stroke: #ff0000"/>
     <use xlink:href="#me4baabff9a" x="241.607224" y="141.465714" style="fill: #ff0000; stroke: #ff0000"/>
     <use xlink:href="#me4baabff9a" x="243.786113" y="135.895376" style="fill: #ff0000; stroke: #ff0000"/>
     <use xlink:href="#me4baabff9a" x="245.965003" y="146.202827" style="fill: #ff0000; stroke: #ff0000"/>
     <use xlink:href="#me4baabff9a" x="248.143893" y="143.23562" style="fill: #ff0000; stroke: #ff0000"/>
     <use xlink:href="#me4baabff9a" x="250.322782" y="144.38939" style="fill: #ff0000; stroke: #ff0000"/>
     <use xlink:href="#me4baabff9a" x="252.501672" y="128.181611" style="fill: #ff0000; stroke: #ff0000"/>
     <use xlink:href="#me4baabff9a" x="254.680561" y="124.130093" style="fill: #ff0000; stroke: #ff0000"/>
     <use xlink:href="#me4baabff9a" x="256.859451" y="122.568666" style="fill: #ff0000; stroke: #ff0000"/>
     <use xlink:href="#me4baabff9a" x="259.03834" y="139.878327" style="fill: #ff0000; stroke: #ff0000"/>
     <use xlink:href="#me4baabff9a" x="261.21723" y="121.729755" style="fill: #ff0000; stroke: #ff0000"/>
     <use xlink:href="#me4baabff9a" x="263.39612" y="131.354543" style="fill: #ff0000; stroke: #ff0000"/>
     <use xlink:href="#me4baabff9a" x="265.575009" y="136.288133" style="fill: #ff0000; stroke: #ff0000"/>
     <use xlink:href="#me4baabff9a" x="267.753899" y="133.072114" style="fill: #ff0000; stroke: #ff0000"/>
     <use xlink:href="#me4baabff9a" x="269.932788" y="135.223613" style="fill: #ff0000; stroke: #ff0000"/>
     <use xlink:href="#me4baabff9a" x="272.111678" y="114.608339" style="fill: #ff0000; stroke: #ff0000"/>
     <use xlink:href="#me4baabff9a" x="274.290567" y="127.843188" style="fill: #ff0000; stroke: #ff0000"/>
     <use xlink:href="#me4baabff9a" x="276.469457" y="121.493412" style="fill: #ff0000; stroke: #ff0000"/>
     <use xlink:href="#me4baabff9a" x="278.648347" y="115.73411" style="fill: #ff0000; stroke: #ff0000"/>
     <use xlink:href="#me4baabff9a" x="280.827236" y="123.906461" style="fill: #ff0000; stroke: #ff0000"/>
     <use xlink:href="#me4baabff9a" x="283.006126" y="117.535623" style="fill: #ff0000; stroke: #ff0000"/>
     <use xlink:href="#me4baabff9a" x="285.185015" y="121.969829" style="fill: #ff0000; stroke: #ff0000"/>
     <use xlink:href="#me4baabff9a" x="287.363905" y="108.883304" style="fill: #ff0000; stroke: #ff0000"/>
     <use xlink:href="#me4baabff9a" x="289.542794" y="118.51217" style="fill: #ff0000; stroke: #ff0000"/>
     <use xlink:href="#me4baabff9a" x="291.721684" y="108.50065" style="fill: #ff0000; stroke: #ff0000"/>
     <use xlink:href="#me4baabff9a" x="293.900574" y="120.725357" style="fill: #ff0000; stroke: #ff0000"/>
     <use xlink:href="#me4baabff9a" x="296.079463" y="115.122462" style="fill: #ff0000; stroke: #ff0000"/>
     <use xlink:href="#me4baabff9a" x="298.258353" y="118.277" style="fill: #ff0000; stroke: #ff0000"/>
     <use xlink:href="#me4baabff9a" x="300.437242" y="88.535088" style="fill: #ff0000; stroke: #ff0000"/>
     <use xlink:href="#me4baabff9a" x="302.616132" y="93.51307" style="fill: #ff0000; stroke: #ff0000"/>
     <use xlink:href="#me4baabff9a" x="304.795021" y="105.257522" style="fill: #ff0000; stroke: #ff0000"/>
     <use xlink:href="#me4baabff9a" x="306.973911" y="104.100093" style="fill: #ff0000; stroke: #ff0000"/>
     <use xlink:href="#me4baabff9a" x="309.1528" y="104.796078" style="fill: #ff0000; stroke: #ff0000"/>
     <use xlink:href="#me4baabff9a" x="311.33169" y="102.507313" style="fill: #ff0000; stroke: #ff0000"/>
     <use xlink:href="#me4baabff9a" x="313.51058" y="87.173199" style="fill: #ff0000; stroke: #ff0000"/>
     <use xlink:href="#me4baabff9a" x="315.689469" y="88.005153" style="fill: #ff0000; stroke: #ff0000"/>
     <use xlink:href="#me4baabff9a" x="317.868359" y="102.69963" style="fill: #ff0000; stroke: #ff0000"/>
     <use xlink:href="#me4baabff9a" x="320.047248" y="102.621002" style="fill: #ff0000; stroke: #ff0000"/>
     <use xlink:href="#me4baabff9a" x="322.226138" y="101.432915" style="fill: #ff0000; stroke: #ff0000"/>
     <use xlink:href="#me4baabff9a" x="324.405027" y="96.748189" style="fill: #ff0000; stroke: #ff0000"/>
     <use xlink:href="#me4baabff9a" x="326.583917" y="97.615229" style="fill: #ff0000; stroke: #ff0000"/>
     <use xlink:href="#me4baabff9a" x="328.762807" y="100.67783" style="fill: #ff0000; stroke: #ff0000"/>
     <use xlink:href="#me4baabff9a" x="330.941696" y="86.755486" style="fill: #ff0000; stroke: #ff0000"/>
     <use xlink:href="#me4baabff9a" x="333.120586" y="99.989045" style="fill: #ff0000; stroke: #ff0000"/>
     <use xlink:href="#me4baabff9a" x="335.299475" y="93.484493" style="fill: #ff0000; stroke: #ff0000"/>
     <use xlink:href="#me4baabff9a" x="337.478365" y="93.050619" style="fill: #ff0000; stroke: #ff0000"/>
     <use xlink:href="#me4baabff9a" x="339.657254" y="62.508867" style="fill: #ff0000; stroke: #ff0000"/>
     <use xlink:href="#me4baabff9a" x="341.836144" y="71.566951" style="fill: #ff0000; stroke: #ff0000"/>
     <use xlink:href="#me4baabff9a" x="344.015034" y="89.300895" style="fill: #ff0000; stroke: #ff0000"/>
     <use xlink:href="#me4baabff9a" x="346.193923" y="65.909054" style="fill: #ff0000; stroke: #ff0000"/>
     <use xlink:href="#me4baabff9a" x="348.372813" y="74.969674" style="fill: #ff0000; stroke: #ff0000"/>
     <use xlink:href="#me4baabff9a" x="350.551702" y="69.932691" style="fill: #ff0000; stroke: #ff0000"/>
     <use xlink:href="#me4baabff9a" x="352.730592" y="56.769198" style="fill: #ff0000; stroke: #ff0000"/>
     <use xlink:href="#me4baabff9a" x="354.909481" y="55.916959" style="fill: #ff0000; stroke: #ff0000"/>
     <use xlink:href="#me4baabff9a" x="357.088371" y="56.441039" style="fill: #ff0000; stroke: #ff0000"/>
     <use xlink:href="#me4baabff9a" x="359.267261" y="72.347668" style="fill: #ff0000; stroke: #ff0000"/>
     <use xlink:href="#me4baabff9a" x="361.44615" y="73.120098" style="fill: #ff0000; stroke: #ff0000"/>
     <use xlink:href="#me4baabff9a" x="363.62504" y="61.454825" style="fill: #ff0000; stroke: #ff0000"/>
     <use xlink:href="#me4baabff9a" x="365.803929" y="72.212414" style="fill: #ff0000; stroke: #ff0000"/>
     <use xlink:href="#me4baabff9a" x="367.982819" y="59.620383" style="fill: #ff0000; stroke: #ff0000"/>
     <use xlink:href="#me4baabff9a" x="370.161708" y="57.890608" style="fill: #ff0000; stroke: #ff0000"/>
     <use xlink:href="#me4baabff9a" x="372.340598" y="70.919612" style="fill: #ff0000; stroke: #ff0000"/>
     <use xlink:href="#me4baabff9a" x="374.519487" y="68.2237" style="fill: #ff0000; stroke: #ff0000"/>
     <use xlink:href="#me4baabff9a" x="376.698377" y="63.017766" style="fill: #ff0000; stroke: #ff0000"/>
     <use xlink:href="#me4baabff9a" x="378.877267" y="60.43798" style="fill: #ff0000; stroke: #ff0000"/>
     <use xlink:href="#me4baabff9a" x="381.056156" y="66.247104" style="fill: #ff0000; stroke: #ff0000"/>
     <use xlink:href="#me4baabff9a" x="383.235046" y="60.170372" style="fill: #ff0000; stroke: #ff0000"/>
     <use xlink:href="#me4baabff9a" x="385.413935" y="63.046663" style="fill: #ff0000; stroke: #ff0000"/>
     <use xlink:href="#me4baabff9a" x="387.592825" y="60.153202" style="fill: #ff0000; stroke: #ff0000"/>
     <use xlink:href="#me4baabff9a" x="389.771714" y="57.50151" style="fill: #ff0000; stroke: #ff0000"/>
     <use xlink:href="#me4baabff9a" x="391.950604" y="53.568" style="fill: #ff0000; stroke: #ff0000"/>
     <use xlink:href="#me4baabff9a" x="394.129494" y="56.671278" style="fill: #ff0000; stroke: #ff0000"/>
     <use xlink:href="#me4baabff9a" x="396.308383" y="54.951163" style="fill: #ff0000; stroke: #ff0000"/>
     <use xlink:href="#me4baabff9a" x="398.487273" y="56.929764" style="fill: #ff0000; stroke: #ff0000"/>
    </g>
   </g>
   <g id="patch_3">
    <path d="M 57.6 307.584 
L 57.6 41.472 
" style="fill: none; stroke: #000000; stroke-width: 0.8; stroke-linejoin: miter; stroke-linecap: square"/>
   </g>
   <g id="patch_4">
    <path d="M 414.72 307.584 
L 414.72 41.472 
" style="fill: none; stroke: #000000; stroke-width: 0.8; stroke-linejoin: miter; stroke-linecap: square"/>
   </g>
   <g id="patch_5">
    <path d="M 57.6 307.584 
L 414.72 307.584 
" style="fill: none; stroke: #000000; stroke-width: 0.8; stroke-linejoin: miter; stroke-linecap: square"/>
   </g>
   <g id="patch_6">
    <path d="M 57.6 41.472 
L 414.72 41.472 
" style="fill: none; stroke: #000000; stroke-width: 0.8; stroke-linejoin: miter; stroke-linecap: square"/>
   </g>
   <g id="legend_1">
    <g id="patch_7">
     <path d="M 64.6 79.3845 
L 237.889062 79.3845 
Q 239.889062 79.3845 239.889062 77.3845 
L 239.889062 48.472 
Q 239.889062 46.472 237.889062 46.472 
L 64.6 46.472 
Q 62.6 46.472 62.6 48.472 
L 62.6 77.3845 
Q 62.6 79.3845 64.6 79.3845 
z
" style="fill: #ffffff; opacity: 0.8; stroke: #cccccc; stroke-linejoin: miter"/>
    </g>
    <g id="line2d_18">
     <path d="M 66.6 54.570438 
L 76.6 54.570438 
L 86.6 54.570438 
" style="fill: none; stroke: #008000; stroke-width: 1.5; stroke-linecap: square"/>
     <g>
      <use xlink:href="#m64e25d2f05" x="76.6" y="54.570438" style="fill: #008000; stroke: #008000"/>
     </g>
    </g>
    <g id="text_18">
     <!-- wigner_3j max relative error -->
     <g transform="translate(94.6 58.070438)scale(0.1 -0.1)">
      <defs>
       <path id="DejaVuSans-77" d="M 269 3500 
L 844 3500 
L 1563 769 
L 2278 3500 
L 2956 3500 
L 3675 769 
L 4391 3500 
L 4966 3500 
L 4050 0 
L 3372 0 
L 2619 2869 
L 1863 0 
L 1184 0 
L 269 3500 
z
" transform="scale(0.015625)"/>
       <path id="DejaVuSans-67" d="M 2906 1791 
Q 2906 2416 2648 2759 
Q 2391 3103 1925 3103 
Q 1463 3103 1205 2759 
Q 947 2416 947 1791 
Q 947 1169 1205 825 
Q 1463 481 1925 481 
Q 2391 481 2648 825 
Q 2906 1169 2906 1791 
z
M 3481 434 
Q 3481 -459 3084 -895 
Q 2688 -1331 1869 -1331 
Q 1566 -1331 1297 -1286 
Q 1028 -1241 775 -1147 
L 775 -588 
Q 1028 -725 1275 -790 
Q 1522 -856 1778 -856 
Q 2344 -856 2625 -561 
Q 2906 -266 2906 331 
L 2906 616 
Q 2728 306 2450 153 
Q 2172 0 1784 0 
Q 1141 0 747 490 
Q 353 981 353 1791 
Q 353 2603 747 3093 
Q 1141 3584 1784 3584 
Q 2172 3584 2450 3431 
Q 2728 3278 2906 2969 
L 2906 3500 
L 3481 3500 
L 3481 434 
z
" transform="scale(0.015625)"/>
       <path id="DejaVuSans-6e" d="M 3513 2113 
L 3513 0 
L 2938 0 
L 2938 2094 
Q 2938 2591 2744 2837 
Q 2550 3084 2163 3084 
Q 1697 3084 1428 2787 
Q 1159 2491 1159 1978 
L 1159 0 
L 581 0 
L 581 3500 
L 1159 3500 
L 1159 2956 
Q 1366 3272 1645 3428 
Q 1925 3584 2291 3584 
Q 2894 3584 3203 3211 
Q 3513 2838 3513 2113 
z
" transform="scale(0.015625)"/>
       <path id="DejaVuSans-5f" d="M 3263 -1063 
L 3263 -1509 
L -63 -1509 
L -63 -1063 
L 3263 -1063 
z
" transform="scale(0.015625)"/>
       <path id="DejaVuSans-6a" d="M 603 3500 
L 1178 3500 
L 1178 -63 
Q 1178 -731 923 -1031 
Q 669 -1331 103 -1331 
L -116 -1331 
L -116 -844 
L 38 -844 
Q 366 -844 484 -692 
Q 603 -541 603 -63 
L 603 3500 
z
M 603 4863 
L 1178 4863 
L 1178 4134 
L 603 4134 
L 603 4863 
z
" transform="scale(0.015625)"/>
      </defs>
      <use xlink:href="#DejaVuSans-77"/>
      <use xlink:href="#DejaVuSans-69" x="81.787109"/>
      <use xlink:href="#DejaVuSans-67" x="109.570312"/>
      <use xlink:href="#DejaVuSans-6e" x="173.046875"/>
      <use xlink:href="#DejaVuSans-65" x="236.425781"/>
      <use xlink:href="#DejaVuSans-72" x="297.949219"/>
      <use xlink:href="#DejaVuSans-5f" x="339.0625"/>
      <use xlink:href="#DejaVuSans-33" x="389.0625"/>
      <use xlink:href="#DejaVuSans-6a" x="452.685547"/>
      <use xlink:href="#DejaVuSans-20" x="480.46875"/>
      <use xlink:href="#DejaVuSans-6d" x="512.255859"/>
      <use xlink:href="#DejaVuSans-61" x="609.667969"/>
      <use xlink:href="#DejaVuSans-78" x="670.947266"/>
      <use xlink:href="#DejaVuSans-20" x="730.126953"/>
      <use xlink:href="#DejaVuSans-72" x="761.914062"/>
      <use xlink:href="#DejaVuSans-65" x="800.777344"/>
      <use xlink:href="#DejaVuSans-6c" x="862.300781"/>
      <use xlink:href="#DejaVuSans-61" x="890.083984"/>
      <use xlink:href="#DejaVuSans-74" x="951.363281"/>
      <use xlink:href="#DejaVuSans-69" x="990.572266"/>
      <use xlink:href="#DejaVuSans-76" x="1018.355469"/>
      <use xlink:href="#DejaVuSans-65" x="1077.535156"/>
      <use xlink:href="#DejaVuSans-20" x="1139.058594"/>
      <use xlink:href="#DejaVuSans-65" x="1170.845703"/>
      <use xlink:href="#DejaVuSans-72" x="1232.369141"/>
      <use xlink:href="#DejaVuSans-72" x="1271.732422"/>
      <use xlink:href="#DejaVuSans-6f" x="1310.595703"/>
      <use xlink:href="#DejaVuSans-72" x="1371.777344"/>
     </g>
    </g>
    <g id="line2d_19">
     <path d="M 66.6 69.526688 
L 76.6 69.526688 
L 86.6 69.526688 
" style="fill: none; stroke: #ff0000; stroke-width: 1.5; stroke-linecap: square"/>
     <g>
      <use xlink:href="#me4baabff9a" x="76.6" y="69.526688" style="fill: #ff0000; stroke: #ff0000"/>
     </g>
    </g>
    <g id="text_19">
     <!-- gsl_3j max relative error -->
     <g transform="translate(94.6 73.026688)scale(0.1 -0.1)">
      <defs>
       <path id="DejaVuSans-73" d="M 2834 3397 
L 2834 2853 
Q 2591 2978 2328 3040 
Q 2066 3103 1784 3103 
Q 1356 3103 1142 2972 
Q 928 2841 928 2578 
Q 928 2378 1081 2264 
Q 1234 2150 1697 2047 
L 1894 2003 
Q 2506 1872 2764 1633 
Q 3022 1394 3022 966 
Q 3022 478 2636 193 
Q 2250 -91 1575 -91 
Q 1294 -91 989 -36 
Q 684 19 347 128 
L 347 722 
Q 666 556 975 473 
Q 1284 391 1588 391 
Q 1994 391 2212 530 
Q 2431 669 2431 922 
Q 2431 1156 2273 1281 
Q 2116 1406 1581 1522 
L 1381 1569 
Q 847 1681 609 1914 
Q 372 2147 372 2553 
Q 372 3047 722 3315 
Q 1072 3584 1716 3584 
Q 2034 3584 2315 3537 
Q 2597 3491 2834 3397 
z
" transform="scale(0.015625)"/>
      </defs>
      <use xlink:href="#DejaVuSans-67"/>
      <use xlink:href="#DejaVuSans-73" x="63.476562"/>
      <use xlink:href="#DejaVuSans-6c" x="115.576172"/>
      <use xlink:href="#DejaVuSans-5f" x="143.359375"/>
      <use xlink:href="#DejaVuSans-33" x="193.359375"/>
      <use xlink:href="#DejaVuSans-6a" x="256.982422"/>
      <use xlink:href="#DejaVuSans-20" x="284.765625"/>
      <use xlink:href="#DejaVuSans-6d" x="316.552734"/>
      <use xlink:href="#DejaVuSans-61" x="413.964844"/>
      <use xlink:href="#DejaVuSans-78" x="475.244141"/>
      <use xlink:href="#DejaVuSans-20" x="534.423828"/>
      <use xlink:href="#DejaVuSans-72" x="566.210938"/>
      <use xlink:href="#DejaVuSans-65" x="605.074219"/>
      <use xlink:href="#DejaVuSans-6c" x="666.597656"/>
      <use xlink:href="#DejaVuSans-61" x="694.380859"/>
      <use xlink:href="#DejaVuSans-74" x="755.660156"/>
      <use xlink:href="#DejaVuSans-69" x="794.869141"/>
      <use xlink:href="#DejaVuSans-76" x="822.652344"/>
      <use xlink:href="#DejaVuSans-65" x="881.832031"/>
      <use xlink:href="#DejaVuSans-20" x="943.355469"/>
      <use xlink:href="#DejaVuSans-65" x="975.142578"/>
      <use xlink:href="#DejaVuSans-72" x="1036.666016"/>
      <use xlink:href="#DejaVuSans-72" x="1076.029297"/>
      <use xlink:href="#DejaVuSans-6f" x="1114.892578"/>
      <use xlink:href="#DejaVuSans-72" x="1176.074219"/>
     </g>
    </g>
   </g>
  </g>
 </g>
 <defs>
  <clipPath id="pd33f0cc22e">
   <rect x="57.6" y="41.472" width="357.12" height="266.112"/>
  </clipPath>
 </defs>
</svg>
