<?xml version="1.0" encoding="utf-8" standalone="no"?>
<!DOCTYPE svg PUBLIC "-//W3C//DTD SVG 1.1//EN"
  "http://www.w3.org/Graphics/SVG/1.1/DTD/svg11.dtd">
<svg xmlns:xlink="http://www.w3.org/1999/xlink" width="460.8pt" height="345.6pt" viewBox="0 0 460.8 345.6" xmlns="http://www.w3.org/2000/svg" version="1.1">
 <metadata>
  <rdf:RDF xmlns:dc="http://purl.org/dc/elements/1.1/" xmlns:cc="http://creativecommons.org/ns#" xmlns:rdf="http://www.w3.org/1999/02/22-rdf-syntax-ns#">
   <cc:Work>
    <dc:type rdf:resource="http://purl.org/dc/dcmitype/StillImage"/>
    <dc:date>2024-05-14T16:16:11.325684</dc:date>
    <dc:format>image/svg+xml</dc:format>
    <dc:creator>
     <cc:Agent>
      <dc:title>Matplotlib v3.5.1, https://matplotlib.org/</dc:title>
     </cc:Agent>
    </dc:creator>
   </cc:Work>
  </rdf:RDF>
 </metadata>
 <defs>
  <style type="text/css">*{stroke-linejoin: round; stroke-linecap: butt}</style>
 </defs>
 <g id="figure_1">
  <g id="patch_1">
   <path d="M 0 345.6 
L 460.8 345.6 
L 460.8 0 
L 0 0 
z
" style="fill: #ffffff"/>
  </g>
  <g id="axes_1">
   <g id="patch_2">
    <path d="M 57.6 307.584 
L 414.72 307.584 
L 414.72 41.472 
L 57.6 41.472 
z
" style="fill: #ffffff"/>
   </g>
   <g id="matplotlib.axis_1">
    <g id="xtick_1">
     <g id="line2d_1">
      <defs>
       <path id="m927198a02f" d="M 0 0 
L 0 3.5 
" style="stroke: #000000; stroke-width: 0.8"/>
      </defs>
      <g>
       <use xlink:href="#m927198a02f" x="70.553388" y="307.584" style="stroke: #000000; stroke-width: 0.8"/>
      </g>
     </g>
     <g id="text_1">
      <!-- 0 -->
      <g transform="translate(67.372138 322.182437)scale(0.1 -0.1)">
       <defs>
        <path id="DejaVuSans-30" d="M 2034 4250 
Q 1547 4250 1301 3770 
Q 1056 3291 1056 2328 
Q 1056 1369 1301 889 
Q 1547 409 2034 409 
Q 2525 409 2770 889 
Q 3016 1369 3016 2328 
Q 3016 3291 2770 3770 
Q 2525 4250 2034 4250 
z
M 2034 4750 
Q 2819 4750 3233 4129 
Q 3647 3509 3647 2328 
Q 3647 1150 3233 529 
Q 2819 -91 2034 -91 
Q 1250 -91 836 529 
Q 422 1150 422 2328 
Q 422 3509 836 4129 
Q 1250 4750 2034 4750 
z
" transform="scale(0.015625)"/>
       </defs>
       <use xlink:href="#DejaVuSans-30"/>
      </g>
     </g>
    </g>
    <g id="xtick_2">
     <g id="line2d_2">
      <g>
       <use xlink:href="#m927198a02f" x="136.140165" y="307.584" style="stroke: #000000; stroke-width: 0.8"/>
      </g>
     </g>
     <g id="text_2">
      <!-- 10 -->
      <g transform="translate(129.777665 322.182437)scale(0.1 -0.1)">
       <defs>
        <path id="DejaVuSans-31" d="M 794 531 
L 1825 531 
L 1825 4091 
L 703 3866 
L 703 4441 
L 1819 4666 
L 2450 4666 
L 2450 531 
L 3481 531 
L 3481 0 
L 794 0 
L 794 531 
z
" transform="scale(0.015625)"/>
       </defs>
       <use xlink:href="#DejaVuSans-31"/>
       <use xlink:href="#DejaVuSans-30" x="63.623047"/>
      </g>
     </g>
    </g>
    <g id="xtick_3">
     <g id="line2d_3">
      <g>
       <use xlink:href="#m927198a02f" x="201.726942" y="307.584" style="stroke: #000000; stroke-width: 0.8"/>
      </g>
     </g>
     <g id="text_3">
      <!-- 20 -->
      <g transform="translate(195.364442 322.182437)scale(0.1 -0.1)">
       <defs>
        <path id="DejaVuSans-32" d="M 1228 531 
L 3431 531 
L 3431 0 
L 469 0 
L 469 531 
Q 828 903 1448 1529 
Q 2069 2156 2228 2338 
Q 2531 2678 2651 2914 
Q 2772 3150 2772 3378 
Q 2772 3750 2511 3984 
Q 2250 4219 1831 4219 
Q 1534 4219 1204 4116 
Q 875 4013 500 3803 
L 500 4441 
Q 881 4594 1212 4672 
Q 1544 4750 1819 4750 
Q 2544 4750 2975 4387 
Q 3406 4025 3406 3419 
Q 3406 3131 3298 2873 
Q 3191 2616 2906 2266 
Q 2828 2175 2409 1742 
Q 1991 1309 1228 531 
z
" transform="scale(0.015625)"/>
       </defs>
       <use xlink:href="#DejaVuSans-32"/>
       <use xlink:href="#DejaVuSans-30" x="63.623047"/>
      </g>
     </g>
    </g>
    <g id="xtick_4">
     <g id="line2d_4">
      <g>
       <use xlink:href="#m927198a02f" x="267.313719" y="307.584" style="stroke: #000000; stroke-width: 0.8"/>
      </g>
     </g>
     <g id="text_4">
      <!-- 30 -->
      <g transform="translate(260.951219 322.182437)scale(0.1 -0.1)">
       <defs>
        <path id="DejaVuSans-33" d="M 2597 2516 
Q 3050 2419 3304 2112 
Q 3559 1806 3559 1356 
Q 3559 666 3084 287 
Q 2609 -91 1734 -91 
Q 1441 -91 1130 -33 
Q 819 25 488 141 
L 488 750 
Q 750 597 1062 519 
Q 1375 441 1716 441 
Q 2309 441 2620 675 
Q 2931 909 2931 1356 
Q 2931 1769 2642 2001 
Q 2353 2234 1838 2234 
L 1294 2234 
L 1294 2753 
L 1863 2753 
Q 2328 2753 2575 2939 
Q 2822 3125 2822 3475 
Q 2822 3834 2567 4026 
Q 2313 4219 1838 4219 
Q 1578 4219 1281 4162 
Q 984 4106 628 3988 
L 628 4550 
Q 988 4650 1302 4700 
Q 1616 4750 1894 4750 
Q 2613 4750 3031 4423 
Q 3450 4097 3450 3541 
Q 3450 3153 3228 2886 
Q 3006 2619 2597 2516 
z
" transform="scale(0.015625)"/>
       </defs>
       <use xlink:href="#DejaVuSans-33"/>
       <use xlink:href="#DejaVuSans-30" x="63.623047"/>
      </g>
     </g>
    </g>
    <g id="xtick_5">
     <g id="line2d_5">
      <g>
       <use xlink:href="#m927198a02f" x="332.900496" y="307.584" style="stroke: #000000; stroke-width: 0.8"/>
      </g>
     </g>
     <g id="text_5">
      <!-- 40 -->
      <g transform="translate(326.537996 322.182437)scale(0.1 -0.1)">
       <defs>
        <path id="DejaVuSans-34" d="M 2419 4116 
L 825 1625 
L 2419 1625 
L 2419 4116 
z
M 2253 4666 
L 3047 4666 
L 3047 1625 
L 3713 1625 
L 3713 1100 
L 3047 1100 
L 3047 0 
L 2419 0 
L 2419 1100 
L 313 1100 
L 313 1709 
L 2253 4666 
z
" transform="scale(0.015625)"/>
       </defs>
       <use xlink:href="#DejaVuSans-34"/>
       <use xlink:href="#DejaVuSans-30" x="63.623047"/>
      </g>
     </g>
    </g>
    <g id="xtick_6">
     <g id="line2d_6">
      <g>
       <use xlink:href="#m927198a02f" x="398.487273" y="307.584" style="stroke: #000000; stroke-width: 0.8"/>
      </g>
     </g>
     <g id="text_6">
      <!-- 50 -->
      <g transform="translate(392.124773 322.182437)scale(0.1 -0.1)">
       <defs>
        <path id="DejaVuSans-35" d="M 691 4666 
L 3169 4666 
L 3169 4134 
L 1269 4134 
L 1269 2991 
Q 1406 3038 1543 3061 
Q 1681 3084 1819 3084 
Q 2600 3084 3056 2656 
Q 3513 2228 3513 1497 
Q 3513 744 3044 326 
Q 2575 -91 1722 -91 
Q 1428 -91 1123 -41 
Q 819 9 494 109 
L 494 744 
Q 775 591 1075 516 
Q 1375 441 1709 441 
Q 2250 441 2565 725 
Q 2881 1009 2881 1497 
Q 2881 1984 2565 2268 
Q 2250 2553 1709 2553 
Q 1456 2553 1204 2497 
Q 953 2441 691 2322 
L 691 4666 
z
" transform="scale(0.015625)"/>
       </defs>
       <use xlink:href="#DejaVuSans-35"/>
       <use xlink:href="#DejaVuSans-30" x="63.623047"/>
      </g>
     </g>
    </g>
    <g id="text_7">
     <!-- Jmax -->
     <g transform="translate(223.79125 335.860562)scale(0.1 -0.1)">
      <defs>
       <path id="DejaVuSans-4a" d="M 628 4666 
L 1259 4666 
L 1259 325 
Q 1259 -519 939 -900 
Q 619 -1281 -91 -1281 
L -331 -1281 
L -331 -750 
L -134 -750 
Q 284 -750 456 -515 
Q 628 -281 628 325 
L 628 4666 
z
" transform="scale(0.015625)"/>
       <path id="DejaVuSans-6d" d="M 3328 2828 
Q 3544 3216 3844 3400 
Q 4144 3584 4550 3584 
Q 5097 3584 5394 3201 
Q 5691 2819 5691 2113 
L 5691 0 
L 5113 0 
L 5113 2094 
Q 5113 2597 4934 2840 
Q 4756 3084 4391 3084 
Q 3944 3084 3684 2787 
Q 3425 2491 3425 1978 
L 3425 0 
L 2847 0 
L 2847 2094 
Q 2847 2600 2669 2842 
Q 2491 3084 2119 3084 
Q 1678 3084 1418 2786 
Q 1159 2488 1159 1978 
L 1159 0 
L 581 0 
L 581 3500 
L 1159 3500 
L 1159 2956 
Q 1356 3278 1631 3431 
Q 1906 3584 2284 3584 
Q 2666 3584 2933 3390 
Q 3200 3197 3328 2828 
z
" transform="scale(0.015625)"/>
       <path id="DejaVuSans-61" d="M 2194 1759 
Q 1497 1759 1228 1600 
Q 959 1441 959 1056 
Q 959 750 1161 570 
Q 1363 391 1709 391 
Q 2188 391 2477 730 
Q 2766 1069 2766 1631 
L 2766 1759 
L 2194 1759 
z
M 3341 1997 
L 3341 0 
L 2766 0 
L 2766 531 
Q 2569 213 2275 61 
Q 1981 -91 1556 -91 
Q 1019 -91 701 211 
Q 384 513 384 1019 
Q 384 1609 779 1909 
Q 1175 2209 1959 2209 
L 2766 2209 
L 2766 2266 
Q 2766 2663 2505 2880 
Q 2244 3097 1772 3097 
Q 1472 3097 1187 3025 
Q 903 2953 641 2809 
L 641 3341 
Q 956 3463 1253 3523 
Q 1550 3584 1831 3584 
Q 2591 3584 2966 3190 
Q 3341 2797 3341 1997 
z
" transform="scale(0.015625)"/>
       <path id="DejaVuSans-78" d="M 3513 3500 
L 2247 1797 
L 3578 0 
L 2900 0 
L 1881 1375 
L 863 0 
L 184 0 
L 1544 1831 
L 300 3500 
L 978 3500 
L 1906 2253 
L 2834 3500 
L 3513 3500 
z
" transform="scale(0.015625)"/>
      </defs>
      <use xlink:href="#DejaVuSans-4a"/>
      <use xlink:href="#DejaVuSans-6d" x="29.492188"/>
      <use xlink:href="#DejaVuSans-61" x="126.904297"/>
      <use xlink:href="#DejaVuSans-78" x="188.183594"/>
     </g>
    </g>
   </g>
   <g id="matplotlib.axis_2">
    <g id="ytick_1">
     <g id="line2d_7">
      <defs>
       <path id="m0b7c5e0f31" d="M 0 0 
L -3.5 0 
" style="stroke: #000000; stroke-width: 0.8"/>
      </defs>
      <g>
       <use xlink:href="#m0b7c5e0f31" x="57.6" y="280.134623" style="stroke: #000000; stroke-width: 0.8"/>
      </g>
     </g>
     <g id="text_8">
      <!-- $\mathdefault{10^{-15}}$ -->
      <g transform="translate(22.7 283.933842)scale(0.1 -0.1)">
       <defs>
        <path id="DejaVuSans-2212" d="M 678 2272 
L 4684 2272 
L 4684 1741 
L 678 1741 
L 678 2272 
z
" transform="scale(0.015625)"/>
       </defs>
       <use xlink:href="#DejaVuSans-31" transform="translate(0 0.684375)"/>
       <use xlink:href="#DejaVuSans-30" transform="translate(63.623047 0.684375)"/>
       <use xlink:href="#DejaVuSans-2212" transform="translate(128.203125 38.965625)scale(0.7)"/>
       <use xlink:href="#DejaVuSans-31" transform="translate(186.855469 38.965625)scale(0.7)"/>
       <use xlink:href="#DejaVuSans-35" transform="translate(231.391602 38.965625)scale(0.7)"/>
      </g>
     </g>
    </g>
    <g id="ytick_2">
     <g id="line2d_8">
      <g>
       <use xlink:href="#m0b7c5e0f31" x="57.6" y="241.945727" style="stroke: #000000; stroke-width: 0.8"/>
      </g>
     </g>
     <g id="text_9">
      <!-- $\mathdefault{10^{-13}}$ -->
      <g transform="translate(22.7 245.744946)scale(0.1 -0.1)">
       <use xlink:href="#DejaVuSans-31" transform="translate(0 0.765625)"/>
       <use xlink:href="#DejaVuSans-30" transform="translate(63.623047 0.765625)"/>
       <use xlink:href="#DejaVuSans-2212" transform="translate(128.203125 39.046875)scale(0.7)"/>
       <use xlink:href="#DejaVuSans-31" transform="translate(186.855469 39.046875)scale(0.7)"/>
       <use xlink:href="#DejaVuSans-33" transform="translate(231.391602 39.046875)scale(0.7)"/>
      </g>
     </g>
    </g>
    <g id="ytick_3">
     <g id="line2d_9">
      <g>
       <use xlink:href="#m0b7c5e0f31" x="57.6" y="203.756831" style="stroke: #000000; stroke-width: 0.8"/>
      </g>
     </g>
     <g id="text_10">
      <!-- $\mathdefault{10^{-11}}$ -->
      <g transform="translate(22.7 207.55605)scale(0.1 -0.1)">
       <use xlink:href="#DejaVuSans-31" transform="translate(0 0.684375)"/>
       <use xlink:href="#DejaVuSans-30" transform="translate(63.623047 0.684375)"/>
       <use xlink:href="#DejaVuSans-2212" transform="translate(128.203125 38.965625)scale(0.7)"/>
       <use xlink:href="#DejaVuSans-31" transform="translate(186.855469 38.965625)scale(0.7)"/>
       <use xlink:href="#DejaVuSans-31" transform="translate(231.391602 38.965625)scale(0.7)"/>
      </g>
     </g>
    </g>
    <g id="ytick_4">
     <g id="line2d_10">
      <g>
       <use xlink:href="#m0b7c5e0f31" x="57.6" y="165.567935" style="stroke: #000000; stroke-width: 0.8"/>
      </g>
     </g>
     <g id="text_11">
      <!-- $\mathdefault{10^{-9}}$ -->
      <g transform="translate(27.1 169.367154)scale(0.1 -0.1)">
       <defs>
        <path id="DejaVuSans-39" d="M 703 97 
L 703 672 
Q 941 559 1184 500 
Q 1428 441 1663 441 
Q 2288 441 2617 861 
Q 2947 1281 2994 2138 
Q 2813 1869 2534 1725 
Q 2256 1581 1919 1581 
Q 1219 1581 811 2004 
Q 403 2428 403 3163 
Q 403 3881 828 4315 
Q 1253 4750 1959 4750 
Q 2769 4750 3195 4129 
Q 3622 3509 3622 2328 
Q 3622 1225 3098 567 
Q 2575 -91 1691 -91 
Q 1453 -91 1209 -44 
Q 966 3 703 97 
z
M 1959 2075 
Q 2384 2075 2632 2365 
Q 2881 2656 2881 3163 
Q 2881 3666 2632 3958 
Q 2384 4250 1959 4250 
Q 1534 4250 1286 3958 
Q 1038 3666 1038 3163 
Q 1038 2656 1286 2365 
Q 1534 2075 1959 2075 
z
" transform="scale(0.015625)"/>
       </defs>
       <use xlink:href="#DejaVuSans-31" transform="translate(0 0.765625)"/>
       <use xlink:href="#DejaVuSans-30" transform="translate(63.623047 0.765625)"/>
       <use xlink:href="#DejaVuSans-2212" transform="translate(128.203125 39.046875)scale(0.7)"/>
       <use xlink:href="#DejaVuSans-39" transform="translate(186.855469 39.046875)scale(0.7)"/>
      </g>
     </g>
    </g>
    <g id="ytick_5">
     <g id="line2d_11">
      <g>
       <use xlink:href="#m0b7c5e0f31" x="57.6" y="127.379039" style="stroke: #000000; stroke-width: 0.8"/>
      </g>
     </g>
     <g id="text_12">
      <!-- $\mathdefault{10^{-7}}$ -->
      <g transform="translate(27.1 131.178258)scale(0.1 -0.1)">
       <defs>
        <path id="DejaVuSans-37" d="M 525 4666 
L 3525 4666 
L 3525 4397 
L 1831 0 
L 1172 0 
L 2766 4134 
L 525 4134 
L 525 4666 
z
" transform="scale(0.015625)"/>
       </defs>
       <use xlink:href="#DejaVuSans-31" transform="translate(0 0.684375)"/>
       <use xlink:href="#DejaVuSans-30" transform="translate(63.623047 0.684375)"/>
       <use xlink:href="#DejaVuSans-2212" transform="translate(128.203125 38.965625)scale(0.7)"/>
       <use xlink:href="#DejaVuSans-37" transform="translate(186.855469 38.965625)scale(0.7)"/>
      </g>
     </g>
    </g>
    <g id="ytick_6">
     <g id="line2d_12">
      <g>
       <use xlink:href="#m0b7c5e0f31" x="57.6" y="89.190143" style="stroke: #000000; stroke-width: 0.8"/>
      </g>
     </g>
     <g id="text_13">
      <!-- $\mathdefault{10^{-5}}$ -->
      <g transform="translate(27.1 92.989361)scale(0.1 -0.1)">
       <use xlink:href="#DejaVuSans-31" transform="translate(0 0.684375)"/>
       <use xlink:href="#DejaVuSans-30" transform="translate(63.623047 0.684375)"/>
       <use xlink:href="#DejaVuSans-2212" transform="translate(128.203125 38.965625)scale(0.7)"/>
       <use xlink:href="#DejaVuSans-35" transform="translate(186.855469 38.965625)scale(0.7)"/>
      </g>
     </g>
    </g>
    <g id="ytick_7">
     <g id="line2d_13">
      <g>
       <use xlink:href="#m0b7c5e0f31" x="57.6" y="51.001247" style="stroke: #000000; stroke-width: 0.8"/>
      </g>
     </g>
     <g id="text_14">
      <!-- $\mathdefault{10^{-3}}$ -->
      <g transform="translate(27.1 54.800465)scale(0.1 -0.1)">
       <use xlink:href="#DejaVuSans-31" transform="translate(0 0.765625)"/>
       <use xlink:href="#DejaVuSans-30" transform="translate(63.623047 0.765625)"/>
       <use xlink:href="#DejaVuSans-2212" transform="translate(128.203125 39.046875)scale(0.7)"/>
       <use xlink:href="#DejaVuSans-33" transform="translate(186.855469 39.046875)scale(0.7)"/>
      </g>
     </g>
    </g>
    <g id="text_15">
     <!-- Relative Error -->
     <g transform="translate(16.620312 208.466281)rotate(-90)scale(0.1 -0.1)">
      <defs>
       <path id="DejaVuSans-52" d="M 2841 2188 
Q 3044 2119 3236 1894 
Q 3428 1669 3622 1275 
L 4263 0 
L 3584 0 
L 2988 1197 
Q 2756 1666 2539 1819 
Q 2322 1972 1947 1972 
L 1259 1972 
L 1259 0 
L 628 0 
L 628 4666 
L 2053 4666 
Q 2853 4666 3247 4331 
Q 3641 3997 3641 3322 
Q 3641 2881 3436 2590 
Q 3231 2300 2841 2188 
z
M 1259 4147 
L 1259 2491 
L 2053 2491 
Q 2509 2491 2742 2702 
Q 2975 2913 2975 3322 
Q 2975 3731 2742 3939 
Q 2509 4147 2053 4147 
L 1259 4147 
z
" transform="scale(0.015625)"/>
       <path id="DejaVuSans-65" d="M 3597 1894 
L 3597 1613 
L 953 1613 
Q 991 1019 1311 708 
Q 1631 397 2203 397 
Q 2534 397 2845 478 
Q 3156 559 3463 722 
L 3463 178 
Q 3153 47 2828 -22 
Q 2503 -91 2169 -91 
Q 1331 -91 842 396 
Q 353 884 353 1716 
Q 353 2575 817 3079 
Q 1281 3584 2069 3584 
Q 2775 3584 3186 3129 
Q 3597 2675 3597 1894 
z
M 3022 2063 
Q 3016 2534 2758 2815 
Q 2500 3097 2075 3097 
Q 1594 3097 1305 2825 
Q 1016 2553 972 2059 
L 3022 2063 
z
" transform="scale(0.015625)"/>
       <path id="DejaVuSans-6c" d="M 603 4863 
L 1178 4863 
L 1178 0 
L 603 0 
L 603 4863 
z
" transform="scale(0.015625)"/>
       <path id="DejaVuSans-74" d="M 1172 4494 
L 1172 3500 
L 2356 3500 
L 2356 3053 
L 1172 3053 
L 1172 1153 
Q 1172 725 1289 603 
Q 1406 481 1766 481 
L 2356 481 
L 2356 0 
L 1766 0 
Q 1100 0 847 248 
Q 594 497 594 1153 
L 594 3053 
L 172 3053 
L 172 3500 
L 594 3500 
L 594 4494 
L 1172 4494 
z
" transform="scale(0.015625)"/>
       <path id="DejaVuSans-69" d="M 603 3500 
L 1178 3500 
L 1178 0 
L 603 0 
L 603 3500 
z
M 603 4863 
L 1178 4863 
L 1178 4134 
L 603 4134 
L 603 4863 
z
" transform="scale(0.015625)"/>
       <path id="DejaVuSans-76" d="M 191 3500 
L 800 3500 
L 1894 563 
L 2988 3500 
L 3597 3500 
L 2284 0 
L 1503 0 
L 191 3500 
z
" transform="scale(0.015625)"/>
       <path id="DejaVuSans-20" transform="scale(0.015625)"/>
       <path id="DejaVuSans-45" d="M 628 4666 
L 3578 4666 
L 3578 4134 
L 1259 4134 
L 1259 2753 
L 3481 2753 
L 3481 2222 
L 1259 2222 
L 1259 531 
L 3634 531 
L 3634 0 
L 628 0 
L 628 4666 
z
" transform="scale(0.015625)"/>
       <path id="DejaVuSans-72" d="M 2631 2963 
Q 2534 3019 2420 3045 
Q 2306 3072 2169 3072 
Q 1681 3072 1420 2755 
Q 1159 2438 1159 1844 
L 1159 0 
L 581 0 
L 581 3500 
L 1159 3500 
L 1159 2956 
Q 1341 3275 1631 3429 
Q 1922 3584 2338 3584 
Q 2397 3584 2469 3576 
Q 2541 3569 2628 3553 
L 2631 2963 
z
" transform="scale(0.015625)"/>
       <path id="DejaVuSans-6f" d="M 1959 3097 
Q 1497 3097 1228 2736 
Q 959 2375 959 1747 
Q 959 1119 1226 758 
Q 1494 397 1959 397 
Q 2419 397 2687 759 
Q 2956 1122 2956 1747 
Q 2956 2369 2687 2733 
Q 2419 3097 1959 3097 
z
M 1959 3584 
Q 2709 3584 3137 3096 
Q 3566 2609 3566 1747 
Q 3566 888 3137 398 
Q 2709 -91 1959 -91 
Q 1206 -91 779 398 
Q 353 888 353 1747 
Q 353 2609 779 3096 
Q 1206 3584 1959 3584 
z
" transform="scale(0.015625)"/>
      </defs>
      <use xlink:href="#DejaVuSans-52"/>
      <use xlink:href="#DejaVuSans-65" x="64.982422"/>
      <use xlink:href="#DejaVuSans-6c" x="126.505859"/>
      <use xlink:href="#DejaVuSans-61" x="154.289062"/>
      <use xlink:href="#DejaVuSans-74" x="215.568359"/>
      <use xlink:href="#DejaVuSans-69" x="254.777344"/>
      <use xlink:href="#DejaVuSans-76" x="282.560547"/>
      <use xlink:href="#DejaVuSans-65" x="341.740234"/>
      <use xlink:href="#DejaVuSans-20" x="403.263672"/>
      <use xlink:href="#DejaVuSans-45" x="435.050781"/>
      <use xlink:href="#DejaVuSans-72" x="498.234375"/>
      <use xlink:href="#DejaVuSans-72" x="537.597656"/>
      <use xlink:href="#DejaVuSans-6f" x="576.460938"/>
      <use xlink:href="#DejaVuSans-72" x="637.642578"/>
     </g>
    </g>
   </g>
   <g id="line2d_14">
    <path d="M 73.832727 295.488 
L 77.112066 293.806816 
L 80.391405 293.806816 
L 83.670744 292.881574 
L 86.950083 292.125617 
L 90.229421 289.636024 
L 93.50876 290.486531 
L 96.788099 286.931284 
L 100.067438 287.048096 
L 103.346777 287.313261 
L 106.626116 288.666287 
L 109.905455 287.320951 
L 113.184793 287.767637 
L 116.464132 287.384178 
L 119.743471 286.991901 
L 123.02281 286.934898 
L 126.302149 287.018677 
L 129.581488 287.036213 
L 132.860826 286.362612 
L 136.140165 286.874938 
L 139.419504 285.857371 
L 142.698843 286.871891 
L 145.978182 286.772405 
L 149.257521 276.359713 
L 152.53686 256.877243 
L 155.816198 242.551488 
L 159.095537 232.509188 
L 162.374876 213.506964 
L 165.654215 220.730506 
L 168.933554 219.076474 
L 172.212893 210.961307 
L 175.492231 211.467778 
L 178.77157 194.827208 
L 182.050909 190.0098 
L 185.330248 203.461304 
L 188.609587 198.427204 
L 191.888926 197.350643 
L 195.168264 181.141332 
L 198.447603 179.48823 
L 201.726942 163.940176 
L 205.006281 183.488118 
L 208.28562 180.692734 
L 211.564959 173.750077 
L 214.844298 178.496881 
L 218.123636 157.27908 
L 221.402975 165.135898 
L 224.682314 164.04379 
L 227.961653 150.759013 
L 231.240992 155.279897 
L 234.520331 162.924287 
L 237.799669 159.995594 
L 241.079008 162.21204 
L 244.358347 153.248513 
L 247.637686 154.589585 
L 250.917025 150.259955 
L 254.196364 149.640998 
L 257.475702 140.568061 
L 260.755041 137.196168 
L 264.03438 154.290733 
L 267.313719 138.707738 
L 270.593058 120.56264 
L 273.872397 118.874902 
L 277.151736 115.197052 
L 280.431074 124.378088 
L 283.710413 144.031034 
L 286.989752 139.16911 
L 290.269091 97.947224 
L 293.54843 95.572878 
L 296.827769 135.339859 
L 300.107107 99.371426 
L 303.386446 96.774854 
L 306.665785 118.50196 
L 309.945124 95.597695 
L 313.224463 116.183034 
L 316.503802 113.045579 
L 319.78314 113.818931 
L 323.062479 112.666147 
L 326.341818 113.928513 
L 329.621157 110.622577 
L 332.900496 118.040235 
L 336.179835 107.544581 
L 339.459174 92.573465 
L 342.738512 106.185035 
L 346.017851 92.159386 
L 349.29719 85.471284 
L 352.576529 92.905801 
L 355.855868 94.831952 
L 359.135207 96.923733 
L 362.414545 85.810657 
L 365.693884 63.710138 
L 368.973223 86.409332 
L 372.252562 89.46035 
L 375.531901 57.553102 
L 378.81124 53.568 
L 382.090579 75.451902 
L 385.369917 85.14658 
L 388.649256 86.219507 
L 391.928595 68.802659 
L 395.207934 88.096668 
L 398.487273 68.513652 
" clip-path="url(#p8af700f3a4)" style="fill: none; stroke: #008000; stroke-width: 1.5; stroke-linecap: square"/>
    <defs>
     <path id="ma413cb5498" d="M 0 1.5 
C 0.397805 1.5 0.77937 1.341951 1.06066 1.06066 
C 1.341951 0.77937 1.5 0.397805 1.5 0 
C 1.5 -0.397805 1.341951 -0.77937 1.06066 -1.06066 
C 0.77937 -1.341951 0.397805 -1.5 0 -1.5 
C -0.397805 -1.5 -0.77937 -1.341951 -1.06066 -1.06066 
C -1.341951 -0.77937 -1.5 -0.397805 -1.5 0 
C -1.5 0.397805 -1.341951 0.77937 -1.06066 1.06066 
C -0.77937 1.341951 -0.397805 1.5 0 1.5 
z
" style="stroke: #008000"/>
    </defs>
    <g clip-path="url(#p8af700f3a4)">
     <use xlink:href="#ma413cb5498" x="73.832727" y="295.488" style="fill: #008000; stroke: #008000"/>
     <use xlink:href="#ma413cb5498" x="77.112066" y="293.806816" style="fill: #008000; stroke: #008000"/>
     <use xlink:href="#ma413cb5498" x="80.391405" y="293.806816" style="fill: #008000; stroke: #008000"/>
     <use xlink:href="#ma413cb5498" x="83.670744" y="292.881574" style="fill: #008000; stroke: #008000"/>
     <use xlink:href="#ma413cb5498" x="86.950083" y="292.125617" style="fill: #008000; stroke: #008000"/>
     <use xlink:href="#ma413cb5498" x="90.229421" y="289.636024" style="fill: #008000; stroke: #008000"/>
     <use xlink:href="#ma413cb5498" x="93.50876" y="290.486531" style="fill: #008000; stroke: #008000"/>
     <use xlink:href="#ma413cb5498" x="96.788099" y="286.931284" style="fill: #008000; stroke: #008000"/>
     <use xlink:href="#ma413cb5498" x="100.067438" y="287.048096" style="fill: #008000; stroke: #008000"/>
     <use xlink:href="#ma413cb5498" x="103.346777" y="287.313261" style="fill: #008000; stroke: #008000"/>
     <use xlink:href="#ma413cb5498" x="106.626116" y="288.666287" style="fill: #008000; stroke: #008000"/>
     <use xlink:href="#ma413cb5498" x="109.905455" y="287.320951" style="fill: #008000; stroke: #008000"/>
     <use xlink:href="#ma413cb5498" x="113.184793" y="287.767637" style="fill: #008000; stroke: #008000"/>
     <use xlink:href="#ma413cb5498" x="116.464132" y="287.384178" style="fill: #008000; stroke: #008000"/>
     <use xlink:href="#ma413cb5498" x="119.743471" y="286.991901" style="fill: #008000; stroke: #008000"/>
     <use xlink:href="#ma413cb5498" x="123.02281" y="286.934898" style="fill: #008000; stroke: #008000"/>
     <use xlink:href="#ma413cb5498" x="126.302149" y="287.018677" style="fill: #008000; stroke: #008000"/>
     <use xlink:href="#ma413cb5498" x="129.581488" y="287.036213" style="fill: #008000; stroke: #008000"/>
     <use xlink:href="#ma413cb5498" x="132.860826" y="286.362612" style="fill: #008000; stroke: #008000"/>
     <use xlink:href="#ma413cb5498" x="136.140165" y="286.874938" style="fill: #008000; stroke: #008000"/>
     <use xlink:href="#ma413cb5498" x="139.419504" y="285.857371" style="fill: #008000; stroke: #008000"/>
     <use xlink:href="#ma413cb5498" x="142.698843" y="286.871891" style="fill: #008000; stroke: #008000"/>
     <use xlink:href="#ma413cb5498" x="145.978182" y="286.772405" style="fill: #008000; stroke: #008000"/>
     <use xlink:href="#ma413cb5498" x="149.257521" y="276.359713" style="fill: #008000; stroke: #008000"/>
     <use xlink:href="#ma413cb5498" x="152.53686" y="256.877243" style="fill: #008000; stroke: #008000"/>
     <use xlink:href="#ma413cb5498" x="155.816198" y="242.551488" style="fill: #008000; stroke: #008000"/>
     <use xlink:href="#ma413cb5498" x="159.095537" y="232.509188" style="fill: #008000; stroke: #008000"/>
     <use xlink:href="#ma413cb5498" x="162.374876" y="213.506964" style="fill: #008000; stroke: #008000"/>
     <use xlink:href="#ma413cb5498" x="165.654215" y="220.730506" style="fill: #008000; stroke: #008000"/>
     <use xlink:href="#ma413cb5498" x="168.933554" y="219.076474" style="fill: #008000; stroke: #008000"/>
     <use xlink:href="#ma413cb5498" x="172.212893" y="210.961307" style="fill: #008000; stroke: #008000"/>
     <use xlink:href="#ma413cb5498" x="175.492231" y="211.467778" style="fill: #008000; stroke: #008000"/>
     <use xlink:href="#ma413cb5498" x="178.77157" y="194.827208" style="fill: #008000; stroke: #008000"/>
     <use xlink:href="#ma413cb5498" x="182.050909" y="190.0098" style="fill: #008000; stroke: #008000"/>
     <use xlink:href="#ma413cb5498" x="185.330248" y="203.461304" style="fill: #008000; stroke: #008000"/>
     <use xlink:href="#ma413cb5498" x="188.609587" y="198.427204" style="fill: #008000; stroke: #008000"/>
     <use xlink:href="#ma413cb5498" x="191.888926" y="197.350643" style="fill: #008000; stroke: #008000"/>
     <use xlink:href="#ma413cb5498" x="195.168264" y="181.141332" style="fill: #008000; stroke: #008000"/>
     <use xlink:href="#ma413cb5498" x="198.447603" y="179.48823" style="fill: #008000; stroke: #008000"/>
     <use xlink:href="#ma413cb5498" x="201.726942" y="163.940176" style="fill: #008000; stroke: #008000"/>
     <use xlink:href="#ma413cb5498" x="205.006281" y="183.488118" style="fill: #008000; stroke: #008000"/>
     <use xlink:href="#ma413cb5498" x="208.28562" y="180.692734" style="fill: #008000; stroke: #008000"/>
     <use xlink:href="#ma413cb5498" x="211.564959" y="173.750077" style="fill: #008000; stroke: #008000"/>
     <use xlink:href="#ma413cb5498" x="214.844298" y="178.496881" style="fill: #008000; stroke: #008000"/>
     <use xlink:href="#ma413cb5498" x="218.123636" y="157.27908" style="fill: #008000; stroke: #008000"/>
     <use xlink:href="#ma413cb5498" x="221.402975" y="165.135898" style="fill: #008000; stroke: #008000"/>
     <use xlink:href="#ma413cb5498" x="224.682314" y="164.04379" style="fill: #008000; stroke: #008000"/>
     <use xlink:href="#ma413cb5498" x="227.961653" y="150.759013" style="fill: #008000; stroke: #008000"/>
     <use xlink:href="#ma413cb5498" x="231.240992" y="155.279897" style="fill: #008000; stroke: #008000"/>
     <use xlink:href="#ma413cb5498" x="234.520331" y="162.924287" style="fill: #008000; stroke: #008000"/>
     <use xlink:href="#ma413cb5498" x="237.799669" y="159.995594" style="fill: #008000; stroke: #008000"/>
     <use xlink:href="#ma413cb5498" x="241.079008" y="162.21204" style="fill: #008000; stroke: #008000"/>
     <use xlink:href="#ma413cb5498" x="244.358347" y="153.248513" style="fill: #008000; stroke: #008000"/>
     <use xlink:href="#ma413cb5498" x="247.637686" y="154.589585" style="fill: #008000; stroke: #008000"/>
     <use xlink:href="#ma413cb5498" x="250.917025" y="150.259955" style="fill: #008000; stroke: #008000"/>
     <use xlink:href="#ma413cb5498" x="254.196364" y="149.640998" style="fill: #008000; stroke: #008000"/>
     <use xlink:href="#ma413cb5498" x="257.475702" y="140.568061" style="fill: #008000; stroke: #008000"/>
     <use xlink:href="#ma413cb5498" x="260.755041" y="137.196168" style="fill: #008000; stroke: #008000"/>
     <use xlink:href="#ma413cb5498" x="264.03438" y="154.290733" style="fill: #008000; stroke: #008000"/>
     <use xlink:href="#ma413cb5498" x="267.313719" y="138.707738" style="fill: #008000; stroke: #008000"/>
     <use xlink:href="#ma413cb5498" x="270.593058" y="120.56264" style="fill: #008000; stroke: #008000"/>
     <use xlink:href="#ma413cb5498" x="273.872397" y="118.874902" style="fill: #008000; stroke: #008000"/>
     <use xlink:href="#ma413cb5498" x="277.151736" y="115.197052" style="fill: #008000; stroke: #008000"/>
     <use xlink:href="#ma413cb5498" x="280.431074" y="124.378088" style="fill: #008000; stroke: #008000"/>
     <use xlink:href="#ma413cb5498" x="283.710413" y="144.031034" style="fill: #008000; stroke: #008000"/>
     <use xlink:href="#ma413cb5498" x="286.989752" y="139.16911" style="fill: #008000; stroke: #008000"/>
     <use xlink:href="#ma413cb5498" x="290.269091" y="97.947224" style="fill: #008000; stroke: #008000"/>
     <use xlink:href="#ma413cb5498" x="293.54843" y="95.572878" style="fill: #008000; stroke: #008000"/>
     <use xlink:href="#ma413cb5498" x="296.827769" y="135.339859" style="fill: #008000; stroke: #008000"/>
     <use xlink:href="#ma413cb5498" x="300.107107" y="99.371426" style="fill: #008000; stroke: #008000"/>
     <use xlink:href="#ma413cb5498" x="303.386446" y="96.774854" style="fill: #008000; stroke: #008000"/>
     <use xlink:href="#ma413cb5498" x="306.665785" y="118.50196" style="fill: #008000; stroke: #008000"/>
     <use xlink:href="#ma413cb5498" x="309.945124" y="95.597695" style="fill: #008000; stroke: #008000"/>
     <use xlink:href="#ma413cb5498" x="313.224463" y="116.183034" style="fill: #008000; stroke: #008000"/>
     <use xlink:href="#ma413cb5498" x="316.503802" y="113.045579" style="fill: #008000; stroke: #008000"/>
     <use xlink:href="#ma413cb5498" x="319.78314" y="113.818931" style="fill: #008000; stroke: #008000"/>
     <use xlink:href="#ma413cb5498" x="323.062479" y="112.666147" style="fill: #008000; stroke: #008000"/>
     <use xlink:href="#ma413cb5498" x="326.341818" y="113.928513" style="fill: #008000; stroke: #008000"/>
     <use xlink:href="#ma413cb5498" x="329.621157" y="110.622577" style="fill: #008000; stroke: #008000"/>
     <use xlink:href="#ma413cb5498" x="332.900496" y="118.040235" style="fill: #008000; stroke: #008000"/>
     <use xlink:href="#ma413cb5498" x="336.179835" y="107.544581" style="fill: #008000; stroke: #008000"/>
     <use xlink:href="#ma413cb5498" x="339.459174" y="92.573465" style="fill: #008000; stroke: #008000"/>
     <use xlink:href="#ma413cb5498" x="342.738512" y="106.185035" style="fill: #008000; stroke: #008000"/>
     <use xlink:href="#ma413cb5498" x="346.017851" y="92.159386" style="fill: #008000; stroke: #008000"/>
     <use xlink:href="#ma413cb5498" x="349.29719" y="85.471284" style="fill: #008000; stroke: #008000"/>
     <use xlink:href="#ma413cb5498" x="352.576529" y="92.905801" style="fill: #008000; stroke: #008000"/>
     <use xlink:href="#ma413cb5498" x="355.855868" y="94.831952" style="fill: #008000; stroke: #008000"/>
     <use xlink:href="#ma413cb5498" x="359.135207" y="96.923733" style="fill: #008000; stroke: #008000"/>
     <use xlink:href="#ma413cb5498" x="362.414545" y="85.810657" style="fill: #008000; stroke: #008000"/>
     <use xlink:href="#ma413cb5498" x="365.693884" y="63.710138" style="fill: #008000; stroke: #008000"/>
     <use xlink:href="#ma413cb5498" x="368.973223" y="86.409332" style="fill: #008000; stroke: #008000"/>
     <use xlink:href="#ma413cb5498" x="372.252562" y="89.46035" style="fill: #008000; stroke: #008000"/>
     <use xlink:href="#ma413cb5498" x="375.531901" y="57.553102" style="fill: #008000; stroke: #008000"/>
     <use xlink:href="#ma413cb5498" x="378.81124" y="53.568" style="fill: #008000; stroke: #008000"/>
     <use xlink:href="#ma413cb5498" x="382.090579" y="75.451902" style="fill: #008000; stroke: #008000"/>
     <use xlink:href="#ma413cb5498" x="385.369917" y="85.14658" style="fill: #008000; stroke: #008000"/>
     <use xlink:href="#ma413cb5498" x="388.649256" y="86.219507" style="fill: #008000; stroke: #008000"/>
     <use xlink:href="#ma413cb5498" x="391.928595" y="68.802659" style="fill: #008000; stroke: #008000"/>
     <use xlink:href="#ma413cb5498" x="395.207934" y="88.096668" style="fill: #008000; stroke: #008000"/>
     <use xlink:href="#ma413cb5498" x="398.487273" y="68.513652" style="fill: #008000; stroke: #008000"/>
    </g>
   </g>
   <g id="line2d_15">
    <path d="M 73.832727 289.739998 
L 77.112066 293.806816 
L 80.391405 284.293992 
L 83.670744 287.40117 
L 86.950083 283.165103 
L 90.229421 282.760499 
L 93.50876 282.836581 
L 96.788099 275.21453 
L 100.067438 274.986238 
L 103.346777 267.585747 
L 106.626116 266.779872 
L 109.905455 263.69195 
L 113.184793 258.607178 
L 116.464132 230.83068 
L 119.743471 230.83068 
L 123.02281 243.326622 
L 126.302149 240.863744 
L 129.581488 232.267192 
L 132.860826 232.267192 
L 136.140165 218.473258 
L 139.419504 218.473258 
L 142.698843 217.543748 
L 145.978182 226.490421 
L 149.257521 212.196643 
L 152.53686 213.082764 
L 155.816198 211.245199 
L 159.095537 192.768976 
L 162.374876 196.290051 
L 165.654215 192.768976 
L 168.933554 205.418259 
L 172.212893 205.954405 
L 175.492231 194.718591 
L 178.77157 203.237565 
L 182.050909 189.570242 
L 185.330248 199.794018 
L 188.609587 197.750757 
L 191.888926 174.360949 
L 195.168264 173.433448 
L 198.447603 186.013144 
L 201.726942 161.338608 
L 205.006281 181.746583 
L 208.28562 181.795619 
L 211.564959 161.421785 
L 214.844298 174.881035 
L 218.123636 149.007723 
L 221.402975 160.438693 
L 224.682314 160.238352 
L 227.961653 149.007723 
L 231.240992 151.790381 
L 234.520331 157.190133 
L 237.799669 151.175626 
L 241.079008 151.175626 
L 244.358347 147.609967 
L 247.637686 151.790381 
L 250.917025 157.104969 
L 254.196364 141.10579 
L 257.475702 135.878863 
L 260.755041 131.303828 
L 264.03438 147.601089 
L 267.313719 107.174997 
L 270.593058 120.071397 
L 273.872397 107.835097 
L 277.151736 120.071397 
L 280.431074 119.660561 
L 283.710413 131.750446 
L 286.989752 133.082925 
L 290.269091 95.18012 
L 293.54843 95.18012 
L 296.827769 130.304457 
L 300.107107 95.18012 
L 303.386446 103.610007 
L 306.665785 118.556641 
L 309.945124 98.63082 
L 313.224463 107.835097 
L 316.503802 107.174997 
L 319.78314 107.983064 
L 323.062479 109.467623 
L 326.341818 112.282652 
L 329.621157 107.13238 
L 332.900496 106.134268 
L 336.179835 106.134268 
L 339.459174 80.113734 
L 342.738512 95.607559 
L 346.017851 80.355077 
L 349.29719 82.553671 
" clip-path="url(#p8af700f3a4)" style="fill: none; stroke: #ff0000; stroke-width: 1.5; stroke-linecap: square"/>
    <defs>
     <path id="mdae12a934a" d="M 0 1.5 
C 0.397805 1.5 0.77937 1.341951 1.06066 1.06066 
C 1.341951 0.77937 1.5 0.397805 1.5 0 
C 1.5 -0.397805 1.341951 -0.77937 1.06066 -1.06066 
C 0.77937 -1.341951 0.397805 -1.5 0 -1.5 
C -0.397805 -1.5 -0.77937 -1.341951 -1.06066 -1.06066 
C -1.341951 -0.77937 -1.5 -0.397805 -1.5 0 
C -1.5 0.397805 -1.341951 0.77937 -1.06066 1.06066 
C -0.77937 1.341951 -0.397805 1.5 0 1.5 
z
" style="stroke: #ff0000"/>
    </defs>
    <g clip-path="url(#p8af700f3a4)">
     <use xlink:href="#mdae12a934a" x="73.832727" y="289.739998" style="fill: #ff0000; stroke: #ff0000"/>
     <use xlink:href="#mdae12a934a" x="77.112066" y="293.806816" style="fill: #ff0000; stroke: #ff0000"/>
     <use xlink:href="#mdae12a934a" x="80.391405" y="284.293992" style="fill: #ff0000; stroke: #ff0000"/>
     <use xlink:href="#mdae12a934a" x="83.670744" y="287.40117" style="fill: #ff0000; stroke: #ff0000"/>
     <use xlink:href="#mdae12a934a" x="86.950083" y="283.165103" style="fill: #ff0000; stroke: #ff0000"/>
     <use xlink:href="#mdae12a934a" x="90.229421" y="282.760499" style="fill: #ff0000; stroke: #ff0000"/>
     <use xlink:href="#mdae12a934a" x="93.50876" y="282.836581" style="fill: #ff0000; stroke: #ff0000"/>
     <use xlink:href="#mdae12a934a" x="96.788099" y="275.21453" style="fill: #ff0000; stroke: #ff0000"/>
     <use xlink:href="#mdae12a934a" x="100.067438" y="274.986238" style="fill: #ff0000; stroke: #ff0000"/>
     <use xlink:href="#mdae12a934a" x="103.346777" y="267.585747" style="fill: #ff0000; stroke: #ff0000"/>
     <use xlink:href="#mdae12a934a" x="106.626116" y="266.779872" style="fill: #ff0000; stroke: #ff0000"/>
     <use xlink:href="#mdae12a934a" x="109.905455" y="263.69195" style="fill: #ff0000; stroke: #ff0000"/>
     <use xlink:href="#mdae12a934a" x="113.184793" y="258.607178" style="fill: #ff0000; stroke: #ff0000"/>
     <use xlink:href="#mdae12a934a" x="116.464132" y="230.83068" style="fill: #ff0000; stroke: #ff0000"/>
     <use xlink:href="#mdae12a934a" x="119.743471" y="230.83068" style="fill: #ff0000; stroke: #ff0000"/>
     <use xlink:href="#mdae12a934a" x="123.02281" y="243.326622" style="fill: #ff0000; stroke: #ff0000"/>
     <use xlink:href="#mdae12a934a" x="126.302149" y="240.863744" style="fill: #ff0000; stroke: #ff0000"/>
     <use xlink:href="#mdae12a934a" x="129.581488" y="232.267192" style="fill: #ff0000; stroke: #ff0000"/>
     <use xlink:href="#mdae12a934a" x="132.860826" y="232.267192" style="fill: #ff0000; stroke: #ff0000"/>
     <use xlink:href="#mdae12a934a" x="136.140165" y="218.473258" style="fill: #ff0000; stroke: #ff0000"/>
     <use xlink:href="#mdae12a934a" x="139.419504" y="218.473258" style="fill: #ff0000; stroke: #ff0000"/>
     <use xlink:href="#mdae12a934a" x="142.698843" y="217.543748" style="fill: #ff0000; stroke: #ff0000"/>
     <use xlink:href="#mdae12a934a" x="145.978182" y="226.490421" style="fill: #ff0000; stroke: #ff0000"/>
     <use xlink:href="#mdae12a934a" x="149.257521" y="212.196643" style="fill: #ff0000; stroke: #ff0000"/>
     <use xlink:href="#mdae12a934a" x="152.53686" y="213.082764" style="fill: #ff0000; stroke: #ff0000"/>
     <use xlink:href="#mdae12a934a" x="155.816198" y="211.245199" style="fill: #ff0000; stroke: #ff0000"/>
     <use xlink:href="#mdae12a934a" x="159.095537" y="192.768976" style="fill: #ff0000; stroke: #ff0000"/>
     <use xlink:href="#mdae12a934a" x="162.374876" y="196.290051" style="fill: #ff0000; stroke: #ff0000"/>
     <use xlink:href="#mdae12a934a" x="165.654215" y="192.768976" style="fill: #ff0000; stroke: #ff0000"/>
     <use xlink:href="#mdae12a934a" x="168.933554" y="205.418259" style="fill: #ff0000; stroke: #ff0000"/>
     <use xlink:href="#mdae12a934a" x="172.212893" y="205.954405" style="fill: #ff0000; stroke: #ff0000"/>
     <use xlink:href="#mdae12a934a" x="175.492231" y="194.718591" style="fill: #ff0000; stroke: #ff0000"/>
     <use xlink:href="#mdae12a934a" x="178.77157" y="203.237565" style="fill: #ff0000; stroke: #ff0000"/>
     <use xlink:href="#mdae12a934a" x="182.050909" y="189.570242" style="fill: #ff0000; stroke: #ff0000"/>
     <use xlink:href="#mdae12a934a" x="185.330248" y="199.794018" style="fill: #ff0000; stroke: #ff0000"/>
     <use xlink:href="#mdae12a934a" x="188.609587" y="197.750757" style="fill: #ff0000; stroke: #ff0000"/>
     <use xlink:href="#mdae12a934a" x="191.888926" y="174.360949" style="fill: #ff0000; stroke: #ff0000"/>
     <use xlink:href="#mdae12a934a" x="195.168264" y="173.433448" style="fill: #ff0000; stroke: #ff0000"/>
     <use xlink:href="#mdae12a934a" x="198.447603" y="186.013144" style="fill: #ff0000; stroke: #ff0000"/>
     <use xlink:href="#mdae12a934a" x="201.726942" y="161.338608" style="fill: #ff0000; stroke: #ff0000"/>
     <use xlink:href="#mdae12a934a" x="205.006281" y="181.746583" style="fill: #ff0000; stroke: #ff0000"/>
     <use xlink:href="#mdae12a934a" x="208.28562" y="181.795619" style="fill: #ff0000; stroke: #ff0000"/>
     <use xlink:href="#mdae12a934a" x="211.564959" y="161.421785" style="fill: #ff0000; stroke: #ff0000"/>
     <use xlink:href="#mdae12a934a" x="214.844298" y="174.881035" style="fill: #ff0000; stroke: #ff0000"/>
     <use xlink:href="#mdae12a934a" x="218.123636" y="149.007723" style="fill: #ff0000; stroke: #ff0000"/>
     <use xlink:href="#mdae12a934a" x="221.402975" y="160.438693" style="fill: #ff0000; stroke: #ff0000"/>
     <use xlink:href="#mdae12a934a" x="224.682314" y="160.238352" style="fill: #ff0000; stroke: #ff0000"/>
     <use xlink:href="#mdae12a934a" x="227.961653" y="149.007723" style="fill: #ff0000; stroke: #ff0000"/>
     <use xlink:href="#mdae12a934a" x="231.240992" y="151.790381" style="fill: #ff0000; stroke: #ff0000"/>
     <use xlink:href="#mdae12a934a" x="234.520331" y="157.190133" style="fill: #ff0000; stroke: #ff0000"/>
     <use xlink:href="#mdae12a934a" x="237.799669" y="151.175626" style="fill: #ff0000; stroke: #ff0000"/>
     <use xlink:href="#mdae12a934a" x="241.079008" y="151.175626" style="fill: #ff0000; stroke: #ff0000"/>
     <use xlink:href="#mdae12a934a" x="244.358347" y="147.609967" style="fill: #ff0000; stroke: #ff0000"/>
     <use xlink:href="#mdae12a934a" x="247.637686" y="151.790381" style="fill: #ff0000; stroke: #ff0000"/>
     <use xlink:href="#mdae12a934a" x="250.917025" y="157.104969" style="fill: #ff0000; stroke: #ff0000"/>
     <use xlink:href="#mdae12a934a" x="254.196364" y="141.10579" style="fill: #ff0000; stroke: #ff0000"/>
     <use xlink:href="#mdae12a934a" x="257.475702" y="135.878863" style="fill: #ff0000; stroke: #ff0000"/>
     <use xlink:href="#mdae12a934a" x="260.755041" y="131.303828" style="fill: #ff0000; stroke: #ff0000"/>
     <use xlink:href="#mdae12a934a" x="264.03438" y="147.601089" style="fill: #ff0000; stroke: #ff0000"/>
     <use xlink:href="#mdae12a934a" x="267.313719" y="107.174997" style="fill: #ff0000; stroke: #ff0000"/>
     <use xlink:href="#mdae12a934a" x="270.593058" y="120.071397" style="fill: #ff0000; stroke: #ff0000"/>
     <use xlink:href="#mdae12a934a" x="273.872397" y="107.835097" style="fill: #ff0000; stroke: #ff0000"/>
     <use xlink:href="#mdae12a934a" x="277.151736" y="120.071397" style="fill: #ff0000; stroke: #ff0000"/>
     <use xlink:href="#mdae12a934a" x="280.431074" y="119.660561" style="fill: #ff0000; stroke: #ff0000"/>
     <use xlink:href="#mdae12a934a" x="283.710413" y="131.750446" style="fill: #ff0000; stroke: #ff0000"/>
     <use xlink:href="#mdae12a934a" x="286.989752" y="133.082925" style="fill: #ff0000; stroke: #ff0000"/>
     <use xlink:href="#mdae12a934a" x="290.269091" y="95.18012" style="fill: #ff0000; stroke: #ff0000"/>
     <use xlink:href="#mdae12a934a" x="293.54843" y="95.18012" style="fill: #ff0000; stroke: #ff0000"/>
     <use xlink:href="#mdae12a934a" x="296.827769" y="130.304457" style="fill: #ff0000; stroke: #ff0000"/>
     <use xlink:href="#mdae12a934a" x="300.107107" y="95.18012" style="fill: #ff0000; stroke: #ff0000"/>
     <use xlink:href="#mdae12a934a" x="303.386446" y="103.610007" style="fill: #ff0000; stroke: #ff0000"/>
     <use xlink:href="#mdae12a934a" x="306.665785" y="118.556641" style="fill: #ff0000; stroke: #ff0000"/>
     <use xlink:href="#mdae12a934a" x="309.945124" y="98.63082" style="fill: #ff0000; stroke: #ff0000"/>
     <use xlink:href="#mdae12a934a" x="313.224463" y="107.835097" style="fill: #ff0000; stroke: #ff0000"/>
     <use xlink:href="#mdae12a934a" x="316.503802" y="107.174997" style="fill: #ff0000; stroke: #ff0000"/>
     <use xlink:href="#mdae12a934a" x="319.78314" y="107.983064" style="fill: #ff0000; stroke: #ff0000"/>
     <use xlink:href="#mdae12a934a" x="323.062479" y="109.467623" style="fill: #ff0000; stroke: #ff0000"/>
     <use xlink:href="#mdae12a934a" x="326.341818" y="112.282652" style="fill: #ff0000; stroke: #ff0000"/>
     <use xlink:href="#mdae12a934a" x="329.621157" y="107.13238" style="fill: #ff0000; stroke: #ff0000"/>
     <use xlink:href="#mdae12a934a" x="332.900496" y="106.134268" style="fill: #ff0000; stroke: #ff0000"/>
     <use xlink:href="#mdae12a934a" x="336.179835" y="106.134268" style="fill: #ff0000; stroke: #ff0000"/>
     <use xlink:href="#mdae12a934a" x="339.459174" y="80.113734" style="fill: #ff0000; stroke: #ff0000"/>
     <use xlink:href="#mdae12a934a" x="342.738512" y="95.607559" style="fill: #ff0000; stroke: #ff0000"/>
     <use xlink:href="#mdae12a934a" x="346.017851" y="80.355077" style="fill: #ff0000; stroke: #ff0000"/>
     <use xlink:href="#mdae12a934a" x="349.29719" y="82.553671" style="fill: #ff0000; stroke: #ff0000"/>
    </g>
   </g>
   <g id="patch_3">
    <path d="M 57.6 307.584 
L 57.6 41.472 
" style="fill: none; stroke: #000000; stroke-width: 0.8; stroke-linejoin: miter; stroke-linecap: square"/>
   </g>
   <g id="patch_4">
    <path d="M 414.72 307.584 
L 414.72 41.472 
" style="fill: none; stroke: #000000; stroke-width: 0.8; stroke-linejoin: miter; stroke-linecap: square"/>
   </g>
   <g id="patch_5">
    <path d="M 57.6 307.584 
L 414.72 307.584 
" style="fill: none; stroke: #000000; stroke-width: 0.8; stroke-linejoin: miter; stroke-linecap: square"/>
   </g>
   <g id="patch_6">
    <path d="M 57.6 41.472 
L 414.72 41.472 
" style="fill: none; stroke: #000000; stroke-width: 0.8; stroke-linejoin: miter; stroke-linecap: square"/>
   </g>
   <g id="legend_1">
    <g id="patch_7">
     <path d="M 64.6 79.3845 
L 237.889062 79.3845 
Q 239.889062 79.3845 239.889062 77.3845 
L 239.889062 48.472 
Q 239.889062 46.472 237.889062 46.472 
L 64.6 46.472 
Q 62.6 46.472 62.6 48.472 
L 62.6 77.3845 
Q 62.6 79.3845 64.6 79.3845 
z
" style="fill: #ffffff; opacity: 0.8; stroke: #cccccc; stroke-linejoin: miter"/>
    </g>
    <g id="line2d_16">
     <path d="M 66.6 54.570438 
L 76.6 54.570438 
L 86.6 54.570438 
" style="fill: none; stroke: #008000; stroke-width: 1.5; stroke-linecap: square"/>
     <g>
      <use xlink:href="#ma413cb5498" x="76.6" y="54.570438" style="fill: #008000; stroke: #008000"/>
     </g>
    </g>
    <g id="text_16">
     <!-- wigner_6j max relative error -->
     <g transform="translate(94.6 58.070438)scale(0.1 -0.1)">
      <defs>
       <path id="DejaVuSans-77" d="M 269 3500 
L 844 3500 
L 1563 769 
L 2278 3500 
L 2956 3500 
L 3675 769 
L 4391 3500 
L 4966 3500 
L 4050 0 
L 3372 0 
L 2619 2869 
L 1863 0 
L 1184 0 
L 269 3500 
z
" transform="scale(0.015625)"/>
       <path id="DejaVuSans-67" d="M 2906 1791 
Q 2906 2416 2648 2759 
Q 2391 3103 1925 3103 
Q 1463 3103 1205 2759 
Q 947 2416 947 1791 
Q 947 1169 1205 825 
Q 1463 481 1925 481 
Q 2391 481 2648 825 
Q 2906 1169 2906 1791 
z
M 3481 434 
Q 3481 -459 3084 -895 
Q 2688 -1331 1869 -1331 
Q 1566 -1331 1297 -1286 
Q 1028 -1241 775 -1147 
L 775 -588 
Q 1028 -725 1275 -790 
Q 1522 -856 1778 -856 
Q 2344 -856 2625 -561 
Q 2906 -266 2906 331 
L 2906 616 
Q 2728 306 2450 153 
Q 2172 0 1784 0 
Q 1141 0 747 490 
Q 353 981 353 1791 
Q 353 2603 747 3093 
Q 1141 3584 1784 3584 
Q 2172 3584 2450 3431 
Q 2728 3278 2906 2969 
L 2906 3500 
L 3481 3500 
L 3481 434 
z
" transform="scale(0.015625)"/>
       <path id="DejaVuSans-6e" d="M 3513 2113 
L 3513 0 
L 2938 0 
L 2938 2094 
Q 2938 2591 2744 2837 
Q 2550 3084 2163 3084 
Q 1697 3084 1428 2787 
Q 1159 2491 1159 1978 
L 1159 0 
L 581 0 
L 581 3500 
L 1159 3500 
L 1159 2956 
Q 1366 3272 1645 3428 
Q 1925 3584 2291 3584 
Q 2894 3584 3203 3211 
Q 3513 2838 3513 2113 
z
" transform="scale(0.015625)"/>
       <path id="DejaVuSans-5f" d="M 3263 -1063 
L 3263 -1509 
L -63 -1509 
L -63 -1063 
L 3263 -1063 
z
" transform="scale(0.015625)"/>
       <path id="DejaVuSans-36" d="M 2113 2584 
Q 1688 2584 1439 2293 
Q 1191 2003 1191 1497 
Q 1191 994 1439 701 
Q 1688 409 2113 409 
Q 2538 409 2786 701 
Q 3034 994 3034 1497 
Q 3034 2003 2786 2293 
Q 2538 2584 2113 2584 
z
M 3366 4563 
L 3366 3988 
Q 3128 4100 2886 4159 
Q 2644 4219 2406 4219 
Q 1781 4219 1451 3797 
Q 1122 3375 1075 2522 
Q 1259 2794 1537 2939 
Q 1816 3084 2150 3084 
Q 2853 3084 3261 2657 
Q 3669 2231 3669 1497 
Q 3669 778 3244 343 
Q 2819 -91 2113 -91 
Q 1303 -91 875 529 
Q 447 1150 447 2328 
Q 447 3434 972 4092 
Q 1497 4750 2381 4750 
Q 2619 4750 2861 4703 
Q 3103 4656 3366 4563 
z
" transform="scale(0.015625)"/>
       <path id="DejaVuSans-6a" d="M 603 3500 
L 1178 3500 
L 1178 -63 
Q 1178 -731 923 -1031 
Q 669 -1331 103 -1331 
L -116 -1331 
L -116 -844 
L 38 -844 
Q 366 -844 484 -692 
Q 603 -541 603 -63 
L 603 3500 
z
M 603 4863 
L 1178 4863 
L 1178 4134 
L 603 4134 
L 603 4863 
z
" transform="scale(0.015625)"/>
      </defs>
      <use xlink:href="#DejaVuSans-77"/>
      <use xlink:href="#DejaVuSans-69" x="81.787109"/>
      <use xlink:href="#DejaVuSans-67" x="109.570312"/>
      <use xlink:href="#DejaVuSans-6e" x="173.046875"/>
      <use xlink:href="#DejaVuSans-65" x="236.425781"/>
      <use xlink:href="#DejaVuSans-72" x="297.949219"/>
      <use xlink:href="#DejaVuSans-5f" x="339.0625"/>
      <use xlink:href="#DejaVuSans-36" x="389.0625"/>
      <use xlink:href="#DejaVuSans-6a" x="452.685547"/>
      <use xlink:href="#DejaVuSans-20" x="480.46875"/>
      <use xlink:href="#DejaVuSans-6d" x="512.255859"/>
      <use xlink:href="#DejaVuSans-61" x="609.667969"/>
      <use xlink:href="#DejaVuSans-78" x="670.947266"/>
      <use xlink:href="#DejaVuSans-20" x="730.126953"/>
      <use xlink:href="#DejaVuSans-72" x="761.914062"/>
      <use xlink:href="#DejaVuSans-65" x="800.777344"/>
      <use xlink:href="#DejaVuSans-6c" x="862.300781"/>
      <use xlink:href="#DejaVuSans-61" x="890.083984"/>
      <use xlink:href="#DejaVuSans-74" x="951.363281"/>
      <use xlink:href="#DejaVuSans-69" x="990.572266"/>
      <use xlink:href="#DejaVuSans-76" x="1018.355469"/>
      <use xlink:href="#DejaVuSans-65" x="1077.535156"/>
      <use xlink:href="#DejaVuSans-20" x="1139.058594"/>
      <use xlink:href="#DejaVuSans-65" x="1170.845703"/>
      <use xlink:href="#DejaVuSans-72" x="1232.369141"/>
      <use xlink:href="#DejaVuSans-72" x="1271.732422"/>
      <use xlink:href="#DejaVuSans-6f" x="1310.595703"/>
      <use xlink:href="#DejaVuSans-72" x="1371.777344"/>
     </g>
    </g>
    <g id="line2d_17">
     <path d="M 66.6 69.526688 
L 76.6 69.526688 
L 86.6 69.526688 
" style="fill: none; stroke: #ff0000; stroke-width: 1.5; stroke-linecap: square"/>
     <g>
      <use xlink:href="#mdae12a934a" x="76.6" y="69.526688" style="fill: #ff0000; stroke: #ff0000"/>
     </g>
    </g>
    <g id="text_17">
     <!-- gsl_6j max relative error -->
     <g transform="translate(94.6 73.026688)scale(0.1 -0.1)">
      <defs>
       <path id="DejaVuSans-73" d="M 2834 3397 
L 2834 2853 
Q 2591 2978 2328 3040 
Q 2066 3103 1784 3103 
Q 1356 3103 1142 2972 
Q 928 2841 928 2578 
Q 928 2378 1081 2264 
Q 1234 2150 1697 2047 
L 1894 2003 
Q 2506 1872 2764 1633 
Q 3022 1394 3022 966 
Q 3022 478 2636 193 
Q 2250 -91 1575 -91 
Q 1294 -91 989 -36 
Q 684 19 347 128 
L 347 722 
Q 666 556 975 473 
Q 1284 391 1588 391 
Q 1994 391 2212 530 
Q 2431 669 2431 922 
Q 2431 1156 2273 1281 
Q 2116 1406 1581 1522 
L 1381 1569 
Q 847 1681 609 1914 
Q 372 2147 372 2553 
Q 372 3047 722 3315 
Q 1072 3584 1716 3584 
Q 2034 3584 2315 3537 
Q 2597 3491 2834 3397 
z
" transform="scale(0.015625)"/>
      </defs>
      <use xlink:href="#DejaVuSans-67"/>
      <use xlink:href="#DejaVuSans-73" x="63.476562"/>
      <use xlink:href="#DejaVuSans-6c" x="115.576172"/>
      <use xlink:href="#DejaVuSans-5f" x="143.359375"/>
      <use xlink:href="#DejaVuSans-36" x="193.359375"/>
      <use xlink:href="#DejaVuSans-6a" x="256.982422"/>
      <use xlink:href="#DejaVuSans-20" x="284.765625"/>
      <use xlink:href="#DejaVuSans-6d" x="316.552734"/>
      <use xlink:href="#DejaVuSans-61" x="413.964844"/>
      <use xlink:href="#DejaVuSans-78" x="475.244141"/>
      <use xlink:href="#DejaVuSans-20" x="534.423828"/>
      <use xlink:href="#DejaVuSans-72" x="566.210938"/>
      <use xlink:href="#DejaVuSans-65" x="605.074219"/>
      <use xlink:href="#DejaVuSans-6c" x="666.597656"/>
      <use xlink:href="#DejaVuSans-61" x="694.380859"/>
      <use xlink:href="#DejaVuSans-74" x="755.660156"/>
      <use xlink:href="#DejaVuSans-69" x="794.869141"/>
      <use xlink:href="#DejaVuSans-76" x="822.652344"/>
      <use xlink:href="#DejaVuSans-65" x="881.832031"/>
      <use xlink:href="#DejaVuSans-20" x="943.355469"/>
      <use xlink:href="#DejaVuSans-65" x="975.142578"/>
      <use xlink:href="#DejaVuSans-72" x="1036.666016"/>
      <use xlink:href="#DejaVuSans-72" x="1076.029297"/>
      <use xlink:href="#DejaVuSans-6f" x="1114.892578"/>
      <use xlink:href="#DejaVuSans-72" x="1176.074219"/>
     </g>
    </g>
   </g>
  </g>
 </g>
 <defs>
  <clipPath id="p8af700f3a4">
   <rect x="57.6" y="41.472" width="357.12" height="266.112"/>
  </clipPath>
 </defs>
</svg>
